/* XPM */
static char *alle1705919819[] = {
/* columns rows colors chars-per-pixel */
"50 50 25 1 ",
"  c #1A0E2A",
". c #1B0E2A",
"X c #1A0F2A",
"o c #1B0F2A",
"O c #1A0E2B",
"+ c #1B0E2B",
"@ c #1A0F2B",
"# c #1B0F2B",
"$ c #321E4C",
"% c #331E4C",
"& c #321F4C",
"* c #331F4C",
"= c #331E4D",
"- c #331F4D",
"; c #40285C",
": c #40295C",
"> c #41295C",
", c #41285D",
"< c #40295D",
"1 c #41295D",
"2 c #603C82",
"3 c #603D82",
"4 c #613C83",
"5 c #603D83",
"6 c #613D83",
/* pixels */
"-OOooooOooO+##OooOOOOooOooooX  &ooOOOOOOOo.OOoOOoO",
"O-OOOoOO.o++O#OoOOoOOOOooOOoX &&OOOoooOOo.OOOOooOO",
"O&OOOooOOOO#OOOooOoOOOO-OOOoOO&&ooooooO#.o.OOO##oo",
"O-&OoooO#oOoOOoooOoOOOO-&OoOO&& OOOOOOooO..o####o&",
"O&&.oOOOoooOOoOOoOoOooo*&Ooo-& OOoOOoooOooooOoooo&",
"O%&.OooO.%%OoOOOoOOOooo*%ooo&-OOoOoooooo#oO.+o++%&",
"o.%ooooO%%oOOoOOOOoOOoo*%%&O&&&OOO#oOoOoOOOo#OO%%#",
"..%&&oOo&oOoooOOoooOOoO*--&O&&OO.-#oooOOOOOoOOo%-#",
"..-$&..#-OOOOOOOoOOOOOO%--&O&&OOO-OOOOOO.oooOO%&Oo",
"..$&&-%%#O.-&-OOOOo&&&&%-OOO&%&&&OOOOooo.OoO*O--OO",
"OO$%&&&---------&%-&%&&&-OOO**&%-OOOoO&O.-&&O&--OO",
"OO-%&&&---$$-----%--%%&&-OOO**-%-OOOoO&O.---O%*%oO",
"OOO%%%;;;;;;;;;;%;;*>>&OoOOOOO-;;>----%,;;;,%&&ooo",
"ooo%%%;;;;;;,,,,*;<*>;%OOooOOO&;;>-&-&-,;;,,&&%OoO",
"OoOo#### OOOooo+ooOOoOoOoOoOoOOOoOoOOOOo++.OOoOOOo",
"OooO##O#OOOOooOooOOOOOOOooOoOOOOOooOOOoO#+OOOOOOoo",
"OO---***-;1;1*#+O&&&-&%**<;;;;1;11;1&-***##O***Ooo",
"OO--*----11;<*++O%-%**-*&<;,;;;;1111&-***###*-*o.O",
"%%,,<<;;;;;;<;--O-&-;;,;;,,;;111;111-***&O#O;;;O+#",
"-%;;<<11;;;;;;-%O-->;;>,;;,,1;1;;;;;;1;;,O$-;-*-OO",
"--;;;1;11;;;11%=O&&;;>;,11;1111;;1111;;;,O-&>&--Oo",
";;--*;;;;1;;;;,,O&&;>>>>>1;1;;;11;;11;;;,O;>;;;-oO",
"###-*;;,;;11;;11O>>;;;;,>>11111;;;1111;;,O,;;;;-oO",
"###-*;;11111;;11O>;>>;,,;;11;;11;1;;1;;;,O,,;;;-Oo",
"OOO&%;;;;;;11;;;#;;;11;;;;;;1111;1;1;---*o<1;;;-oo",
"$->;;;;;1;;1;;;;#-*-;1;11;1;;1;;;;;;;---**<;1;;-O.",
"&&;>1;1;11111;;1#*--;1;1111;<11111;;;---**111;;-Oo",
";;>>1;;;;11;1;;;#*--11111;;;<11111;;1--;<#;1;1;&oO",
";;>>11111;;;;1;;#***<<;;<11<<1;;>;;;,$$;<#;;,,;&oo",
";;>>11;;;;11111;#*&&**;;<;<1;;;;,,;;,,;;<#;;<,;-oo",
";;;1;1;;;;1;11;;#;<<11;;<<11;11;,,;;;;;55O55<<,&.O",
"11111111<<<<1;;;#;<<;;;;;;1;1;11,,,;;;;55#45;,,-OO",
"--;;;;;;;66111--o66;;;;;;;,,;;;,,<;,;2424-533>,>oo",
"--*1;;66<6611---+;;666<<;55544525<<,662-&O;>332-oo",
"***;,,33;5611---o;;665;<;;5555555,;>222%&O>>332%Oo",
"##*6343366;;--##OO#%**55663;25525--&,43OOOOo%--%OO",
"#OoooOOo#oOO++++OOooOOoo-oo+oo##OOoooO..OOOO###OOo",
"OOooooOO#oO#++##ooOooOOooo#+o+##OOoOoooooOOO##OOoO",
"OOOOOOooOO###+++OOOOooOoo++o+###OOOOOOOOoo..O.OOoo",
"OO*Oo&oo&O###--%-Oo%%&oOo%%#%*o*&O&%%OooO&-$$&&-&&",
"##%++-##-O+o*---&OO%&&OOO--O--#-&O--&Oooo&-----&**",
"%--=-#-;&&-#;;*-,-&,%%O&--&-*--*&&-%%-%%%&;;1*->*-",
"11%11111&;;#-*-*>;>&-%#---&;--*<,,&%,%%-%;;;;<>;;1",
",,=,,111-;;+--**>>,-&%#--&-;&&*;,,&-,%%%%>;;;<1;;;",
"66;;;;11$55O*-<;,,,;-$O$&;;;;;163,,,>&&25>,,;;;6;;",
"66;;;;11,55#56;;,,,,54O;;55;;;6;,3;;>oO32>,;;66;63",
"66;;;5,,;25#54;;,;;;54O;;55,,;3;;6;;;OO23,<;<56;33",
"*-6644242--O--454545--O----536336633%ooOO555666633",
"##OOOOOOooOoo##OOOOoo#OOOooOOOooo##O#OOOOoOoOOOoOo",
"##O#OOOOoooooO##OooOo#oOoOOOooOOoo####OOOOooOOOOOO"
};
