/* XPM */
static char *borders_resized1705697063[] = {
/* columns rows colors chars-per-pixel */
"100 100 69 1 ",
"  c #202032",
". c #212032",
"X c #202132",
"o c #212132",
"O c #202033",
"+ c #212033",
"@ c #202133",
"# c #212133",
"$ c #513462",
"% c #523462",
"& c #513468",
"* c #503568",
"= c #533568",
"- c #503668",
"; c #503768",
": c #513768",
"> c #533768",
", c #523669",
"< c #5C3A6A",
"1 c #5C3B6A",
"2 c #5E3B6B",
"3 c #5E3C70",
"4 c #5E3D70",
"5 c #5F3D70",
"6 c #5E3C71",
"7 c #5F3C71",
"8 c #5E3D71",
"9 c #5F3D71",
"0 c #603C70",
"q c #613C70",
"w c #603D70",
"e c #603C71",
"r c #613D71",
"t c #6A4074",
"y c #6A4174",
"u c #6B4274",
"i c #6A4374",
"p c #6C4174",
"a c #6C4274",
"s c #6D4274",
"d c #6C447C",
"f c #6C457C",
"g c #6D457C",
"h c #6C447D",
"j c #6E447C",
"k c #6F447C",
"l c #6F457C",
"z c #6F457D",
"x c #78467C",
"c c #78477C",
"v c #78477D",
"b c #7B467C",
"n c #7A477C",
"m c #79487C",
"M c #7A487C",
"N c #7E4A84",
"B c #7F4A84",
"V c #7E4B84",
"C c #7F4B84",
"Z c #7E4A85",
"A c #7F4A85",
"S c #7E4B85",
"D c #7E4C84",
"F c #7F4C84",
"G c #7F4D84",
"H c #7E4C85",
"J c #7F4C85",
"K c #7E4D85",
"L c #7F4D85",
/* pixels */
"    ##  #+   o  OO+  +    ++OO++XX       +   ++@@#    @@O@  +X++OO@@  XXX     X@XXXXXX@@  +@@@## #+@",
"  ++##  ++ + #o XX+ ++    @@OO++XX       X #++++@#    @@@@ X++@+OO@@  XX      X@XXXXXX@@  +@###   @@",
"++++oo  ++++  oo++OO      @@@@ @ X@@OO  ++  +++@  ##O@     +    OO@@O@++# ++  X   ++#@+++ X+ @  ##@#",
"  ++oo  ++++  ## X @      ##@@ @ X@@OO  @   ++++  ##OO        @ @@@@O+++#     X   ++#@@@  X     ####",
"  XXXX         #+++++ OO  ++++++++OO+  +        ##++@@     X@@ @OO  +O@O## +    XX X####    ++++    ",
"##XX          ##+@++ ++O  ++  +++O+O+ ++ X      ##+ @@XX   X@@@@O    O@@XX X  XXOX X##X#++  X++X    ",
"##XX  LLCCCCGLLLBZBBKLAAGGGBKBBZCBCCLCLCNHBKGBBGGGGBKBKHBHGBGGLLHSBBKKBBGGBBBBBBBBBBGBGGCGGGKK  @@  ",
"##XX  LLCCCGGLLLBBBBBLZZGGCBBKBBKKACLLCLHNHBBGBGGGCCBBBHHHGGGGGGBBBBCLBBGGBGBGGBKBGBBBGGGCGGGL  @@  ",
"  ++++AACCSSBBBKZZAALAnnNNNNKBKBBLLCCCBZHHHHKBBBKNBBNNccSHNHHHNHBBBBKCLCnnnnCCnmvnKLNNBBBBBBHS@O  ##",
"  ++++ACBCHSBBBBZZAALLnnNNNBBBKBKLCCCCBZHHLKNHKBBSSBNNccHNHNHHHNCCBBCCCKnnnnCKnnnxCGNSBBBBBKBBOO  ##",
"++  ++CCBBBBKBKBBBLHALLCNHSKBSCLNGBBCCCCBKmmNNHBBHNzNNNNNGGBSHBBCCLCBBKKBBKBBBCCcbGCHBBBBBKBBB@O##@@",
"++  ++CCBKBBBKBBBBLZLLCCHNSSSSLCNBBGCCLLBKmmNNNBSSxxSSNNHBBGSSBBCCCLBBKBZBKKBBCLbcCGNHSBSBBKBB@O##@@",
"  +++ =*;;%%77776e6wHHBBNNHHBZKCccBBvcCCKBBSSSKBBBKBBGSSjjjjishhglgkgghffdNNBBZAhhjjjdjdNNBGBG  ++++",
"  +++O==;;%%77776re2HBBBNNHHKBBKccBBccCCBKBBBBBBKBHHBGSSjjjjsikklgkghhgfNdNNBZZZzlkgdjdjNSGBBB  ++++",
"   +OO&;;;%%77wwwr2rvmNKNNHHBKKBBBBScbCCBCCBBBKKBBSSNNGBjjjjjkhkllggzzffhhKKBZBBhhlgjjjjKKxcGG  ++  ",
" + +  ;;&&%%77wwwww7nmHNNNBGBBKKBBSScbCCKCBBKBBBKBSSGBBBjjjjjkhklgggggffhhKNKBHBhhzgjjjjBBxvBB  ++  ",
"  o oo==**%%ww6wew72KHBBCCBGKBBBBBAACCBBNNSSGBBBxvBBKBSHhdjjgdggzzjjggzzzhGCKCBKjjjjyyjjccGGLL #  ##",
" +o#oo>=>*%%ww26ww77KBSSCCKBKKBBBBAACBBBNNSSBBGGxvGBBBSNghhhddjgzzjjggzzhzCCBBBBdjjjyyjjccCGLL #  ##",
" # #oo==:;:*w7772<26hhhhggCCcmccNNBCcbBBNNBBNNNNBGBBBKBKgfhkggjdjjjjwwnkdjjjjjjgggggggjkppyyzz  @@  ",
" ###oo=>*:**772i226ehhzzggCGmmccBBBCccCCNNBBNNNNNBBGBKBBffzkgdddjjjjsskkjdjjggjgggggggjjpppphh  @@  ",
"oo  o.==**:>2t7822wwzhhhggGGZBBBnnBBCCccNBSSNNNNNNNNNNKByyjjggypggggjjggggggjjddggjjjjjjjjjjll #  ##",
"o   o.==***>787722wwzhglzzGCZBKBnnKBCCcbNBNNNNNNNHNNNNBKyyjgggpyggggjjggjjggjjddggjjjjjjjjjdlho#  ##",
"##    =>**;;87t2wwwwgggghhHZZZBBNSBSccBBBBNSBBNBNNNNNBBBjjggggggggjjjjggjkgjjdjjgggghhggjgddzh  ####",
"+#    *>;;;;772reew2gggghhHBAABBNSSSccBBGBSNGBNBNNNNNBBBjjggggggggjjjjggkkjjjjjjgggghzggjgddzz X####",
"++++@@t28788zfzgishhjdjdgggjjjggNNNHBBBBccBBccBBBBccGBBBgglllgyigghhppkkgggghzggjjkkggggLACCBB@@oXXX",
"++  @@y17788zzfgrshzdjdjggjgjgggNNHNKBBBccBBbbBBBBccGBGGggllggyihhhhypllgggghzggjjkgggggAACCHZ+OoXXX",
"@@  +@w2t877fzffjjlljdzzgkggdgdjNSBBGGvcBBccCCCBBGGBGBDNgjkkggggfhggggggyyypgglldgggggggAANNHH@ XXXX",
"@@++ +7r2777fzffdjjgzggzkgggjdjjSNBBBBccBBccCCCBBBBBGBNDgjkkggdgffdzggggyipygglgggggggggCCNNHH@OXXXX",
"@@  ##rr7877ffffjdhhzhglgkggggdgGBGGBBGBNNNNBGNNDNDNDNDNzgggggggggyyyyggzzggjjyyggggggggAACCKK@@++@@",
"@@  oorr7872ffffdjhhghlgkggjggddBBGBGBDBNNNNBBNNNDNDNDNDgghhggggggyyyyggzzggggyyggggggggCCCCKB@@++@@",
"XXX oorq2221i778<ewwggggggCCBGBBBGccNDNDGBNNGBNDSSDNBNGBhgggggggggllggzzjgglddkgggipzzkkCCACKL++@@@@",
"XXX oorq22112777wwwwggggggCCBGBGBBccDNDNBBNNGBDNSHNDGBBBjgggggjgggllggzzkgjjdjjgggyyzzkkCCLLCC++@@@@",
"XX++  66878877i777rrgkllddBBHHNNDNDNDNNDBNDNDNSSccGGDNHSddggggjjffiiggiyggzzjjppypgggjggLLBZZZ@@    ",
"XX++  6287822717772rkgllfNHKHHNHNDNDNNDNGBNDNDSSccBBNDSSddggggkjfziiggyygggzjjpypiggljggZHBHAA+O    ",
"      <<t228882255rrllhhffBKNBHHDNDNNNNNGBHNDNGGDNDNBBNNhzggpyyyhhsslkggkghgggjggghhgggkBHZHHB+@ #  ",
"      <2888t88212ywwllhhhhKKBBHHNDNDNNNNBKBHNDBBNDNDGBNNhzggypyyhhsillggkgjgggjggghhggkkZBLZBH@@##++",
" +++@@2288i1y1777722gggghhww77t7BNNNNDBGNNNNBBccHSNNBGNDee22<2w27777eweerrgjgggliiglgkggwwerww  ####",
" +++@@22787777777222gggghh6e7787BNNNDNBBNNNHBBccSSNNBBDNww2222wwe677eweew2glgggzyyglkgggwwe6ww  ##o#",
"++++X 88887788882278ggzzhh2w7788NNNNBBDNBBNNBBBBNNNNDNHSwwwwe6ee6eww6eww22hghzgggglgkkkl77w6ww    oo",
"++@@X@21t88888t78t88fffzhh777ww8NNNNGGNDBBNBBBBBNNNNNDSSww<e6e6ee6wwe6ww22hhggghggllkkll777wee    oo",
"XX++  t2777777772255ffffdd272282BBNNBGNNNNDNNNccBKccNNSNe6i1771227i7772777fzipffiillpipiww<2e6+ oooo",
"  ++  87w27777722255fflfdN7722t2BGNNBGNDNNNDNNccBBccNNSN6e7777227777777w77fhyiffppllyiipw22<ee+ oooo",
"++++#X%%>**>27778858**>;::ww7777BGBBBBccDNDNNDSSBKNSNNNN<2772t277777;::>::77rr88wwr277y77777ww  oo#+",
"++++#X%%*:>>77i78855>*;>>*ww7277BBBBBBccNDNDDNSSKBSNNNBB<277i887w287::>>;;2t2r77wwww77<727w7w6  oo++",
" ## XX;=*>>%w2eewwwe**>=*:ww2qeeGBDNccSSDNGGGBSSBBBKBKBBi77218<<eew7*>>*;;7w2777w7e77766ww7777    ++",
" ## XX=>:*%%eeewwww<*>>>:*wwrqewDNNDccSSNDBBGBSHBKSBBKBG777788<<ee77****;;7wi87777667766ww7777    ++",
"      >*****e6wweee6****>*wrr2wwBBNNBBGBNNGGNNNNBKNNKBHB72727766eeee>**>>*ww72722wwi788677<277X+oo++",
"##    =**>>>6eww<eee=*==*>wrwwwwGBNNBGGGNNBBNDNNBBNNBKKK776i2776erre>*>>>*ww777iwwwr8t88772277X+oo++",
"#+  @OOOOOXX@@XX@@    ++++XX    ##+++    +++OOOOXOOO@@##  XXX@++OO++  @@@@XX  ++  @@@@@@  ++      oo",
"#+++@@OOOOXX@@  @@  XX++++XX    ##+++    ++++O O  OO@@##  ##X@++OO++  @+++XX X++  @@@@@@+ +       oo",
"@@    OX++++@@@@ X X++++##++   + o++ ++ ++++OO@@XX++++XX  ##@+@@+XO@  ++X+++X       @@@@++   O    ++",
"@@++X+OX+++++@@@   X++++##++   +oo@@@+OO++++OOOOXX +  XX  ##@+@@OOO@  ++X+@@XX X    @@@@++ +OO    ++",
"LLBKBBBBNBBBKCCLNNSBHNSBGKKBKKCCCCLCccCBBGBKSSBZBKOOOO##DDDDKKBBKBBKBBBBKKSSSHHHKBKBvmBSKLBBBBSSLLBK",
"LLKKBBBBNBBBKLLCNNNHBSSKGGKBLLCKLLLCccBBGGKBSSBZBKOO+O##DDDDKKBKHHKBHKBBCCSSBKHSBBHHvvBBKKBKSNSSCLBK",
"GGGBKKKCNSCCCGCCHSHBHKBBBBKGmnnnHBCCNHBKGGBBSSSSBNXX+++XDDDNGBKKBHCCZZKKBBBSKSSSBKKKBBBKKBccHHNNBBBB",
"GGBBKKCCHSCCGCGCBKKKGGBBKBKCnbnnBBBBHNSBBKBBSSSSBSX@++##DDBBGGBKHBCCALHHBBBHBHSSBBCKBKKKBBccHNNNKBBB",
"HBBBKBBBKBBGBBBGCCBBKBKBSSHBBBSSHBLCCCnnSSSBxmSSKK++  ++DDBBSSNSKKBBKBHBBKHHBBKBKKLKGBGGHHDDNcGGCCcc",
"SBBBBKBBGBGBBGBBCCBBBKBCNBKBKKSBKBLCCCmmSNSBmmBBKK++  ++HHBKSSSSBBKKBKBZBBKHSBBGKBKKGGHBDDDDccHHCCcc",
"hhdhiijjdgggghdhkkgghzhghdnnBBBBhzzkggKBNHDNmnBBmm++@@++;;;;&&NdggjjKKBBKBKBfhzghhzlhhdfDDNDNNHHBBLC",
"lhjhiijjdggggzghgkgghhghddnxSSKBhhjkggGKHNDSnnBBmm++++++;;;;&;ddggjgKBKBKKBBffgzhhhzhddfDDDNNNHHKBCK",
"pssskkhjjjgggglgkkggggllhkLLBKBNgglgggBBSSSSCCKBCC++++  >***$$ddzgzgGKKKBCCCggggyyggggggSSNDGBHBBBKK",
"pwwshfhhjjggggjlkkggggklkkCCBKBSggkgggKBSSSSCCCBLC++    **>>$$ffzzzgBKBBBKKBggggyyggggggSHDNBHSKKBGB",
"djLhggggggggyygggggggglghhCCKBCGgggghhBBBSBKCCKKnn @    >>$%$$ffkzswGBBKKKccggiykkggyyggDNBGNDccBGHH",
"jgghggggdgggyyggggggggglhhCCBBGCggggghBBBKZBBBKBnn@@    >:$$$$ffzzwyGGBKBBccggppllggyyggNDBBDNccGGHH",
"djggdgggggggggjjggggyiggggzgggggzffffflllgiiBBxxBB@@@###>>*>**8t8822hzzfjjggggjjjjdjgggggggggggggggg",
"jdggggggggggggggggggyygglgzzhgggzzzfffllllyiBBxxZZ++@@##***>**888877lzzfjjggggghjjjdgggggggggggggggg",
"dgyyklyyllhgggggiyjkggggggggggggllffiyggggggBBccZA+ #   *>**>:777777zfzfjjgggghgggdjgggggggggggggkjg",
"ggyylgyyggggggggyykkggggggggggggllffyyggggggBCccHL++#   **>;>:777777ffzfggggggzzgdjdggkgggggggggkgkg",
"gggglgggiighggyyggggggggggggglgkdddfjjjjipjjBBNHKL   +  ::;;;;i2wwewffzgllggffzfgggggggglggggkgggggg",
"ggggllggiyggggyyglggggggggggggkgggdzjjjgipjjBBHNKL   +  ;:;;;;1tww6wzfggllgglzfzggggkghgggggkkgggggg",
"ggllggggzgypkkggzghggggdkkkkllkkiigzkkccKBKCBSNHKK++  ++772287ffzzggggggggyyggflddggzgyiggyigggggggg",
"jjkkggjjgziykkggzzgggggdkkggglkkiphzkkccKKCCBSSNBK++  ++722<77lfhhggggggggyyggzlddggzziiggiygggggggg",
"yyggggggggggggzzggggggyyggggklllklllllBGHHNHDNBBBB@+####p78822ffhgggffllfflllffflllfgggggglgggggggyy",
"yyggggggggggggzzggggggyygkggkkllkhlgllBGHHHNNNGGBB++####228t22ffhggglfffflllfflfzlffggggggllggggggyy",
"iyggggyyffddgggkggkkggjjggkglllgiskkggGBcmDDDNDNBB++##  888855ffyygglfffyyiiffddzzffddiyggllgggggggg",
"yyggggyyffddggkgggjgggjjgggkllggsskkggBBmvDDNDNNKB@+##  877855ffypggffllypiifffgfffffdyiggklgggggggg",
"gglgglggffyyglgggjjjgggggghhypgghkhhddALvmBBHHGGBK@@++  21288855<w87zfffggggggggzfffyyyyddgggggggggg",
"lgllllglflyplgggggjjgglggghhipgghhhkdNLZmmBBHHBGBB+O++  12t85755ww88fflfggggggggffffyyyidggggggggggg",
"llllggglflggggglggyyyyggzzdddjlgkkffddZHBBKBHHNSBH@O+@@#555855557772flffggggggggggffggggggggggggyygg",
"lllllgllllgggglgggyyyygzgzdddjglkhffddHZHBKKSSNBKBOO@@##55885555778tffflggggggggglflggggggggggggyygg",
"llfffffffffzhzzfgkggffNdddllggggjjggggCHLAAAnnBKLL  o...722212772888ffddiihzggyyyygglffflfffffffgggg",
"llfzfffffzfzgffzgjggffddddggggggkgggggLCLAAAnxBBCL  o..o722<22778t88fffdishhggyyyyggfflflfzzffllgggg",
"ffzfff7777782t77wwrr6rrr66ddjjzzgggggg2wrwwwSSSSCL  oooo:>>;;;778878278t272wgggggh2w8887t77782ffiilf",
"ffffzf81772788777ww2e66w66ddjkzzgglgggr2ewwwSSSBACoooooo::;;;;728872778877rrggggdh7w888728772tlfiiff",
"ffflffty77886e672277w<wr6ezgggggyyhzlf58ww6wZHBZCCOO+++o:;;;:*212888788578t8gkggff882288885588zffffl",
"fffzfz28772te6r72277wwrer6gzggggyyzzlf58wwe6BBBSCC+O++  ;;&;:>22778888887782kgggfz882288885588zzffff",
"gggzzz887788eew22w77wewwr2jjggggggggii77we2eBSHHKK++    ****::88882728558887lkhhflt288885588t8ffzfff",
"ggzzfz887178wwe67777wwwwwwjgggkgggggii77e6w6BBHHGB++  ++**>>::888877t8558888lzhhzf2888t8558828ffffzz",
">;***;ww121127ww<2>****>**66rr66888t2888e6eeCCCCBG@@@@  8885558277t2$$;;*:::27ww887777878888t8872177",
">;;>;*772221w7ww2<**>>:*:*rw666e888888776ee2CCCCGB@X@@  2t7855887788$$;;:>*>77ww587887882t8828581277",
"**;;%%7<7788227w2w*:*:>**>ew66e6828827i7<r<2CCCGBK XOO  787788825555*;;;:*>*7w7755288888878577881172",
";>>*%%7w77882277ee>**>>*>*eerr6e82t78717rr2<CCCCKK++OO  7777888t5555*;:;:*:*7w7755t2882t88887288127y",
"*:***;77t887777726>*>*>>;*<26778777777e6w777LLCLGK  OO++rr27w<ww7777::>*$$;:t82755887878777782882t28",
":*:*:;778882777w6e**>:>*;;226w8t77777w66ww77LLLCGL  OO  rrw7wewr7777:*::$$*:887755882t8887778t78qq78",
"++@@@@X ++@@ +++      OOX OOXX@@@@    @@X X   +     #@++  ++ #oo @+++@  X @XXXX@      @@XXXX@@XXoo##",
"++@@@@  ++@@X#++    ++OOO O XX @+++   XXX     +     #@++++++++oo@@++++++XX@XXX###     @@XXXX@@@Xoo##",
"++++@#@@##   ooo@@@@@#++@@@@####  ##  ++  XX++  ooXXXX## #  oo## +@@   ###@@  @@####  oo    oooo#+++",
"++++++@@##    +#@@@@##++@@@@oo##  ++++++  XX++####XX  ## #  oo## +##  ####@@  @@####  ##  ##  oo#+@@",
"+++@++XX  ##++    ++  ## ###ooo O+++++OO+X  ##  ####  o #   ########  XX #+@++@@  @@##  ++++    ####",
"++@@++ X  ##++    ++  ## ###  o O+++++OO+X  ##  ####  o # ######X### XXX #+@++@@  #@##  ++++    ####"
};
