/* XPM */
static char *borders1705325383[] = {
/* columns rows colors chars-per-pixel */
"50 50 56 1 ",
"  c #202032",
". c #212032",
"X c #202132",
"o c #212132",
"O c #202033",
"+ c #212033",
"@ c #202133",
"# c #212133",
"$ c #513462",
"% c #523462",
"& c #503568",
"* c #533568",
"= c #503768",
"- c #513768",
"; c #533768",
": c #5C3A6A",
"> c #5C3B6A",
", c #5D3B6A",
"< c #5E3B6A",
"1 c #5E3B6B",
"2 c #5E3D70",
"3 c #5F3D70",
"4 c #5E3C71",
"5 c #5F3C71",
"6 c #5E3D71",
"7 c #5F3D71",
"8 c #603C70",
"9 c #613C70",
"0 c #603C71",
"q c #613D71",
"w c #6A4074",
"e c #6A4174",
"r c #6B4274",
"t c #6A4374",
"y c #6C4174",
"u c #6D4274",
"i c #6C447C",
"p c #6D447C",
"a c #6C457C",
"s c #6D447D",
"d c #6D457D",
"f c #6F457C",
"g c #78467C",
"h c #79467C",
"j c #78477C",
"k c #7A477D",
"l c #7A487C",
"z c #7E4A84",
"x c #7F4A84",
"c c #7F4B84",
"v c #7E4A85",
"b c #7E4B85",
"n c #7F4B85",
"m c #7E4C84",
"M c #7F4C84",
"N c #7F4D85",
/* pixels */
"  # #  #+++#OO#+OOOO      O     +OOOOO     @      ",
"    #  ## + OO# OOOOOO    O+   ## OO O    @o    @ ",
"  #     +   O     OO    # #####   ++      o@  OO@ ",
" # NnNNNnnNzzMMcNzmMnnmzmNNNnNNmMzMcMMMzNMNNMMz+@ ",
"+# nncccmNnknncNMMccNcznczckmnmmcczckkcklMccccz+##",
"+ #nccccmmnnznncMzccmhnznhccnmzncnnNcccclMnnccz+ @",
"+  &&%885>nzzznchckcNnznzzccpprdpfddpMccdpppccc+##",
"  #&&%5855jznMmmcchccccnznczpppspdddpccMdpppckc+# ",
" ##*&%0888NncNcMzzccnczchMzniiaipfdppMNMpprpkmm# #",
" # *==0011ddpchhMzhMzzncznzniasipptfpppfppppued   ",
"# #*==5510ddpcmmkczhzzzzMnnnrpprffppfpfppfppddd # ",
"   *==5501sddnNmzchcczzcnnzzpppppfppfpppppdppdaO #",
"  #e18aaedpppfppznzchzhMzjmMppptpdtpppappfpfznz   ",
"###858aaddpdffppcczhzjMzzMMMppfppdppttdfppffnnn ##",
"# #855aaddspfpppMznnzzMzMzMMppfppttffdptpdppnnNO##",
"  #81>e>08pppMMMzjzzMzzMnzMMdfpppfpdfpppptppnnNO##",
"OOO551e588ssdnNNMzzMMzzMjmzMiddpdtdeddftrpppmmmO  ",
"  O>555110dddmmNzzzzzzMzznzzaarrdeddfpfdpdpfmmb#@@",
"  @1565q81ddd51qzzzMnzzjnzMM51>>55008pfptfpf558#@ ",
"@  566qqe8ddd5qqzMzMzMzzzzzn88880000>dpppfpf51e @ ",
" @ 88qq1>5ddfq1qzMzMzzMjMhnn555>1q7q5dtdtftt818 @@",
"@@ %&;4q>8==-858zznjzzzzzznn15e5q7=&-881<855555   ",
"   ;&%1800=&&888zzhmMMMnMcmm55>>8q---555u156855 @ ",
"@ @---8800&&-188MzMMzzznccmm555588---8555555515 o ",
" @   #++OOOOOO    # OO#       # OOOOOO#OOOOOOOOOoo",
" @++ # +O+OO O  ### #OO +# O  ##OOOO    OOOOOOOO o",
"NNNcccNNcnccMmmnnnhznmzznOOOmmmNnzccmnczzMjnmmnnNM",
"NNNnccMnccNcMMllccMznnnnnOOOmNmNnccNNNcnMMmmzjnnNM",
"zMmmcMzMzNccMzccczMlnchcN#  mmnnMmmcNNmmmmmmMMjmNh",
"dduppdpdppdpphccpdpNcnkzk  +--=appNcMmdiaaddMzmMMM",
"rrdpppppfpdddzMcdddMccnNn + &=$sipcNccpptpdinzzNMn",
"pdpppprpppdddMzMddpzccnNk OO&$$dprMcNhptpprpMMzhcN",
"pppppfppfftdpfafppfpfrMhz ##=%=q74ddppfadpffaaafaf",
"prprppfptfafppafdprpfpzhM +#===700dsppffpppdfaaapf",
"fppptdatpaaappfappfptpMcm OO===555ffppiipffafpffpf",
"pfppdtaaaaaaffdardfhNMzMN OO5>5idddfdtipfpatataaip",
"rppppffafpptffffddfcMznmn+OO5q>ippaaffdpappifafapt",
"tfptaffpffpppfffrdpcjmnnz+O+18ratpfattaiapatafpapp",
"ppppatippppppdtpssanjznzc ##156215aaazaiaattaafaip",
"ffffffappttpdappsddmmmnnc ##852215aaaaaapdaafafarp",
"afaaaizappaaaiaadddmmmjnN   5>>526aatddttpaaaiiadd",
"faa564611r66qzaaddd888nnN   ===5255681pfir22r55atd",
"aaa5q155>556qaaieda>w5mmn   ===>5256e1ddi5>25e5add",
"afa5555555111siidae5>5mmN  O===e255555ddi122661aaa",
"===51155>&&=;8q7155555MMn # 55565>====585>r26666>1",
"=-%588>50&==&857555e8>cmN # 58512r====58565661>w1e",
"=--5q<050&===>5e555851Mzn## e18855==%=66>655566655",
"#   OO++++OOOO O## #  O++##   ##    O@@OOO@@@OOO# ",
"## # #####+### # #+OO    ##    #   ### #O   ## ## ",
"##  # #  # #OO  ##++  #    ### #  # ####O#   #  # "
};
