/* XPM */
static char *cube1705916475[] = {
/* columns rows colors chars-per-pixel */
"50 50 46 1 ",
"  c #1C1E26",
". c #1D1E26",
"X c #1C1F26",
"o c #1D1F26",
"O c #1C1E27",
"+ c #1D1E27",
"@ c #1C1F27",
"# c #1D1F27",
"$ c #2C2A36",
"% c #2C2B36",
"& c #2D2B36",
"* c #2C2A37",
"= c #2D2A37",
"- c #2C2B37",
"; c #2D2B37",
": c #4F3A52",
"> c #4E3B52",
", c #4E3A53",
"< c #4F3A53",
"1 c #4E3B53",
"2 c #4F3B53",
"3 c #2E4852",
"4 c #2F4852",
"5 c #2E4952",
"6 c #2F4853",
"7 c #2F4953",
"8 c #446266",
"9 c #456266",
"0 c #446366",
"q c #456366",
"w c #446267",
"e c #456267",
"r c #607472",
"t c #617472",
"y c #607572",
"u c #617572",
"i c #617473",
"p c #607573",
"a c #617573",
"s c #728482",
"d c #738482",
"f c #728582",
"g c #728483",
"h c #738483",
"j c #728583",
"k c #738583",
/* pixels */
"$$$$$;$$&&%%%%%-%%%%;&%;%%%%%%%%;%%%;;*;;---$*$**$",
"*$;$;$;;&&;%$%----**;;%%%%--;;-%%;%;%;*-----$*$$*$",
"$;$;;$;;;&;;;%%---**;;;;%;--;*--%%&&%-%---*;***$$$",
"$*;$;%;;&;;;;%%--%;*;;;;%;;;-*--&&&&--------%*%%**",
"*$$$>>>>raaaarrapprraaraaarapraryyyyaaaaap2>>>$*;$",
"*$$$>>>>aaarrarrrprrrrrarrrapraaaayaaaaapp22>>%%;$",
"$***>,,>aarararrrrraraaarraraarrrayyayaarr>2>>%%$;",
"$*$$>>>,aaaararrrrrraaarrrarraaarrryyyrarr,2>>%%;$",
"*$$;fddf.##@rrrrruaauarrraaaaruurrrrro##@@3377%%$$",
";$$$kfff.##@rtrraaaaurrrararaarrrrrrro#o@@7747%%$*",
";;$*ffdk@@@@tttyaarauarraararrrurryyaoooXX3337;%$$",
"$;**ffdkX@@@tttyuaraarrrraaarruutyyyaoooXX3733;;*;",
"$$$$kkddffdg@@@@#.##@@.X.#@XooooXXXXo733444473$;$$",
"$;;$kkdkddfd@@@@####..@@.XXXooooXoXXo373444737$$;$",
";;;$kkddffdd@@@@XXoo@.@@.@@@Xo##@Xoo@337737737$$$;",
"$$$$kkdddfdf@@.@Xooo.X@.@.XXXo##@@@oo373374477$$$;",
"$;;$fffgddhdXX@.Xyttuurrrauuurrrr##X@756556644%$$;",
"$;$$fgffdhddXXXXXyrruurruauuuraar#@@o346655444$%;;",
"$$*$fhffddddX.@X#rrrruuuurauruuar#@X@355566444&&;&",
"$$%%ddffddffX@@.#rrrruuurraaruuur@.@X355655447&&&&",
"$;$$ffgfggff..@.#raayyuurraurraay.o@#546557457;;&%",
"$$;$gfffggff@.@X#raauurruuurrraay@Xo.446555577;=%%",
"$$$$ggdfgfffXXXX#ayauyyrauuarauur###.565554555==$&",
"$;$$dddfffffXXXX#arauyttruraaarrr##..565445466==$=",
";$$$kkfkggkf##XXoaaarruraraaaauuy#oXX355454565$$$$",
"$;;;kkddggfg@@XXorrauraarruuauruyXXXo344554545$$$$",
"$$$$ddddfgdd@XXXorarraaraarruaaur#@@o354445445;$=$",
"$$$;fddddfff@@@Xoraaurrrrruuurrrp@@@X354545665$$$$",
"%%;%ddggdddf####orrrurrrruuuurrrr###o777457666=$$$",
"%%%%ffggdddd####oraruurrruaaurrrr###o447556566=;$$",
"%%;%kfgkfdkfXXo#oarurriurauuaarrr####544555565$*$$",
"%%;;fkffddkfX@oooraariiuaauuaaaur..##545666465$$**",
"%$$$kfdgfgfd.##@XtitrtiiitttrrrriX.@#333355776==$$",
"$$**gdfgfffd.#@@XXXX@X@.@@@@XX.@XXXX.333554455;;$$",
"$$$*fffffkkkX@@@X@@@X@X@XXX.XX@@XXXX.446555565;;$$",
"$**$fffdfgkfX@X@@@@@X@X.X@.@@@@@X@.X.446555545;;;$",
"$*$;kkdfdddd@..@.@@.X@@@XXO@@@..X.@@@633445644$$;;",
";;;$ddff@..@0000w9098www0899999000000.@@o#4544;;$$",
"$$$$dfff@.@@ee0099888899999ww0909990w+.@oo4465;$$;",
"$;$$kkff@@@@00e09998889099w99w9w90w09@..oo4465$$$;",
"$$$$ddgg@@..ww00e009ww000000w99900000@####7333$$$$",
"$$*$dkkg@@..ww000009w90800w0999000e00@@##o7756$$$$",
"$$$$>>,,0000ww090000ww8we0w0ww0000ee00eeqe>>>2**$$",
"$*$*>>,>00009999e00eww880eww99e0we0000wwqq>>>2$$$$",
"*$**>,,>00qe0w00w00e00000909ee0eww00qqe0ee>2>,$*$$",
"$*;$>>,>w0qe0w00ww0eee0ee0w9ee00ww00qeqqe0>2>,**$;",
";;;;***---**;$$$%*%;$$**$$==*;*$**$*****$$;;;*$*;;",
";;;;%%*%%%$$$$$$*%%;$$**$$==*$$$$$*$$**$$$$$;$*$;$",
";;;;;%%%****$*;;%%%$$$$*$$$$$$$$**$$*;$;$$$$;;$$$$",
"$$;;%%%%$$*$;;;;%%%%$$$*$**$$$$$*$*$*;$$;$$$;;;$$$"
};
