/* XPM */
static char * ennemy_xpm[] = {
"50 50 51 1",
" 	c #192025",
".	c #192024",
"+	c #1C1A22",
"@	c #000000",
"#	c #7F57A7",
"$	c #182125",
"%	c #7F57A6",
"&	c #7E57A7",
"*	c #302534",
"=	c #332534",
"-	c #332635",
";	c #7F56A7",
">	c #192124",
",	c #302434",
"'	c #7E56A7",
")	c #7D55A4",
"!	c #4D2870",
"~	c #4C2870",
"{	c #4D2971",
"]	c #FEFEFF",
"^	c #F9A3A9",
"/	c #FEE4E7",
"(	c #F99198",
"_	c #FAA3AA",
":	c #FDCBCF",
"<	c #FEE3E6",
"[	c #FDCBCE",
"}	c #FBB7BA",
"|	c #FBCBCF",
"1	c #1C0204",
"2	c #FDCDD0",
"3	c #5777A6",
"4	c #5676A6",
"5	c #FCB7BC",
"6	c #5776A7",
"7	c #5676A7",
"8	c #FCCCD0",
"9	c #010001",
"0	c #FEE4E5",
"a	c #5677A7",
"b	c #FCCBCE",
"c	c #010101",
"d	c #350508",
"e	c #1D0204",
"f	c #F9A2A8",
"g	c #350408",
"h	c #FFE4E7",
"i	c #FBB6BA",
"j	c #4C2871",
"k	c #4C2970",
"l	c #7E57A6",
"   . ++++++  ++++@@@@#@+      $$.    ++++++.  ++++",
"    +++++++++@@@@%&##@*++.          ++++++++++++==",
"    ++==-=-+@@#;#@@@@  =++.   +@@@@@@@@*--=++++= +",
"+++++-$> +>@@&#&@++ .   -++  @@#;#%#;##@. .=-+++++",
"+++++++++.@###@@@+++    .+++@%;###@@@@@++.  ++++++",
",**+++++++@%#@#@*=+++  . +++@#'@##@+++++++ +++*===",
"$+++++**++@#@#;@. -+++++++=@'@@@#@++++-=++++==  $$",
" +++**$>*+@#@#&@@@@@@@@@@@+@)@#@@+++==  =++=     $",
"+++*     -@#@#)!~##';#)###@##@#@+++-    +-++..    ",
"++=  +    @####~!#####))#'@#@#@ ++*       *++++ + ",
"*+*     $@;###%#%##)'''#))@#@#@@@+*..      +++++  ",
"*++    @@#)#))#####)')##''@%@%@{%@+.       +==+++ ",
"=+++  @###'')'%@@@@@##')#'###)~#%)@++ +    +  -*++",
"=+*+  @##)##@]^/(]_]:<@###)##)##''#@+++   .+   *++",
"++.+ @##;##]]_]/[]]^]}//#)'###)#)'##@     +++   =+",
"++$+@%##;]]]][][/]]]]//:|@##')))))##@+    ++$    +",
"+* @###'@]]/]/]@@1@]]2]//]####'')'#))@+++++.$    +",
"+  @#)##]][]]3343333@]5]}]@%)##''#)##@+++++     ++",
"+. @)##@]]/@3364444443@]:/]@)###''#)#@-+$+    .+++",
"++@))'%[//]4776647434338]}<]##)'#'#')#@++   +++++=",
"=+@%#)@]]@333@@9344444340]/]@#))#)#'#';@++++++++-.",
"*+@###@/]@77@@@@@3744a47b/[/@#)'#######@++++*=-+++",
" *@###]]/34@cc@@@c337474@///<#)##)##)##@+==->$=+++",
" .@###[]]33@@@cc@@@34477d/2^]###)'#))##@+   $+$*==",
">.@###][]33@@@@@c@@44477e:/]]%#))')'#)#@++ .    $+",
" +@###]]/33@c@c@c9@44444e]f/]%#))#)'#)#@-+++   . +",
"  @;#)@/]@6@c@@@@933444428:2@#'''#####@   ++++++++",
"++@#)#@[]@73cc@@@@33aa36]:]/@'#)##)###@   .+++++++",
"***@))']/]]33@@@a334344[/:]]~#)###'##@++ .+++++*++",
"   @#)#@//]@3663364333@]]/]@~#'''''##@++++++++*.-+",
"    @###//]]<3344344@]]}]]@~)##);)####@++++. +  +$",
"   +@@##@}]]]]]@g@1h/[]]]]~;')));))#@#@$     +   $",
"   @#@@##]]]:]0]]]][]:]}]@{%))''''#)@#@++++   ++++",
"   @##@##%#]]]]i][]0]]]]!~#%)'##))#@@##@++++++++-=",
">>@###@@#)))@]]]]]]]]]@~;))#)))###@ @##@=**++++=++",
"++@##@@@@##)#{~@@@@@~~~#;))#''##)@++@##@$$ **+++++",
"++@#@++++@###''~~!jk#'')'');#;%@@+++c##@+  .++++++",
"**@#@+++++@@#))#));'###)#))##@~@**-@##&@++ +++-==-",
"$>@#@+*-++++@#')#)#'########@!~@  +@@@#@++++**$$$ ",
" @#;@=+ -++* @@@@@'#)##&@@!~~###@+++@*@ -++* .    ",
"+@##@  +$*+++$$  @~~~~~~~~)#%l'##++*  $.$*++ >    ",
"+@##@   +$-++++ $@%%%&''####%%')#@-.      -++++.  ",
"*@##@      +++++ @'#%))#))%#'#####@    +   +++++  ",
"*@#%c+     +=*+++@#&#)####)##''#;##@       +**+++$",
"-@%@@     .+>+*-++@&)###;)#'#)##');#@@@@@@@@@ *=++",
"*@@+       +$>$*+++@####;)#'#)'###''#@@###;)#@$*++",
"++$+.   + ++  $+*+++@@@###)#####';#####'##')##@ =+",
"++$+++ .  ++     ++- . @@@@@@')%')))#)##)))#'#;@>+",
"+*  +++++++ $   $+*$   ++.+++@@@@@#####)@@@@@ @@ +",
"+   **+++++  .  ++*   .+++++++ =+ @@@@@@@++>  + ++"};
