/* XPM */
static char *pixil_frame_4[] = {
/* columns rows colors chars-per-pixel */
"50 50 28 1 ",
"  c #000001",
". c #010101",
"X c #000002",
"o c #3E382C",
"O c #3E392D",
"+ c #3E382E",
"@ c #3E382F",
"# c #3E392F",
"$ c #3F3B2E",
"% c #3E3B2F",
"& c #3F3B2F",
"* c #443E30",
"= c #453E30",
"- c #443F30",
"; c #453F30",
": c #443E31",
"> c #453E31",
", c #443F31",
"< c #2C3E57",
"1 c #2A3F58",
"2 c #2B3F59",
"3 c #2A4058",
"4 c #2A4158",
"5 c #2B4158",
"6 c #2B4159",
"7 c #2C4359",
"8 c #805C22",
"9 c #808222",
/* pixels */
";;-++;-;#@;:@@@o---=;;  51  ;;+$:::--o@@O++--+-+++",
";;-$-+++;@;@:;oo-@--;   15   ;+;::@o-@*OO++OO+--;;",
":;;+++++:@@;:-@-=*--;   51 X ;++>>o@-++o++*+*O--;;",
":++:+;;+@:::@*@o*==-; 555556 ;;;---:-;+*--+++@@@##",
":+$+;;:;;;:;##;;***@* 556666 ;;;>*=>@;:;+O-@++@@@;",
"$:;$+-::;@@@;#;;=*--+ 331665 ;;;--=>;@:;O-@@++;;;;",
"+,-++***;@@;;#;;----- 331655 :;;--;;;@;;O-*@++;;;;",
"$+--O+++@@;;#+;;@-==- 336155 ,;;-:::::;;--**--;;;;",
"$#+;;++#+;##++-;&:;; X665666X ;;*:--;@#@+>-*+;++@@",
";;;,;+$++#;;----;;:; 55651665X;;*@--+;;;@;-;---,;;",
"$:;;#;;&;+;;++--;;;; 55116165 ;;::oo;;+#;+-;--::::",
"#:;;#;;&:#;;+*--;;;; 11556511X::::+@;;##;+-;--:::;",
"#;:++;;+;:::,;**;;:: 51166515 ;;-;****++;;&::;:::;",
":;::;$#::+;;:;**;:;; 15665155X;;----OOOO;+$+#;:+@:",
"#&#;+;;#:;:,:;:*  X  55556567     --*-**++:++&&;;;",
"&&+++;;#:;,,,;::    X65516555     --*,*--+,++&&;;;",
":;;;;:;;;@;;;:>> 5  X55622625X  1 ;;++;;++;;::+&#;",
":;;;::@;;;+@:::> 5  5511665 26  5 ;;;&::;&+;;;+#&$",
"::;:#:::;#@@;;>>X6 5556525  555 1 ;;;;::&#;;;:;#++",
":::;#:::;+@@;;>; 5 5555 5X  255 5X:;:;::#+;;;::#++",
";*@>:;::;;::-=;;  55255X 87 6516  ;;:;::+;;;;;#;;$",
":::-:;::;+;;--;;; 555X 8 58 X515 ;;;:;::#;#;;##;;+",
">>--&;::;;;:--**; 755  8788  551 ;;;;:::;:;##;;:;;",
">>>-#:::;;::--**; 551 8855888X15 ;;;;:::;;;##;::,+",
">>====>@:;;;;;:*; 26  859955  75 ;;,::+&--o---:;:#",
">>=@=@@*:@:::;::;X51  559958  66 ;,:::;;-O-@@@;@+:",
"@-o*=-**;@;;@;::; 26 8885588X151 ;;;;:,,-;o---;;;+",
"o@o=**=-;#;;@-::; 665  8858  515 ;,;;:,,;;@*==;;;+",
"---*-=o=;;;;;;;;; 555X 58 8  565 ;;;:;;;;>>;;++;:,",
"-+@o--=@+:;:+;;;  2155 85  15665  ;;;;;;;;;>,++;;$",
"+-*@-***;:;;;;;: 1X555   5 5555X5 ##:@;;;+;@++;++$",
"+;==-***;::;;;;; 5 155  5555557 5 +#:@;;;+;@+,;++#",
"+O*-;;;::+;;:$;; 5X 75X5611155  5 ;;$-$$-;+++;:++;",
"O---;;;;:;::;:::X5  X56622775   5 ;;++--;+:::+:,;;",
"*----;-+;,,,::;;     65551121     ;;,+#+;;#:-+:--+",
"+----;-+;,,,::;;     55551725    X::,+#$;;;;-+;--+",
"=:-+-+++;@;;;&;;;;;;X26611511 ::;;:::+,,;+;+*+-,;;",
"=@+-+;:;#:;:;;::;::: 61525155 ::;;::+:++++;++-$++;",
"=oo:-;;;;@@:;;;;;:;; 56662551 ;:;;;:--*$++@;;--;-+",
"=@+;;;::;###;;;;;;;;X25556555 ;;;;::--+$-+@;;--:-O",
";++#;;;;#:;;;#;;:;:: 15151555 ,:;;@@;;--,,+++-+$O+",
",++@$++#;#@#;:;;;;::  156666 X,:>;;>;;---+;++-+-++",
"+-;;###;&#;;;;;;;#::; 511656 ;::>>;;@;++++$--+*:*+",
":;;;;;;#;;;:;+#@+;::; 555655 ;:::>;;;;@@O$$+--++++",
":-;;:;;&:::;;&##@;::; 661666 ;;:::;;;;#@o@@-+-@o@@",
"*-;;;;:++:+@;#;;;#:::X156666 ;;;;:>>#;#@;-oOOOOo@:",
"&;;;+++:++#@#&;:;;++: 516566 ;;;;:;;;;++++-Ooo-o@:",
"&#+:;;;$$$::;#::;;;;;  X65 X ;;;;;::;+;;$+@:;-@@;#",
"##@:;;;#@@:;#@;;:;::;   62X  ;;;;;:::@--+++-;:++$&",
";;;;:;;;####+;#+:;::::  55  ;;;;::>;@@++**+-;+#+#;"
};
