/* XPM */
static char *pixil_frame_8[] = {
/* columns rows colors chars-per-pixel */
"50 50 26 1 ",
"  c #010000",
". c #000001",
"X c #000101",
"o c #3F382C",
"O c #3E392C",
"+ c #3E382F",
"@ c #3E392F",
"# c #3E3A2F",
"$ c #3F3A2F",
"% c #3E3B2F",
"& c #443E30",
"* c #453E30",
"= c #443F30",
"- c #453F30",
"; c #443E31",
": c #443F31",
"> c #453F31",
", c #2A4058",
"< c #2B4058",
"1 c #2B4158",
"2 c #2A4059",
"3 c #2B4059",
"4 c #2B4159",
"5 c #805C22",
"6 c #808222",
"7 c white",
/* pixels */
"####*&&&**XX17777777777777777777777772XX=**o&&&**%",
"**oo*&&&*XXX,7777777777777777777777772XXX=##&&%%;%",
"**#o*#&**XXX,7777777777777777777777772XXX*##*&#&;#",
"#&#o**:&*X11,777777777777777777777777232X=*=****;;",
"##==*&##=X111777777777777777777777777332X=**-#-*#*",
"-#-:*:**#X22,777777777777777777777777332X***----*#",
"*&::*&**&X22,777777777777777777777777222X***::*-*#",
"o#:*#:::*X22,777777777777777777777777322X***:*::&*",
"##**&&*&XX222777777777777777777777777222XX&&&&&&&o",
"******&&X23317777777777777777777777773<<2X&&*#*&#&",
"&#****==X33327777777777777777777777771<22X&&&&++&*",
"+#***===X32327777777777777777777777771<<3X&&&&#;&&",
"&&&&&&::X22217777777777777777777777772433X-***%%&&",
"&&&&**:*X11117777777777777777777777772223X-*****##",
"&&&&XXXXX12117777777777777777777777772332XXXXX--&&",
"&&&&XXXXX131,7777777777777777777777772333XXXXX-*&&",
"*&**X<XXX22227777777777777777777777772<<2XXX3X=*+#",
"&***X<XX1111177777777777777777777777711121XX2X***#",
"*:::X<X11111,777777777777777777777777111111X3X**&*",
"*:**X<X1,111,777777777777777777777777,11111X3X****",
"&*--XX11<211,7777777777777777777777771111122XX***&",
"--**=X11<2XXX777777777777777777777777XXX1133X*****",
";:*&*X33XX515777777777777777777777777515XX,<X****&",
";:&&=X32XX15,777777777777777777777777,51XX<<X*****",
">****XXX5151677777777777777777777777761535XXX:::&&",
":>&&:XXX1551677777777777777777777777761553XXX***&&",
"&&&&*X23XX151777777777777777777777777151XX33X-:::*",
"%&&&-X33XX515777777777777777777777777515XX22X::&:*",
"****:X2231XXX777777777777777777777777XXX3333X**&*:",
"&***XX331211,7777777777777777777777771111111XX***:",
"&*==X1X3<2111777777777777777777777777111111X<X#&&#",
"**==X1X3<111,777777777777777777777777111111X<X##*#",
"*#&&X3XX33111777777777777777777777777,1233XX1X**#*",
"*&**X2XXX1333777777777777777777777777,<<1XXX2X**#+",
"*:*&XXXXX3112777777777777777777777777,<<2XXXXX***+",
"*:&&XXXXX3112777777777777777777777777,<<3XXXXX***+",
"*#::****X233277777777777777777777777721,2X&******%",
"-*****::X13317777777777777777777777772,12X&*****%*",
"**:::*::X23327777777777777777777777771<12X==::*:&&",
"**:::*::X13217777777777777777777777772212X==::::&&",
"*#&&&*&&X21127777777777777777777777772221X-::*##&*",
"***;*&&&XX331777777777777777777777777424XX***:**&&",
"&&;;*%&&=X332777777777777777777777777242X==*****&&",
"&%;%%*&&*X113777777777777777777777777244X=**&***&&",
"&%%%#**&*X,12777777777777777777777777233X>**&*&&*&",
"&&***+&&&X,,2777777777777777777777777233X***&::&#*",
"+&****#o&X112777777777777777777777777244X*>>::::**",
"+%::&*&**XXX27777777777777777777777773XXX>>>;*::*#",
"++**&&&&*XXX<7777777777777777777777772XXX******-&#",
"+*#+&&&&&&XX27777777777777777777777772XX*=******##"
};
