/* XPM */
static char *pixil_frame_5[] = {
/* columns rows colors chars-per-pixel */
"50 50 25 1 ",
"  c #000001",
". c #010101",
"X c #3E382C",
"o c #3E392D",
"O c #3E382E",
"+ c #3E382F",
"@ c #3E392F",
"# c #3F3B2E",
"$ c #3E3B2F",
"% c #3F3B2F",
"& c #443E30",
"* c #453E30",
"= c #443F30",
"- c #453F30",
"; c #443E31",
": c #453E31",
"> c #443F31",
", c #2A4058",
"< c #2B4058",
"1 c #2B4158",
"2 c #2B4059",
"3 c #2A4159",
"4 c #2B4159",
"5 c #805C22",
"6 c #808222",
/* pixels */
"--=OO-=-@+-;+++X===*--  1,  --@O;;;==oOOoOO==O=OOO",
"--=#=OOO-+-+;-XX=+==-   ,,   -O-;;++=o=Oo#OOOO==--",
";--OOOOO;++-;=+=*&==-   ,,   -O#;;++-OOOOO=O&o==--",
";OO;O--O+;;;+&+X&**=- 111114 ---------OO==OOOX++@@",
";O#O--;---;-@@--&&&+& 114444 ---;O--+-;-OO-O&+++@-",
"#;-#O=;;-+++-@--*&==O ,,,441 --------+;-&=OO++;---",
"O>=OO&&&-++--@--===== ,,,,11 ;-------+--o=OO+X&---",
"#O==oOOO++--@O--+=**= ,,,211 ;---;;;;;--====&===--",
"#@O--OO@O-@@OO=-@;--  ,,,,33  --&;==-+@OO-=&O-OO++",
"--->-O#OO@--====---- ,,,,,33, --;O==O---+-=-===;--",
"#;--@--%-O--OO==---- 12214,41 --;;XX--O@-O=-==;;;;",
"@;--@--%;@--O&==;--- ,2,4,44, ;;;;O+--@@-O=-==;;;-",
"@-;OO--O-;;;>-&&---; 1,,44,,, --=-&&&&OO--@-;-;;;-",
";-;;-#@;;O--;-&&-;-- 1434,,14 --====oooo-O%O@-;O+;",
"@%@-O--@;-;>;-;&     411,4114     ==&=&&OO;OO%%---",
"%%OOO--@;->>>-;;     414,4114     ==&>&=>O>OO%%---",
";--;---:-+---;;; 1   1,,,4441   , --@O--OO--;;O%@-",
";--;-@&:--@+;;;* 1  1144441111  1 ---@;;-%O---O@%#",
";;-;@-;;-&++--** 4 111111111111 , ----;;%@---;-@OO",
"::;-@;;;;+++---- 1 111111111111 , ----;;@@---;;@OO",
"-&+*;;;;;;;;**--  1144114444111,  --;-;;O-----@--#",
";;&-;;;;;+====--- 11,1      11,, ---;-;;@-@--@@--O",
"**--@-&&--=-==&&- 44  515545  ,4 ----;;;-;-@@--;--",
";**-@;;&--&-==&&- 11  151154  24 ----;;;---+@-;;>O",
";;*****+&**--*;;-   5151661515   --;;;O@==X===;-;@",
";;*+*++&+*&&;&;;-   1551661551   -;;;;--=o=+++-+O;",
"++X&==&&*+*=+-;;- 11  151151  44 ----;;>=-X===---O",
"+-+*====-+*=+-;;= 11  515515  44 ----;>>--+&**---O",
"-===*&&&****--**= 4141      4444 ---;----**--OO-;>",
"-O+O**&X&-&&&--*  44111111111111  ---------*>OO--#",
"O-*+*&&&-=*===== 1 441111111111 1 @@;+---+-+OO-OO#",
"+-=X*&&&*=*===== 1 141111111111 1 O@;+---@-+O>-OO@",
"OOo=-----O--;;;; 4  411111111,  1 ==O=#&&&OOO=-OO-",
"O===----;-;;-;;; 4   1444144,   4 ==#O===O;;;O;>--",
"&-=-=-=o->>>;---     41124,2,     -->O@O=-O;=O;==O",
"+-*====O-;>>;---     4112422,     -->O@#==--=O-==O",
"=*=O=OOO-O-;-%;;---- 24422222 &&--;;;O->-O-O&O=>--",
"=++&O--=O;-;-;-;-;;; 2,,<<,,1 ;;--;;O;OOOO-OO=#OO-",
"=X+&-;;=-#@;;----;-- 444<111, -;---;==&#OO+--==-=O",
"=&X&-;;;;@OO;------- 411<111, -;----==OO=O+--==;=o",
"=OO@----O;---@--;-;; 1,,,,,,1 >>--++---->>OOO=O#oO",
"=OO+#O@%-#OO--;---;;  ,11441  >;----;>--=O-OO=O=OO",
"O=--@@@-%%-------@;;- 1,4,41 -;;;---O-OOOO#==O&;&O",
"--;----@-;;;-O@+O-;;- 11,141 -;;;;----OOo##O==OOOO",
";=--;--#-;;;-%@%+-;;- 344444 --;;;----@OX++=O=+X++",
";=-->-;OO-OO-@---+;;- ,,4444 --;-;;;O-OO-=XooooX+;",
"@---OOO>OO++@--;--@O; 444444 ----;--==OOOO=oXX=X+;",
"%@O;---###;;+@;;;----   44   -----;;&O;;&O+;-=++-@",
"@@+----@++;-@+--;-;;-   44   -----;;;+--OOO-;;OO#%",
"----;---+@@@O-@@;-;;;;  11  ----;;;-+++&;OO--O@@@-"
};
