/* XPM */
static char *pixil_frame_3[] = {
/* columns rows colors chars-per-pixel */
"50 50 25 1 ",
"  c #000001",
". c #010101",
"X c #3E382C",
"o c #3E392D",
"O c #3E382E",
"+ c #3E382F",
"@ c #3F3B2E",
"# c #3E3A2F",
"$ c #3E3B2F",
"% c #3F3B2F",
"& c #443E30",
"* c #453E30",
"= c #443F30",
"- c #453F30",
"; c #443E31",
": c #453E31",
"> c #443F31",
", c #2A4058",
"< c #2B4058",
"1 c #2B4158",
"2 c #2B4059",
"3 c #2A4159",
"4 c #2B4159",
"5 c #805C22",
"6 c #808222",
/* pixels */
"--=OO-=-#+-;+++X=**&--  1,  --#O;;;==XOOoOO==O=OOO",
"--=@=OOO-+-+;=XX=+==-   ,,   -O-;;++=O=Oo&OoO@==--",
";--OOOOO;++;*=+=*&==-   ,,   -OO-;++-OOOOO&O&O==;-",
";OO;O--O+;;;+*+X&*==- 111114 ------;--OO&=OOOOOO##",
";O@O--;---;-##--&&&+& 114444 ---;O--+-&-Oo=+OO++#-",
"@;-@O=;;-+++-#--*&==O ,,,444 --------+&-o=++OO;---",
"O>=OO&&&-++--+--*==== ,,,,11 >----;--+--o=&+OO----",
"@O==oOOO++--#O--+=**= ,,,211 ----;;;;;--==&&==----",
"@#O--OO#O;##OO=-#;--  ,,,,33  --&;==-+++O-=&O-OO++",
"---;-O@OO#--====---- ,,,,,33, --;O==O---+-=-===>--",
"@;--O-&&-O--OO==---- 12214,41 --;;XX--O#-O=-==;;&&",
"#;--O==O;+--O&==;--- ,2,4,44, ;;;;O+--##-O=-==;;;-",
"#-&++&=O-;;;>-&&---; 1,,44,,, --=-&&&&OO--#-;-;;;-",
";-;;=OO&;O--;-&&-;-- 1434,,14 --====oooo-O$OO-;O+;",
"#O#;O==+;=-;;-;;     411,4114     ==&=&&OO-OO#&---",
"#&O+O==&;=-;>-;;     414,4114     ==&>&;>O;OO#O---",
";--;==**=+*;-;;; 1   1,,,4222   , -;#O--OO--;;+#O;",
";--;;+&*==++;;;; 1  4,44  ,4,4  1 ---#;;-#O---+#O&",
";;-&&&;;=&++--;; 4 11111  44144 , -----;##---;-+OO",
"*;&&+&;;*++&--;- 1 11111  44144 1 ;---;;##---;-+@O",
";&+*;;;**&&&**--  1111  54  ,114  -;;-;;+-----#-=@",
";;&*;;;;&+====--- 1111  45  1111 ---;-;;+-+--#+-=O",
";;*=+=;;===;==**- 44, 515545 ,,, ----;;;---##-;;-O",
"*;;=&;;;*=;;==&*- 44, 154454 ,,, ----;;----++-;;-O",
";*****;+&;;--;;;- 441 516615 111 --;;;O$==X===;->#",
";**X;++*&+;;;;;;- 141 516615 ,11 ---;;--=o=+++-+;;",
"&&X&&**&-+--+=-;- 141 154451 1,, ----;;>=-X===--;O",
"++X&&&&*-+--+=-;- 111 515515 111 --*-;>>--+**=---O",
"===&**X&--------- 14,,  45  1114 ===-**=-;;--OO-;;",
"=O+X*=&+O;-;O---  34,1  54  1144  ===*;*---;-OO-;@",
"&&&+=&&&-;----;; 1 41144  ,,114 < O+-&===+-&O-=OOO",
"X&**=&&&-;------ 1 11444  ,,114 < ++&+===+&+OO=OO@",
"+XO===---O--;$-- 4  4411  1,11  1 --@=@O>;OO;&&OO-",
"X&===-----;;-;;- 4   14441341   1 --OO--;;;;;o=&--",
"+-=-===@--;>;;--     4112432,     -;;O#$;-+;=O>;=O",
"+---===O--;>;;--     41122221     ;;-O#O--O-=O-==O",
"---@-OOO-+---#------ 2442<11, ;;--;;;O---O-O@O->--",
"-OO-O;-=#;-;--;;-;;; 2,,<<,,1 ;;--;;O;OOOO-@@-OOO-",
"-OO--;;=;++;-----;-- 444<<11, ----;---@$OOO--==-=O",
"-+O->;;;&&##;------- 411<<11, -;--;;--@$>OO--==>=o",
"=O+#----+;---+--;-;; 1,,,,,,1 >>*&+&==&;>;OOO=O@oO",
"=OO+OOO#-#++--;---;;  ,11441  >;*&&;==&;>O-OO=O=OO",
"O=--###-#+-------O;;- 1,4,41 -;;**;;==OOOO@==O&;&O",
"-------#-;-;-+#+O-;;- 11,141 -;;*;---=OOo@@O==OOOO",
"--;-;--$;;;;-##&+-;;- 344444 --;&;=;;-OOO+XXO=+X++",
"---;--;OO;OO-O;;-+;;- ,,4444 --;=;;;O;OO=&+Xoooo+;",
"#---OOO>OoOO#O;;--+#; 444444 -----=*;-;O@O=&XX=X+;",
"#+O;---@@@;;-O;;;----   44   ----*;;;O;-@O+===++-+",
"#&+;---O++;-OO-;;-;;-   14   -----;;;X**&++&&;OO@@",
";;;-;---++OOO-##;-;;;;  11  ----;;;-&+++=OX&=OOO#-"
};
