/* XPM */
static char *pixil_frame_9[] = {
/* columns rows colors chars-per-pixel */
"50 50 20 1 ",
"  c #010100",
". c #010001",
"X c #010101",
"o c #3F382E",
"O c #3E382F",
"+ c #3E3A2E",
"@ c #443E30",
"# c #443F30",
"$ c #453F30",
"% c #443E31",
"& c #453F31",
"* c #2B4058",
"= c #2A4158",
"- c #2B4158",
"; c #2A4059",
": c #2B4059",
"> c #2B4159",
", c #805C22",
"< c #808222",
"1 c white",
/* pixels */
"%%$$##  *11111111111111111111111111111111>  %%@+%#",
"%+##%   *11111111111111111111111111111111*   %++#%",
"%+$#%   *11111111111111111111111111111111>   %+%##",
"%%%$% ::*11111111111111111111111111111111>>> #####",
"%$++% ::*11111111111111111111111111111111>>> %%%@@",
"%%%$+ >>*11111111111111111111111111111111;** @%%@%",
"%$%$+ >>*11111111111111111111111111111111;** %%%@@",
"#$%%% ;>*11111111111111111111111111111111=>> %%%@@",
"+#%%  >*=11111111111111111111111111111111;=;  ##%%",
"##%% >>>=11111111111111111111111111111111;>>> ##%+",
"%#%# >**=11111111111111111111111111111111*;;> %%##",
"%### ***=11111111111111111111111111111111*>>> ##@#",
"$$##.->;=11111111111111111111111111111111===> %##@",
"$%$$ -*>;11111111111111111111111111111111>;;> %%%@",
".... ;>*;11111111111111111111111111111111;;;> ....",
".... >>**11111111111111111111111111111111;;;>.. ..",
" >   =>**11111111111111111111111111111111*>>*   : ",
" >  >=***11111111111111111111111111111111*****  > ",
" > >****=11111111111111111111111111111111-****> > ",
" > =**>>=11111111111111111111111111111111==***> > ",
" .>>;>>>=11111111111111111111111111111111*>>**>>  ",
"% >>;>   11111111111111111111111111111111   **** %",
"% >>  ,*,11111111111111111111111111111111,*,  >> %",
"% =*  *,>11111111111111111111111111111111>,*  >> %",
"%   ,>,><11111111111111111111111111111111<>,>,   %",
"%   >,,><11111111111111111111111111111111<>,,>   %",
"% >*  *,>11111111111111111111111111111111;,>  => %",
"@ >*  ,*,11111111111111111111111111111111,>,  ** %",
"# **>;   11111111111111111111111111111111   **** %",
"  =>>>>>*11111111111111111111111111111111=;;*>==  ",
" > >*****11111111111111111111111111111111*;*>>> > ",
" > ==****11111111111111111111111111111111***>>> > ",
" >  >****11111111111111111111111111111111>***>  : ",
" >.. >*>*11111111111111111111111111111111*>>*   :.",
".... >***11111111111111111111111111111111=;*>.  ..",
".... >*>>11111111111111111111111111111111=**>.....",
"%#%% >;:>11111111111111111111111111111111*>>> %%%$",
"%### >;;;11111111111111111111111111111111*;;; %%%%",
"#%## >>>*11111111111111111111111111111111;=*> @@$$",
"#%##.>>>=11111111111111111111111111111111;=*> @@$$",
"#### >**=11111111111111111111111111111111;;;* %%%$",
"###%  >>=11111111111111111111111111111111*>>  #%$$",
"%+%%% **=11111111111111111111111111111111>** ###$$",
"+%%%% **;11111111111111111111111111111111*** #@@%%",
"+@@@% >*;11111111111111111111111111111111>;; %%%%%",
"%#@@+ >*;11111111111111111111111111111111>;> %%%%$",
"@@@O% >>*11111111111111111111111111111111>>> ####%",
"@@@@%   ;11111111111111111111111111111111>   #%%#%",
"@@%%%...>11111111111111111111111111111111>   %###%",
"@@%@%@..>11111111111111111111111111111111*  %%%%%#"
};
