/* XPM */
static char *pixil_frame_2[] = {
/* columns rows colors chars-per-pixel */
"50 50 37 1 ",
"  c #000001",
". c #010101",
"X c #3E382C",
"o c #3E392D",
"O c #3E382E",
"+ c #3E382F",
"@ c #3F3B2E",
"# c #3E3A2F",
"$ c #3E3B2F",
"% c #3F3B2F",
"& c #443E30",
"* c #453E30",
"= c #443F30",
"- c #453F30",
"; c #443E31",
": c #453E31",
"> c #443F31",
", c #2A4058",
"< c #2B4058",
"1 c #2B4158",
"2 c #2B4059",
"3 c #2A4159",
"4 c #2B4159",
"5 c #8A96A3",
"6 c #8B97A3",
"7 c #8B96A4",
"8 c #8A97A4",
"9 c #8B97A4",
"0 c #C2DFC4",
"q c #C3E3C6",
"w c #C7E5CA",
"e c #EDF7EE",
"r c #EEF7EE",
"t c #EFF7EF",
"y c #EFF7F0",
"u c #F0F8F0",
"i c white",
/* pixels */
"--=OO-=-#+-;+++X=**&--  1,  --#O;;;==XOOoOO==O=OOO",
"--=@=OOO-+-+;=XX=+==-   ,,   -O-;;++=O=Oo&OoO@==--",
";--OOOOO;++;*=+=*&==-   ,,   -OO-;++-OOOOO&O&O==;-",
";OO;O--O+;;;+*+X&*==- 111114 ------;--OO&=OOOOOO##",
";O@O--;---;-##--&&&+& 114444 ---;O--+-&-Oo=+OO++#-",
"@;-@O=;;-+++-#--*&==O ,,,444 --------+&-o=++OO;---",
"O>=OO&&&-++--+--*==== ,,,,11 >----;--+--o=&+OO----",
"@O==oOOO++--#O--+=**= ,,,211 ----;;;;;--==&&==----",
"@#O--OO#O;##OO=-#;--  ,,,,33  --&;==-+++O-=&O=OO++",
"---;-O@OO#--====---- ,,,,,33, --;O==O---+-=-===>--",
"@;--O-&&-O--OO==---- 12214,41 --;;XX--O#-O--==;;&&",
"#;--O==O;+--O&==;--- ,2,4,44, ;;;;O+--##-O-===;;;-",
"#-&++&=O-;;;>-&&---; 1,,44,,, --=-&&&&oO--#-;-;;;-",
";-;;=OO&;O--;-&&-;-- 1434,,14 --====oooo-O$OO-;O+;",
"#O#;O==+;=-;;-;;     411,4114     ==&&&&OO-OO#&---",
"#&O+O==&;=-;>-;;     414,4114     ==&>&;>O;OO#O---",
";--;==**=+*;-;;; 1   1,777711   , -;#O--OO--;;+##-",
";--;;+&*==++;;;; 1  1117ii71,,  1 ---#;;-#O---+##O",
";;-&&&;;=&++--;; 4  ,,,6ii7111  , -----;##---;-+#+",
"*;&&+&;;*++&--;- 4  ,666ii7771  1 ;---;;##---;-+O+",
";&+*;;;**&&&**--  ,,46iiwwii7111  -;;-;;+-----#--&",
";;&*;;;;&+====--- 1196iiwqii99,, ---;-;;+-+--#+--O",
";;*=+=;;===;==&*- 416iwwteqqi7,, ----;;;---##-;;&+",
"*;;=&;;;*=;;==&*- 446iwtyytqi7,, ----;;----++-;;=+",
";*****;+;-;--;;;- ,,5ityyytti6,, --;;;O$==X=*&===+",
";**X;++*-+;;;;;;- ,15ittyytti61, ---;;--=+=++&=+O=",
"&&X&&**&-+--+=-;- 117iqtyeu0i8,, ----;>>==X=&&---&",
"++X&&&&*-+;-+=-;- 1,8iqqeeq0i71, ----;>>=;X&&&---O",
"===&**X&--------- 1178iiq0ii88,, ==*-*==*----OO=;;",
"=O+X*=&+O;-;O---  3418ii00ii8,11  =*=*;;**-->OO=-O",
"&&&+=&&&-;------ 4  1899ii7671  , ++-&==&+-+O>-OOO",
"X&**=&&&-;----;- 4  ,,17ii7111  , ++&+===&-+OO-OOO",
"+XO=-----O--;$-- 4  4447ii7111  1 --O=@O->OO&&&O+-",
"X&==----;-;;-;;- 4   117767,1   1 --@O==;;;;;o=&--",
"+-=-=-=o->>>;;--     411,111,     -->O@@;-+;=O>;-#",
"+---===O->>>;;--     411,1,,1     ;;>OOO--O-=O-=-$",
"---@-OOO-+---$------ 244,,442 ;;--;;;O>;-O-O@O->--",
"-OO-O>-=#;-;--;--;;; 2,,22,,1 ;;--;;O;OOOO-O@-OOO-",
"-OO--;;=;++;-----;-- 444,,44, -----;==&@O@O--==--O",
"-+O->;;;;#++-------- 441,,44, ----;;==O@>OO--==>-O",
"=O+#----#----&;-;-;; 1,,,,,,1 >>**+&==&&>;OOO=O@@O",
"=OO+OOO#-#++;;&---;;  ,11441  >;;***-&&->O-OO=O=@O",
"O=--##+-#+-----;-O;;- 1,4,41 -;;;;;;+=O=OO@==O&;=O",
"-------#---;-OO+O-;;- 11,141 -;;;;--==++o@@O==OOOO",
"--;->--#&;&;-$#&+-;;- 344444 --;;;==--++O&ooO=+XOO",
"---;--;#O&O+-O;;-+;;- ,,4444 --;*;;;#-++==oooooo#-",
"#---OOO-oo++#@;;--#O; 444444 ----;**--OOOO=OXX=XO-",
"#+O;---@@O;;;O;;;----   44   -----;--O--OO+===++@O",
"#&+;---O++;-#O-;;-;;-   44   -----;;;X**OOO=--++OO",
";;;-;---++OOO-#O;-;;;;  11  ----;;;-&+++=XO=;&++O="
};
