/* XPM */
static char *pixil_frame_1[] = {
/* columns rows colors chars-per-pixel */
"50 50 34 1 ",
"  c #000001",
". c #010101",
"X c #3E382C",
"o c #3E392D",
"O c #3E382E",
"+ c #3E382F",
"@ c #3F3B2E",
"# c #3E3A2F",
"$ c #3E3B2F",
"% c #3F3B2F",
"& c #443E30",
"* c #453E30",
"= c #443F30",
"- c #453F30",
"; c #443E31",
": c #453E31",
"> c #443F31",
", c #2A4058",
"< c #2B4058",
"1 c #2B4158",
"2 c #2B4059",
"3 c #2A4159",
"4 c #2B4159",
"5 c #8BC290",
"6 c #8BC292",
"7 c #8ECB94",
"8 c #8FCB94",
"9 c #96CE9B",
"0 c #96CE9C",
"q c #DCEDDE",
"w c #DDF0DF",
"e c #DEF0DF",
"r c #E2F2E3",
"t c #E2F2E4",
/* pixels */
"--=OO-=-#+-;+++X=**&--  1,  --#O;;;==XOOoOO==O=OOO",
"--=@=OOO-+-+;=XX=+==-   ,,   -O-;;++=O=Oo&OoO@==--",
";--OOOOO;++;*=+=*&==-   ,,   -OO-;++-OOOOO&O&O==;-",
";OO;O--O+;;;+*+X&*==- 111114 ------;--OO&=OOOOOO##",
";O@O--;---;-##--&&&+& 114444 ---;O--+-&-Oo=+OO++#-",
"@;-@O=;;-+++-#--*&==O ,,,444 --------+&-o=++OO;---",
"O>=OO&&&-++--+--*==== ,,,,11 >----;--+--o=&+OO----",
"@O==oOOO++--#O--+=**= ,,,211 ----;;;;;--==&&==----",
"@#O--OO#O;##OO=-#;--  ,,,,33  --&;==-+++O-=&O-OO++",
"---;-O@OO#--====---- ,,,,,33, --;O==O---+-=-===>--",
"@;--O-&&-O--OO==---- 12214,41 --;;XX--O#-O=-==;;&&",
"#;--O==O;+--O&==;--- ,2,4,44, ;;;;O+--##-O=-==;;;-",
"#-&++&=O-;;;>-&&---; 1,,44,,, --=-&&&&OO--#-;-;;;-",
";-;;=OO&;O--;-&&-;-- 1434,,14 --====oooo-O$OO-;O+;",
"#O#;O==+;=-;;-;;     411,4114     ==&=&&OO-OO#&---",
"#&O+O==&;=-;>-;;     414,4114     ==&>&;>O;OO#O---",
";--;==**=+*;-;;; 1   ,,,,4441   , -;#O--OO--;;+#O;",
";--;;+&*==++;;;; 1  4444  14,4  1 ---#;;-#O---+#O&",
";;-&&&;;=&++--;; 4  ,,11  44,1  , -----;##---;-+OO",
"*;&&+&;;*++&--;- 4  ,,11  4441  1 ;---;;##---;-+@O",
";&+*;;;**&&&**--  ,,44  09  ,444  -;;-;;+-----#-=@",
";;&*;;;;&+====--- 11,,  98  44,, ---;-;;+-+--#+-=O",
";;*=+=;;===;==&*- 41, 99ee88 ,,, ----;;;---##-;;-O",
"*;;=&;;;*=;;==&*- 44, 9rrte8 ,,, ----;;----++-;;-O",
";*****;+;-;--;;;- 441 wtrtre 111 --;;;O$==X===;->#",
";**X*++*-+;;;;;;- 114 wtrrte 111 ---;;--=o=+++-+;;",
"&&X&=*&&-+--+=-;- 444 8wtrq5 ,1, ----;;>=-X===--;O",
"++X&=***-+;-+=-;- 441 88eq55 ,,, --*-;>>--+**=---O",
"*&===&X*--------; 14,,  85  1144 ===-**=-;;--OO-;;",
"&+&+==*XO;-;O---  34,1  55  ,144  ===*;*---;-OO-;@",
"X&;+==**-;------ 1  1144  ,,14  < O+-&===+-&O-=OOO",
"O&*+*==*-;----;- 4  1444  1114  < ++&+===+&+OO=OO@",
"OOO===---+--;#-- 4  4411  1,11  1 --@=@O>;OO;&&OO-",
"O====-----;;-;;- 4   14441341   1 --OO--;;;;;o=&--",
"&*=====o--;;;;--     4112432,     -;;O#$;-+;=O>;=O",
"+==-===+--;;;;--     41122221     ;;-O#O--O-=O-==O",
"=;=O=+++-+---#------ 2442<11, ;;--;;;O---O-O@O->--",
"=++=X=&-#;-;--;--;;; 2,,<<,,1 ;;--;;O;OOOO-@@-OOO-",
"=X+&=-;-;++;-----;-- 444<<11, ----;---@$OOO--==-=O",
"=&X&--;-;#++;------- 411<<11, -;--;;--@$>OO--==>=o",
"=O+#----#----+--;-;; 1,,,,,,1 >>*&+&==&;>;OOO=O@oO",
"=OO+OOO#-#++--;---;;  ,11441  >;*&&;==&;>O-OO=O=OO",
"O=--##+-&+-------#;;- 1,4,41 -;;**;;==OOOO@==O&;&O",
"-------#;;-;-+#+O-;;- 11,141 -;;*;---=OOo@@O==OOOO",
"--;-;--#;;;;-O##+-;;- 344444 --;&;=;;-OOO+XXO=+X++",
"---;--;#O;++-O---+;;- ,,4444 --;=;;;O;OO=&+Xoooo+;",
"#---OOO-Oo++##----#O; 444444 -----=*;-;O@O=&XX=X+;",
"#+O;---@@O;--#;;;----   44   ----*;;;O;-@O+===++-+",
"#&+;---O++;-OO-;;-;;-   14   -----;;;X**&++&&;OO@@",
";;;-;---++OOO-##;-;;;;  11  ----;;;-&+++=OX&=OOO#-"
};
