/* XPM */
static char *pixil_frame_7[] = {
/* columns rows colors chars-per-pixel */
"50 50 28 1 ",
"  c #010100",
". c #010001",
"X c #010101",
"o c #3F382C",
"O c #3E392C",
"+ c #3E3A2C",
"@ c #3E3B2C",
"# c #3E382E",
"$ c #3E392E",
"% c #3E382F",
"& c #3F382F",
"* c #3F3A2F",
"= c #3F3B2F",
"- c #443E30",
"; c #453E30",
": c #443F30",
"> c #453F30",
", c #443E31",
"< c #443F31",
"1 c #453F31",
"2 c #2B4058",
"3 c #2A4158",
"4 c #2B4158",
"5 c #2B4059",
"6 c #2B4159",
"7 c #805C22",
"8 c #808222",
"9 c white",
/* pixels */
"==--=&=O------..399999999999999994..<<==-----=&&=&",
",=&o--OO-=--:...399999999999999994...<O=--==-=OO=&",
",,&&---O,---:...399999999999999994...-=---O=-o&o&&",
"=,--&-&O-,,,<.3339999999999999999442.<--------&---",
"----&=--,-==<.2339999999999999999322.-,,-=::----=O",
",&&&-&------%.3229999999999999999222.,--,,--,---=-",
",&-&,=----,,%.3329999999999999999324.,---,,,,&--O-",
"&=,,==::-,<<<.2239999999999999999224.,--,---------",
"&-===&------..4429999999999999999444..<<------O&O-",
"&&----------.444499999999999999994224.-<-=<-&<----",
"-&--&&::<--<.422499999999999999992224.<<--&&--&&-&",
"------:--<<<.424499999999999999992224.<<--O=--==-=",
"--<<<<--<---.344499999999999999993343.<<-<==--==--",
"-=::<<--,---.322299999999999999993223.<,-<--O=OO-=",
"---:<---.....442299999999999999993243.....<-----=&",
"----<---.....342299999999999999992243.....,<----OO",
"-&-<:,--.4...444299999999999999994422...4.<<-O--O-",
"--&&,<<,.4..42444999999999999999942244..4.:--,---=",
"--&&::,,.4.4424439999999999999999444232.3.<<,>--&&",
"-&-->:,,.4.2424439999999999999999444244.3.--,<--o&",
"---<<<,-..444334399999999999999994442222..---<-:&-",
"-=-<<<--:.3444...9999999999999999...2233.,---<,,#-",
"---<<<-<:.33..7479999999999999999747..44.<<,:,,---",
"-<<<<<-<<.33..4749999999999999999474..44.<,,:,,-<-",
"-------,<...74748999999999999999984747...<,,--%---",
"=-------<...47748999999999999999984774...<,,-----=",
"-o------<.44..4749999999999999999474..44.<,,--<<--",
"------,-<.43..7479999999999999999747..44.<----<<--",
",>>>----:.4334...9999999999999999...2424.<<<----<-",
"->-,&---..444444499999999999999992444224..<<------",
"->---,--.4.2224449999999999999999344434.3.<=-&-<--",
"--,,-,,,.4.2224449999999999999999442234.4.=O--<<<%",
",--->-,- 4..43342999999999999999932233..3.<<=-=&<<",
",,--,,,,.4...424399999999999999993223...3.<<==---=",
"-,--,>:-.....422299999999999999993223.....---&==-<",
"-,,,,>>-.....442299999999999999993223.....:--OO=--",
"--,,----,,,,.334299999999999999993222.--:----=--<&",
"=-,,----,,<<.333399999999999999993334.--<---&-=&OO",
"-===----<,<<.222299999999999999992324.<-<<----=&=O",
"-=&&----<,<<.222499999999999999992224.<<-<----=&=O",
"&-------,<--.333499999999999999996222 <<:<--------",
"--==----:,--..2449999999999999999222  <<--::-----&",
"=&------>---<.4449999999999999999422 ,<<-<-:%--o=O",
"-----=&&-,,,<.2229999999999999999422 ,,,:<-:--##&&",
"-----==-=<--<.4429999999999999999422 ,,,<----,-#&&",
"&-&=-=-<-&--=.4439999999999999999442 ,,<<-<-%,o&--",
"=O==%&--<<=&<.2239999999999999999444 ,-,,-----&&==",
"&&--%-<-<-<<<...399999999999999994.. ,-,,,---&--=&",
"&O--&=-----<-...399999999999999994...<<<--<,,---=&",
"&=O&O<O#<<----..399999999999999994..<<--<---&-=o-&"
};
