/* XPM */
static char *pixil_frame_0[] = {
/* columns rows colors chars-per-pixel */
"50 50 33 1 ",
"  c #000001",
". c #010101",
"X c #3E382C",
"o c #3E392D",
"O c #3E382E",
"+ c #3E382F",
"@ c #3F3B2E",
"# c #3E3A2F",
"$ c #3E3B2F",
"% c #3F3B2F",
"& c #443E30",
"* c #453E30",
"= c #443F30",
"- c #453F30",
"; c #443E31",
": c #453E31",
"> c #443F31",
", c #2A4058",
"< c #2B4058",
"1 c #2B4158",
"2 c #2B4059",
"3 c #2A4159",
"4 c #2B4159",
"5 c #3A9843",
"6 c #3B9843",
"7 c #399844",
"8 c #3A9845",
"9 c #40A648",
"0 c #40A749",
"q c #40A64A",
"w c #41A74B",
"e c #4CAA55",
"r c #4CAB56",
/* pixels */
"--=OO-=-#+-;+++X=**&--  1,  --#O;;;==X++oOO==O=OOO",
"--=@=OOO-+-+;=XX=+==-   ,,   -O-;;++=O&ooOOooO==--",
";--OOOOO;++;*=+=*&==-   ,,   -OO-;++-OOoOO&OOo==--",
";OO;O--O+;;;+*+X&*==- 111114 ------;=-O&==OO&+++#+",
";O@O--;---;-##--&&&+& 114444 ---;O--+-&-Oo=+OO+++-",
"@;-@O=;;-+++-#--*&==O ,,,444 --------+&-o=++OO----",
"O>=OO&&&-++--+--*==== ,,,,11 >----;--+--o=&+OO----",
"@O==oOOO++--#O--+=**= ,,,211 ----;;;;;--==&&====--",
"@#O--OO#O;##OO=-#;--  ,,,,33  --&;==-+++O-=&O-OO++",
"---;-O@OO#--====---- ,,,,,33, --;O==O---+-=-===>--",
"@;--O-&&-O--OO==---- 12214,41 --;;XX--O#-O=-==;;;-",
"#;--O==O;+--O&==;--- ,2,4,44, ;;;;O+--##-O=-==;;;-",
"#-&++&=O-;;;>-&&---; 1,,44,,, --=-&&&&OO--#-;-;;;-",
";-;;=OO&;O--;-&&-;-- 1434,,14 --====oooo-O$OO-;O+;",
"#O#;O==+;=-;;-;;     411,4114     ==&=&&OO-OO#&---",
"#&O+O==&;=-;>-;;     414,4114     ==&>&;>O;OO#O---",
";--;;;---+---;;; 1   4,,,4441   , -;#O--OO--;;+#+-",
";--;;+;---#+;;;; 1  4444  11,4  1 ---#;;-#O---+#OO",
";:-;O-;;-#++--;; 4  ,,11  44,1  , -----;##---;-+OO",
"::;-#-;;-+++--;- 4  ,111  4441  1 ;---;;##---;-+OO",
";&+*;;;;--;;--&&  ,,44  ee  ,444  -;;-;;+-----#-=O",
";;&*--;;-+------- 11,,  rw  44,, ---;-;;+-+--#+-=&",
":;;=#-;;---;--&&- 41, rrw9w9 ,,, ----;;;---##-;;=O",
":;;=#;;;--;;-;&&- 44, rr00ww ,,, ----;;----++-;;=O",
";:;;*&&X;;;--;&&- 221 w000w9 ,11 -->;;##==X=*&==-+",
";:;X;&X;;+;;;;&&- 231 0000ww 111 -;;;;--=+=++&=+;;",
"&&X&&&;;-+--&*&&- 431 000866 21, ----;>>=*X=&&--;O",
"XXX&&&&&-+;-+&&&- 411 ww0866 222 ----;>>=;X&&&---O",
"--;&;*X*--------- 111,  06  ,,,1 ---&---=----OO=;-",
"-O++**;X+;-;O---  3411  66. ,,11  ----&&**-;;OO=;O",
"+-&X*&;*-;------ 4  1144  ,,44  , #+;+---+-&O-=@OO",
"+;&&*&&&-------- 4  1141  ,,14  1 O#;+---+&XOO=OO@",
"+oO===;-;&--;O-- 4  4411  1,11  1 --@=@O>;OO;&&O&=",
"o====-==&*;;-;;; 4   14441341   1 --OO--;;;;;o=&==",
"&*====&+*&;;;;--     4112432,     -;;O#$;-+;=O>;=O",
"+*=-=&=X*&;;;;--     41122221     ;;-O#O--O-=O-==O",
"=;=O=+&X-+---O------ 2442<11, ;;--;;;O---O-O@O->-=",
"=++=o=;=#;-;-->--;;; 2,,<<,,1 ;;--;;O;OOOO-@@-OOO-",
"=XX&=-;=-++;-----;-- 444<<11, ----;---@$OOO--==-=O",
"=&+&=-;;-#+#-------- 411<<11, -;--;;--@$>OO--==>=o",
"=O+#----#;---+--;-;; 1,,,,,,1 >>;&X&==&;>;OOO=O@o+",
"=OO+OOO#-#++;;----;;  ,11441  >;;&&;==&;>O-OO=O=oX",
"O=--##+-#+-------#;;- 1,4,41 -;;**;;==OOOO@==O&;&+",
"-------#-----+#+O-;;- 11,141 -;;*;---=OOo@@O==OOoo",
"--;-;--#&;&;-&+#+-;;- 344444 --;;;=;;-OOO+XXO=+X++",
"---;--;#O;O+-#;--+;;- ,,4444 --;=;:;O;OO=&+Xoooo+;",
"#---OOO-oo+++#;;--#O; 444444 ----;**;-;O@O=&XX=X+&",
"#+O;---@@O;;-#;;;----   44   -----;-;O;-@O+===++&+",
"#&+;---O++;-OO-;;-;;-   14   -----;;;X;;+++==;+O&O",
";;;-;---++OOO-##;-;;;;  11  ----;;;-&XX&&++==O+++="
};
