/* XPM */
static char *pixil_frame_6[] = {
/* columns rows colors chars-per-pixel */
"50 50 29 1 ",
"  c #010100",
". c #010001",
"X c #3E382C",
"o c #3E382D",
"O c #3F3A2C",
"+ c #3E3B2C",
"@ c #3F3A2D",
"# c #3E3B2D",
"$ c #3E382E",
"% c #3F382E",
"& c #3E382F",
"* c #3E3B2F",
"= c #443E30",
"- c #453E30",
"; c #443F30",
": c #443E31",
"> c #443F31",
", c #453F31",
"< c #2A4058",
"1 c #2B4058",
"2 c #2A4158",
"3 c #2B4158",
"4 c #2A4059",
"5 c #2B4059",
"6 c #2A4159",
"7 c #2B4159",
"8 c #805C22",
"9 c #808222",
"0 c white",
/* pixels */
"@-==&&=-&@@@:::;=-  <000000006  :-&&>>:::@@&*:@::&",
"@@&&=&@@:-@&:@:->   <00000000<   -@@->@@>*@@&&@@&@",
"@&&&-&@@::@@:@:--  .6000000006   -&=:-@@>@@@&&@@&*",
"&--=&--=@:@=::::> 66<00000000666 --->>::--&&:-&&&X",
"=;>>----&*>>::@@>.65500000000555.>>>>&--@->>@@:&@=",
"=>>>-&&&-@>>--->&.56600000000655.>--->>>-&--@-@&oX",
"X=>>-&:&-&>:-:>>@ 66500000000556 ---->->-&--@:@@oo",
"@@&&&&-:&@>:@->>> 66<00000000655 ->>>----*>>:>::::",
"=&X@X=&X&@-=----  66<00000000<<<  ->>-:->&@&@>:&@:",
"=@@&&&==:=====-- <<<<00000000<366 -:-@::*>--@:::::",
"@>-&==;;&&====>> 6<<<000000005636 >--:@@->&&>@--:>",
"&--&==;>&=--=;>> 666<000000005536 >---@@->&@-@--::",
"&>:@::>>::;=;;>> 655<000000006<<6 ->==&=>-@@::@::-",
">*@::@>>:-;;==-- 655<000000005666 >>:===*@@@:@&@@>",
"=::&>>>>:;;;   . 565<000000005556     ==;:>>@@:@@&",
"@:-@>>>>:;;;   . 5<<5000000005556 .   ::;:;>@@:@@@",
"::==-&---:>: 6   6<<<000000006351   6 >>=@::@@:-::",
">@@>>-&&:>>: 6  5566<00000000<5511  6 --:@:::@@:--",
"@>::>=&&->-: 6 61151<000000001111<6 6 ---=:=&&>--:",
"@>:::@@@->>- 6 61111600000000111566 6 ->-=;;=&>-->",
"::---:::-->>  66<3665000000006<16355..--:->>@=>>>:",
":::-:=-->>--- 6633   00000000   6666.>>-:-::@-@::@",
"&>:-,->>--->- 66  86800000000838 .66.>---:::::-&&-",
"&>>>,>>--->>- 66  68600000000383  36.>---:::-:-@*-",
"--=@====---;=   818190000000096868  .>>>::&@::&->>",
"-&=>=X:=-=:>-   18819000000009<885 ..->>:::-:@-@@@",
":>>>=&==@:::: 6<  <8600000000181  55.>>>-:>>>:@-->",
":>>>====@::-> 6<  8<800000000818  55.->>-:>>>:&>>:",
"-@@:===-==-=- 666<   00000000   3633 ->>:>>>>>>--@",
"--:=X=--==>;. 536<33<00000000<555333. >-:>----->:@",
"---->>-->>:-.6 36333<0000000015<663.6 &@=@>>-&-&@@",
":-->>>-->>>- 3 <6333<00000000111663 6.@@-@>>-@-&&@",
"-:>:-=-:>@>> 3  65<1100000000<<355  6 -:@-&&>-*=@:",
"-->>>---:->> 3   656<00000000<336   6 --&@-:>*:::@",
">>>@>>>>:>>>.... 655600000000<116.    ;;-@&&==@::@",
">:-@>>>>:>>>.... 5<5300000000<116...  ;;-@&@==@::@",
"-=@@:X>>-=>>---- 6655000000006116 :>-:;;-*>>-@-&&@",
"@::=@:::->--->>> 6<65000000005<<6 :::-::@-@*@&>&@-",
":==;:&&&--->>>>> 6555000000005<16 -:->>;::*&@*&>:-",
"::=;=@&@:--->>-> 556<000000005<<6 ---:>>->&&@@@---",
">->>@:::-@->>::> 6666000000006<<6 ::-:&:--::::@@@-",
"*@@&:@@@=::-->>>  55600000000335  ::----:>-::@:@@-",
"&&&-@@;;-:---@>;- <<600000000656.::::->>@-*@&&@:>@",
">--&-->>-@@@@--=- 3<500000000555 :::::>>:-@@@&@@&-",
">--=-:>>>**&@-::- 6<<00000000<65 ->>>-->==&&&&@@@-",
"->:@X=@@>&>>:&::@ 66600000000655 >>>->--@=X=::@@@@",
"@&@:@&&&-=>>--@&: 56500000000666 -:>>>----&*&&:&&@",
"-::&&&==&&>::::::   <000000006   ->>--:::@>>*@&:>>",
"->>=&&::@@:::::::  .6000000006   :>>>----@->*@&>>:",
">-->@&@@@:@&::::::  6000000006  >->-----&@&*-&@->&"
};
