/* XPM */
static char *gem1705930245[] = {
/* columns rows colors chars-per-pixel */
"50 50 48 1 ",
"  c #011601",
". c #011B01",
"X c #012100",
"o c #1C1B22",
"O c #192025",
"+ c #27232D",
"@ c #312534",
"# c #255760",
"$ c #265A61",
"% c #2C5D63",
"& c #345D67",
"* c #3D6166",
"= c #268662",
"- c #268D61",
"; c #259162",
": c #2B9463",
"> c #279B61",
", c #389767",
"< c #339C64",
"1 c #3B9A66",
"2 c #3F9A68",
"3 c #459C68",
"4 c #45A269",
"5 c #4DA06B",
"6 c #54A46B",
"7 c #59A66B",
"8 c #55AC6B",
"9 c #5BAE6B",
"0 c #5EB66D",
"q c #62BA6D",
"w c #66C36D",
"e c #67CA6C",
"r c #69CB6C",
"t c #6AD06E",
"y c #6BE36E",
"u c #6CE86F",
"i c #6EF36E",
"p c #6EFC6E",
"a c #93A0B9",
"s c #B3BEBD",
"d c #B9D7BF",
"f c #BBE0BE",
"g c #BDE8BE",
"h c #BFFDBF",
"j c #EEBEFA",
"k c #F6E4FA",
"l c #F8F7FB",
"z c #F9FFF8",
/* pixels */
"OOOOOooooooOOOoooooooo....X..OOOOOOOOooooooOOOoooo",
"OOOOooooooOooooo@@@@@@..X....+OOOOOOoooooooooooo@@",
"OOoOoo@@@@@oooo@OOOOOO.......ooOOOOOoo@@@@@oooo@O+",
"ooooo@OOOoO@@ooooo....wwwtttt...ooooo@OOOOO@@ooooo",
"oooooooooOOOoooooo....wwwtttt   oooooooooOOOoooooo",
"@@@ooooooooooo@@@@....wwwtttt. .@@@ooooooo+ooo@@@@",
"Oooooo@@oooo@@OOOo....wwwtttt...oOoooo@@oooo@@OOOO",
"Oooo@@OO@oo@OOO ..trrrgggiiiiiii...o@@OO@oo@OOOOOO",
"ooo@OOOOO@oooOO.. trrtgggiiiiiii . @OOoOO@ooOOOOOO",
"oo@OOOOOOO@oooo. .rettgggiiiiiii  .+OOOOOO@ooooOOO",
"@o@OOOOOOOOo.. 00qffffpiipppphhhippXX.X+OOOoooooOO",
"@ooOOOOOOOOo...q0qffffiippppphhhppp.XXXOOOOo@@oooO",
"@oOoOOOOOOoo.. qqqffffiippppphhhppp X.XoOOOoOO@@oo",
"@o+oOOOOO...443dssyuyupppppppzzzghhyyyy...ooOOO@oo",
"ooOoOOOOo...444sssyuyuipippppzzzhhhyyyy. .ooOOOO@o",
"ooOoooOOO...454ssdyuuupppppppzzzhhhyyyy  .ooOOOOOo",
"o@OOooooo...444sssyyyyippppppzzzhhhyyyy   ooOOOOOo",
"oOOO@@ooo...aaa09qyyyyiiipppppppllldddd   ooOOOOoo",
"ooOOOO@oO...aaa000yyyypiipppppppllldddd   OOOOOooo",
"ooOOOOOoo..Xaaaq09yyyyiipppppippllldddd   OOooooo@",
"@oOOOOOoo...<<<868rwrruuuuiiiiuikkkjjjj   oooooo@O",
"@ooOOOOOo...<<4888rrwruuuiiuiiiikkkjjjj   oo@@@ooo",
"O@oooOooo ..<<<888rrrryuuiiiuiiukkkjjjj   @@OO@ooo",
"OO@oooooo...<><4449999wqwtttterrqqq8888   oOOoO@@@",
"OOO@ooo@o...<<<4449999wwwttttrrrqqq8888   OOOoOOOo",
"OOOo@@@O@...<<<4449999wrwttttrrrqqq8888  .ooOOOOo+",
"OOOoOOOOO...<<<4449999wqwtttterrqqq8888   oooooooo",
"oooooooOo. .::-,,,333366677777765551111.  Oooooooo",
"@@@@ooooO...::;,,,333355677777665552122   ooooo@oo",
"OOOO+oooo...=::2,,33336667777767555,1<2   oooo@O@o",
"OOOOo@@oo...=:=:;:&&&&***2222***<<<::::   oOOoOOoO",
"OOOoOOOOO...-:;::;&&&&***2222***,<<::>:   OOOoOOOO",
"OOOOOoooo..X-;-:::&&&&***1132***<,,>:::.  oOOOoooo",
"OOOOoooooX.X---;-;$$$$%%%%%%%::::>;>>>>.  oooooo@@",
"OOOOoo@@@XX.---;;;$$$$%%%%%%%:::;;;>>>>   @oooo@++",
"ooooo@OOO..X----;;$$$$%%%%%%%::::;>>>>>  .o@@ooooo",
"ooooooooo.X.---;;;$$$$%%%%%%%:;:>;;>>>>  .OOoooooo",
"@@+oooooooOoX.X--=;-;-##$;;-;;;;>>>....oooOooo@@@@",
"OOoooo@@oooo.X.--=;-;-$##-;;;-;;>>>....@oooo@@OOOO",
"Oooo@@oO@oo@X..-----:-###;;;;;;->>>....o@oo@OOOOOO",
"ooo@OOOOO@oooOOX..---=###---->>>...@OOOOO@ooOOOOOO",
"oo@OOOOOoO@ooooXX.----#$#---->>>. .OOOOOOO@ooooOOO",
"@o@OOOOOOOOoooo..X-==-$##;--->>>.. OOOOOOOOoooooOO",
"@ooOOOOOOOOo@@oooOXX.X=======XXX@OoOOOOOOOOo@@oooO",
"@oooOOOOOOOoOo@@ooXXXX=======XX.@oooOOOOOOOoOO@@oo",
"@o@oOOOOOOOoOOO@ooXX..=====-=..X@o@oOOOOoOOoOOO@oo",
"ooOoOOOOOOooOOOo@oXXXX-=====-XXXooOoOOOOoOooOOOO@o",
"ooOoooOOOOooOOOOOoo@OOXXXXXXXooOooOooOOOOOooOOOoOo",
"o@OOoooooooOOOOOOo@OOOXXXXXXXOO@o@oOooOooooOOOOOOo",
"oOOO@@oooooOOOOOoo@OOOXXXXXXXOO@oOOO@@oooooOOOOOoo"
};
