/* XPM */
static char * gemlast_xpm[] = {
"50 50 44 1",
" 	c #192025",
".	c #192024",
"+	c #1C1A22",
"@	c #000300",
"#	c #000500",
"$	c #182125",
"%	c #332534",
"&	c #332635",
"*	c #322434",
"=	c #302534",
"-	c #192124",
";	c #1D4020",
">	c #1F4520",
",	c #000200",
"'	c #302434",
")	c #1E431F",
"!	c #205220",
"~	c #1D421F",
"{	c #1A3B20",
"]	c #1C3C20",
"^	c #205520",
"/	c #11331E",
"(	c #11311E",
"_	c #1F4D20",
":	c #1F4C20",
"<	c #14331F",
"[	c #19381F",
"}	c #0A311C",
"|	c #17371F",
"1	c #16341F",
"2	c #06311B",
"3	c #072E1C",
"4	c #062C1B",
"5	c #0C2F1D",
"6	c #18351F",
"7	c #0D301D",
"8	c #062D1C",
"9	c #0F301E",
"0	c #06291C",
"a	c #0B1A1D",
"b	c #0E1B1D",
"c	c #06191B",
"d	c #081A1C",
"e	c #06181B",
"   . ++++++  +++++++++@@@@#@@ $$.    ++++++.  ++++",
"    ++++++++++++%&&*==@@#@@@@       ++++++++++++%%",
"    ++%%&%&++++%...   @@@@@@@ +$    ++%=&&%++++% +",
"+++++&$- +-=%+++++@@@@;;;>>>>@@@+++++%  . .%&+++++",
"+++++++++.  ++++++@@@@;;;>>>>,,,+++++++++.  ++++++",
"'==+++++++.+++%&=%@@@@;;;>>>>@,@%&%+++++++ +++=%%%",
"$+++++==++++== +. @@@@;;;>>>>@@@  ++++&%++++%%  $$",
" +++==$-=++=   ,@@>)))!!!!!!!!!!@@@+%%  %++%     $",
"+++=     &++   @@,>))>!!!!!!!!!!,@,&    +&++..    ",
"++%  +    =++++@,@)~>>!!!!!!!!!!,,@       =++++ + ",
"=+=     $  +@@,{{]!!!!!!!^!^^!!!!^^##@#    +++++  ",
"=++        +@@@]{]!!!!!!^^!!!!!!^^^@###    +%%+++ ",
"%+++       +@@,]]]!!!!!!^^^^^!!!!^^,#@#    +  &=++",
"%+=+   $ @@@//(!!!!_:_^^^^^^^!!!!!!::::@@@.+   =++",
"++.+   $+@@@///!!!:_:_!^!^^^^!!!!!!::::@,@+++   %+",
"++$+++   @@@/</!!!!___^^^^^^^!!!!!!::::,,@++$    +",
"+=  +++++@@@///!!!!:::!^^^^^^!!!!!!!!::,,,+.$    +",
"+   ==+++@@@!!!![]::::!!!^^^^^^^!!!!!!!,,,+     ++",
"+.  $$&+.@@@!!!!{{::::^!!^^^^^^^!!!!!!!,,,    .+++",
"++    .++@@#!!!]{[::::!!^^^^^!^!!!!!!!!,,,  +++++%",
"%+..   ++@@@}}}|1|);))____!!!!_!!!!!!!!,,,++++++&.",
"=++    ++@@@}}/|||));)___!!_!!!!!!!!!!!,,,++=%&+++",
" =+++ .++,@@}}}|||)))):__!!!_!!_!!!!!!!,,,%&-$%+++",
" .=++++++@@@}2}///[[[[;];>>>>~))]]]||||,,,  $+$=%%",
"-. =+++%+@@@}}}///[[[[;;;>>>>)))]]]||||,,, .    $+",
" + +===.=@@@}}}///[[[[;);>>>>)))]]]||||,,@++   . +",
"   + .   @@@}}}///[[[[;];>>>>~))]]]||||,,,++++++++",
"++++++. .@,@334555((((1116666661<<<7777@,,.+++++++",
"====++++.@@@338555((((<<16666611<<<9799,,,+++++=++",
"    =++++@@@033955((((1116666616<<<57}9,,,++++=.&+",
"    +==++@@@030383aaaabbb9999bbb}}}3333,,,+. +  +$",
"   +     @@@438338aaaabbb9999bbb5}}3323,,,   +   $",
"     ++++@@#484333aaaabbb77(9bbb}552333@,,+   ++++",
"    +++++#@#444848ccccddddddd3333282222@,,++++++&%",
"--  ++&=&##@444888ccccddddddd3338882222,,,=++++%++",
"+++++=  $@@#444488ccccddddddd3333822222,,@ ==+++++",
"+++++++++@#@444888ccccddddddd3832882222,,@ .++++++",
"===+++++++ +#@#4408484eec8848888222@@@@+++ +++&%%&",
"$-++++=&++++@#@4408484cee4888488222@@@@=++++==$$$ ",
" +++%%+ &++=#@@4444434eee8888884222@@@@ &++= .    ",
"+++%.  +$=+++$$#@@4440eee4444222@@@=  $.$=++ -    ",
"++=     +$&++++##@4444ece4444222@,@.      &++++.  ",
"=+=.       ++++@@#4004cee8444222@@,    +   +++++  ",
"=++  +     +%=+++ ##@#0000000###%++        +==+++$",
"&+++      .+-+=&++####0000000##@=+++       +- =%++",
"=+%+       +$-$=++##@@0000040@@#=+%+ $  +  +- $=++",
"++$+.   + ++  $+=+####4000004###++$+    +$++$   %+",
"++$+++ .  ++     ++& .#######++ ++ +++    ++$   -+",
"+=  +++++++ $   $+=$  #######..=+=  +++++++      +",
"+   ==+++++  .  ++=   #######+ %+   ==+++++-  + ++"};
