/* XPM */
static char *hud1705920864[] = {
/* columns rows colors chars-per-pixel */
"100 50 32 1 ",
"  c #07070E",
". c #08070E",
"X c #07080E",
"o c #08080E",
"O c #130C17",
"+ c #150D1A",
"@ c #190F1C",
"# c #1A101E",
"$ c #1C1120",
"% c #191826",
"& c #202033",
"* c #3D274A",
"= c #3E284E",
"- c #3C2850",
"; c #472D55",
": c #482E56",
"> c #4F3158",
", c #52345E",
"< c #5B355E",
"1 c #523562",
"2 c #5F3764",
"3 c #5F3964",
"4 c #513668",
"5 c #5D3A6A",
"6 c #5F3D71",
"7 c #603765",
"8 c #603964",
"9 c #6A4274",
"0 c #6D457C",
"q c #79477C",
"w c #E0AC68",
"e c #7F4B84",
/* pixels */
"&&&&&&&&&&&&&%%%#$$%%%%%%$%%#%%%%%%%%%%%%%%%%%%#%%%%%%%%%%%%%%%%$$$$%%%%%%%%$%%%%%%%%&&&&&&&&&&&&&&&",
"&&&&&&&&&&&%%%%%O.ooooooooooooooXXooXXXXoooooooooooooo....X oo X..oooooooooooooooo%$%%%&&&&&&&&&&&&&",
"&&&&&&&&%%%%%%XXO.O@ooooooooooooXoooooXXoooooooooooo.ooooo..o. XOOOOoooooooooooooooo%%%%#%&&&&&&&&&&",
"&&&eeee22237$#$####$$$#$$$$$$$$$###$#####$#$$#$oooooo###$$$$####$$$$$$$$##$$#$$$$$$$##88888eqeeee&&&",
"&&&eee2288###$$#$#$$$$$#$$$#$$##$#$####$####$##oooooX#$$$#$#$#$$$$$$$$$$$$$$$##$$$#####$8<<8eeeee&&&",
"&&&ee727<$$#$$$$$$$$$#$$$#$$######$####$###$$$$oooXo.#$$$$##$$$$$#$$$#$$$$##$$$$$$$#$$$$#8<89eeee&&&",
"&&&4=*;:@@$$$$$$#$$$$$$##$$$######@##$$$#####$#oXXoooOOO@@+@$#$$$$#$$$$$#$$$$$#####@###$##,,>,eee&&&",
"&&&4=*;+@@$$$$$$###$$$$#$#$##########$$########oXooo.+OO@O@@#$##$$$$#$$$$$##$#@@@@@#@##$#%#,,,qqe&&&",
"&&&==*++OO####$#$$#$$$$$#$$$#####@#@####+#+####oX.XXXOOO@O++$$$#$$$$$#$$$$#$##@@@######%###@>,<qe&&&",
"&&%==+@@O@#@####$$#$$#$$##$##O####@@######+#O##oXXXXo+OO+@+O@@##$#$###$$##$$##@##@@#+#+#@@###,>>0&&&",
"&%%-OO++@@###$$$#$$#$$#$$#$##O##@@@@#++#@%#####oX.XXo+O+++++@@##$$$$##$$$#$$##@@@@@@+#+###O##+,,1&&&",
"&%%+OO++@O+##$$$$####$$$$#########@######+#####o..XX +O++++@###$$$###$$$#$$#$$@##@#############,1&&&",
"%%%+++#@@@#+####$$#$####$#$$#@#@@@@@@#@##+##%##o...Xo+++##@#@#@#####$$$$##$#$###@@##+#+#####+##89%&&",
"%%X+++#@@######+#$$####$$$##@##@#@#@@@@###+####o....o+++##@@@@#@####$#$$$$##$$@#@@#####+#O######<%&&",
"%%X+++@#@@+####+$$$##$$#$$#$@@@@@@@@#@@@#+#####o.....O@@@@@@@#@@##$$$$$$$#$$$$##@##O++###O##+###8%%&",
"%XX@++@+++#####w$w$$w$www$$$@@@@@#@@#@@@+##+###oX.Xoo@OO@O+@#@##$$#$$$$$$$$###@###@########O###%#%%&",
"%X +++++++@@@%#w#w#$w$www$#$##@@#+#@##@@@@@@$##.X. X.++++@@+$$+$$$#$$$#$#$$#$$###+#+#++##@@@###$#%%%",
"XXo+++++@+@@###w#w#$w$www$$$##@@#@###@@@@@#@###..X ..+++@+++$++%##$$$$$#$$$$$#############@@@#$##X%%",
"Xoo+++@+++@@#++wwwwwww$#$#$$@@OO+O@+O#@@@#@@@@O.o.. o+++++++#+#+O@$$#$$$##$$##O@O++++++#@@@##@@O@X%%",
"ooo++@+++@@##++wwwwwwww##$$$@O@@++++O###@#@#@OO o..XX++++++@###+@@$$$###$$#$##@O@+++++++@@@@@#+@@X%%",
"..X++++++@##@@Owwwwwwww###$$+++++++++#@@O@@O@O@ o....+@+++++@@#+O@#$#$$$##$$$$O@++O#+++%@@@@#@+O@X%%",
"..XO+O+++@OOOO@wwwwwwww$$#$$+++++@+O++++@@O@O@@  ...oOOO++++OOO@@O##$#$$##$$$#O@+++++O++@O@@O+O@@XX%",
".XX+OO@+++O+O+@wwwwwwww$$$$$++++++OOO+@O@@@O@OOoX.oXoOOO$O++OOO@O@$$#$$$#$$$$$#@+++@OOO@@+OO+@@+OoX%",
". oOO+++++OOO+@wwwwwww#$#$$$++++++OOO+@++@O@@O@o. . .OO+O$O$OO++@@$$$$$#$$$$$$@@++++OOO++@O@@O+@@XX%",
" oXoooooXoXXooowwwwwwwooooooooooXXoooXXooooooooo..ooooooXX XXXX.....oo.oooooooooXXooooXoooooXXooXXX%",
"X..ooooooXooooowwwwwwoooooooooo.XXooXooooooooooo..ooooooXXX XX...o...ooooo.oooooXXooooXoooooXXooXXX%",
"#$$$$$$#$$##$$$wwwwww#$$#..o$$$#%#$$$$$##$##$$$#$##$$$$$$$$$#$$$$$#$#$$$###ooo###$#$$$$$$$$$###$###8",
"$#$$$$$#$##$$$$wwwwww$$$#o.o$#$#$#$$$$##$#$$##$$#$$#$###$$$$#$$$$#$#$$#$$$#Xoo####$##$$##$$###$#$##3",
"$$#$#$##$#####$wwwwww$$$#o..$####$$$$$$$##$#$$#$$#$$####$$##$$$$$$$$$#$$#$$.XX##$####$$#####$$%#$$$<",
"##+@###@###+##$wwwwwww#$#o.oOOO####$#$######$$$$$###+#######@#@@$##@##$$#$#ooXO+@###$$$$#+####$#$$$8",
"+#+##@#######$$wwwwwwww$$o..@OO####$####O###$$$$$##+#+@#@#+##@#$$$@@##$$$#$.XoO+O@###$$$##@@######88",
"######+###@####wwwwwwww$#oo.OOO###$$####@###$#$#####@#@#@######$#####$#$$$#oXX@OO@##$$$$#+##@##%$#88",
"+######+##O####wwwwwwww#$XXX+OO+O##+######+###+######+######O##+@@@#@@#@###oooO+O++@@@@@###++##+##,,",
"#+#++#+#+###@@@#wwwwww$#$XXXOOO+++###+#++#####+O+##+#@#++#######@@##@@#####oXXOOO++@@##@#+%++##+##,,",
",#@###+#######@#@##@##$$$XXX++O+++###@#@####+##%#####@@@%@#+#+#+@#@##@@#$#$oXXO+O+++@@@@##+######,,0",
">#@%#+#+#++#@#@#@#@###$#$ XX+O+@###+@@#@+#+##+##++###@#@+#########+#####$$$ooo++@##@##@@#####+#++,,0",
">,#####++##+%@@@####$$$#$X..+++$##+#@@@@####@@#####+##%@+#+#++#%@+#+#$$$$$$ooo@+O####+%@++++###+1,09",
">,#+###%####+@@@+@##@$#$$X.X+++$###+@@@#+#++@%+@%#+##++#######++@######$$$#ooo+++#+@##@@%###++##,,00",
"0,,##+####+#@@@@#@#$$$$$$o.X+++++++##+####@@@@@@++#####++##+####+##@###$$$$ooo@+++++#@@@#######,,000",
"0,,##+##+#+#$@@@#@#$$$$$$...+@++++###@##+###@@$@+#+##+##%###+##+@#####$#$$$ooo+@++++#@@@+####+#,,090",
"00,,#%+#$@$@@$$@#@##$$##$oo.@+++++##@@#@@@##@@$@########O#####+%#@####$$#$#ooo++++#+%#+#@@@##+1,0000",
"000::++++++++@@@###+++$#$ooo+O++++++++#@#++++++@+#+##+O++O++++@O##+##+++$$$oXX+O++++++++##@++;:66090",
"000:::+++++++@$@+@#+++#$#o..O+O++++++@@@#++++@+$###+#+O@+#O+++O###+#@++@$$#oooO++++++++++##+;;:66000",
"0006:::++++++@@@##++#+$$# .oO+O+#+++++@@@++++++@#+#+#+@+++#++#O#@@##@+++$##X..O+O+++++++###;;;666000",
"44468;::+OO++@+++#++++$$#o..#+++++OOO++%+++++@+++++++O+++@@OO+O++++@@O+@#$$oXX++++++OO+O++;;;6666656",
"441666;:;OOO++++++++++$$#o..++++++OOO+++@+++++++++++OO++O+++OO+++++++@++$##ooX+++++#OO+O+;:;66666656",
"4416665::=OO++++++++++$##.o.+++++#O+OO+++@+@@++@++OOO@+@@++OOO+++++O@+@@$$#.oo+++#+++OOO;;;666666666",
"&&&&&&&&%%%% .oooo.oo..oo.oooo.oXXXXXXXXXXXXXXXXXXXXXXXXXXXXXXXX......o..oo.XoooXXXXXX%%%%&&&&&&&&&&",
"&&&&&&&&&&&%%%XXXXoo.ooooo.oo.o.XoXooooXooXoXoooXXXXXXXXXXXXooXoXXXoXooooooooXoXXXXX%%%&&&&&&&&&&&&&",
"&&&&&&&&&&&&&%%%%%%%%%%%%%%%%%%%%%%%%%%%%%%%%%%%%%%%%%%%%%%%%%%%%%%%%%%%%%%%%%%%%%%%%&&&&&&&&&&&&&&&"
};
