/* XPM */
static char *hudd1705921837[] = {
/* columns rows colors chars-per-pixel */
"100 50 75 1 ",
"  c #07070E",
". c #08070E",
"X c #07080E",
"o c #08080E",
"O c #011601",
"+ c #011B01",
"@ c #130C17",
"# c #150D1A",
"$ c #190F1C",
"% c #1A101E",
"& c #012100",
"* c #1C1120",
"= c #191926",
"- c #202033",
"; c #3D274A",
": c #3E284E",
"> c #3C2850",
", c #472D55",
"< c #482E56",
"1 c #4F3158",
"2 c #52345E",
"3 c #5B355E",
"4 c #523562",
"5 c #5F3764",
"6 c #5F3964",
"7 c #513668",
"8 c #5D3A6A",
"9 c #5F3D71",
"0 c #603765",
"q c #603965",
"w c #603D71",
"e c #255760",
"r c #265A61",
"t c #2C5D63",
"y c #345D67",
"u c #3D6267",
"i c #6A4274",
"p c #6D457C",
"a c #79477C",
"s c #268762",
"d c #258C61",
"f c #259161",
"g c #2B9463",
"h c #269B61",
"j c #399767",
"k c #329C64",
"l c #3B9B67",
"z c #459C69",
"x c #44A269",
"c c #4DA06B",
"v c #55A56B",
"b c #59A76B",
"n c #55AC6B",
"m c #5BAF6B",
"M c #5FB76D",
"N c #62B96C",
"B c #66C26D",
"V c #66CA6C",
"C c #69CB6C",
"Z c #6AD16E",
"A c #6BE26E",
"S c #6CE96F",
"D c #6EF36F",
"F c #6EFC6F",
"G c #7F4B84",
"H c #93A0B9",
"J c #B3BEBD",
"K c #B9D7BF",
"L c #BBE0BF",
"P c #BDE9BE",
"I c #BFFDBF",
"U c #EFBEFA",
"Y c #F7E4FB",
"T c #F8F6FB",
"R c #F9FFF9",
/* pixels */
"-------------===**=*==%=================*==%====================****======*=%========---------------",
"-----------=====o.@oooooooooooooXoooooXX..o@ooXoXXoooo....o.o.XX..@ooooooooooooooo=====-------------",
"--------======XoooooooooooooooooXoooooXXo..ooooooooo..Xoooooo.XX@.@@oooooooooooooooo======----------",
"---GGGG65660%*%%********%*%%**%*%%%%%%%%**%*%%%oXXoX.%%****%**$%*%%*****%***%***%%**%%qq650GGGGGa---",
"---GGG060q%%*****%***%*****%%*%%****%%**%%%*%%%oXo. .%*%*%*%************%****%***%%%*%%*q33qGGGGG---",
"---GG0000%%**%****%**%**%%****%%%***%**%%*%%%%*ooo...%****%%%%********%%**%%**%%***%*****q3q6GGGG---",
"---7:;,,$@******%%%%******%*%%%%%%@%%***%$%%%**oXXo.o@@@$$$$*%**%****%****%*%*%%%%%%$$%*%*2222GGG---",
"---7>;,#$$%******%%*****%***%%%%%%%$%***%*%%%%%oXooo.#@@$@@$%*******%******%*%%%%%$%$%%*%%%222GaG---",
"-=-,>:##@@%*******%%*%******$$$$%$%$%%%%%$#%$%%o o  X#@@@$##*****%**%*****%*%%$$$%%%%%%%%%%%123GG---",
"--=>>###@$%$%%%%**%%%*****%%%$$%$$$$%%%%$%%%$$%oXXo X@#@$@##$$$%%%%******%**%%$%%$$%#%#%%%%%%211p---",
"-==>#@##$$$%%%******%*****%*$$%$$%$$%%%%$$$$$%%o .X X#@@$@##$$$***%**%******%*%%$$$$@#$$%%%#%$222---",
"-==@@@##$@$%$*%***+++*****%%$$%%$$$%@%%$$%%%%%%ooo  X@#@@$$#%%%%**%%******%**%%%%$%$=%$%$%%%%%%22---",
"===$##%%#$%$%$%%O+CCZ+O%*%**%$%#$%$%$%$%%$#%=%*oo.  X###$$$%%$*$%%%%*******%%*%%%$$%#%%$%$%$$$=qi=--",
"==X$##%$$%%$%%%$OOBZZ+O**%%%%%%%$$$$%@%$=$%%%%*o.oooX$##%%%%$$%$%%%%*%******%%%%$$%$%%$#%$%%%%%%3=--",
"==X###%%%$%%$$+OCZPFDDDO**%*$%%$$$$%%%$$@%%#%%%@.o.oo%$$$$*%%$$$%%**********%%$%%%%$@%%$%%%%$$%%6==-",
"=XX$######%%$$++ZCPDDDF+****$%%$%%%$%$$$%$#%%%%OX. oo@@@$@@@%%%**********%**%%$%$%%$%%%%&*%%%%%%%==-",
"=oX####$##%%%+MNKLDFFIIF++**$$$$$$%$$%$$@%%%**%.. X  ######$*$$*%%%*%*%***%***%$%$=#%$%$$$$%$%**%===",
".XX#######%++xJJSSFFFRRIAA++%$$$$$$$%$%$%$$%**%.oXX. ######$*$$*%%*%**%***%***%%@%#%$%%$$$$%%$%$%X==",
"..o#######$++xJJSSFFFRRIAAOO$#####$##$$%%%$$@@@....XX#$#$###*$$#$$%**%***%***%@@#$####@$$$#%%%$#$X==",
".o.###$###$++HNMZSDFFFFTKKOO$####$###$$$$%%%$$$oo...X#######$%$#$$***%%******%$$######@=$$%%%$$@$X==",
".  #######*++HMMAADFFFFTKK+O######$##%$%$$$$$@$.o....#$##*##%*##@$%**%**%%%%%*$@##@%####$$$$$$@##X==",
".  @#@#####++knnCCSDDDSYUUOO#######@@###@$@$@$@.XX...@@@####@@##@$*%*%**%*%***@$$@##@###$####%$##  =",
".  ##@$###@++kxxmmBZZVVNnnOO#######@@%@%$$@$@$@....Xo@@#####@@##$@**%********%%$###$@@@$@$#$#@@%#.X=",
".  @######@++kxxmmBZZCCNnnOO###$###@#@%@@@$@$@@..X.X.@@@####@###$$********%***%$$#####@#$###%@$@#.X=",
" oXoooooXoX+OgjjzzvbbvbcllOOXoXoXXoXXXXooooooooo...oX..oXX o.o.o....oo.ooo.Xoooo..ooooooooooXXoo..X=",
"X. oooooXXo++gjjzzvbvvvcllOOooooXXXoXooooooooooo....XoooXXo.o..o.....o..o..XXooo.Xoo..o.ooooXXoo...=",
"%*****%%%*%+&fggyyyzzuukggOO*%**%***%*****%%%****%******=%*%%*****%%%***%%*.o.*%%*%********=$%***%%6",
"*****%*%**%&+ddfretttgghhhO+*%%**%%***%%*%**%%**%%%%*%%%*%**%%***%%*******%Xoo%*%%*%*%*%*%*%%%*%**%0",
"**%**%%%%*%&&dfferrytggfhhOO*%***%%**%**%%*%***%*%**%%%%%%%%**%*%*%*%%**%*%.oo%%**%%***%%%%%*%=%%%%3",
"%%$$%%$%%%$$%+ddgdeffffh++XX@@@$%%****%%$$%%******%%$%%%%%%%%%$%**%%%%****%.oo#@@%%$****%$%%%%%%**%q",
"#%$$%$$%%%%%%*&+ssrddhh+%Xoo#@@$%%***%%%$$%%****%%%$#%%%$%$%%$%**%%%%%*****.oo@@@%$$****%%$$%%%%**06",
"%$$%%%$%%%$$%%+&sdrddhh+%ooX@@@*%%*%*%%$$%%%*%*%%%%%%%$%$%%%%%%**%$%%**%%**ooo@@@%%%****$$$%%%%=**qq",
"%%%%%%%#%%#%$%%%&&sss+&%*XXX#@@$@$%$@%%%#%#%%%#%%%%%%#%=$$%%%$$$$$#%%#%#%%%o..@@@#$#$$$%%%#%#%%#$$41",
"##%#%%#%#%%$%$$$&&sss&+%*XXX@@@#@#$%%%$$%%%%%%%%#%##%$%#$$@%%%$%%$%%#%%%=%%oXX@#####$$%%%#%%%#%%$=14",
"4%%%%%#%%#$%%#%%%%&&&%%**XXX@#@#%@%%%$$$%#%%#=#%%%%%#%#%$$%%%%$=$$$%%%%%**%oXX@@@$#$$$%#%$$$%%%%%14p",
"2%#%%#%#%%%$$%#%$%%%***** XX####%%%%$$$%%%##%%##%%%%%%%%$$=@##%@%%#$%%%%**%ooo%@$$$$$%$%$%$=%#%#%41G",
"12#%%%%#%%%#%%$%$$$%***** Xo###*#%%#$%$$%%%%=#%$%#%=#%#%%%%%%#%%$%%%%%*****ooo@%#%$%$%$$$$##%$$$24pi",
"14%%%%%=#%%%$$$%$%%%$*%%* ..###*%%%%$$%$#%#%$$$$%%#%%#%%%%##%%%%%%#%%%%***%ooo%@#%$%=#$#$$%%%$%$21pp",
"p22%%#%%%%#%$$#=$%%%*****o.X#######%#%%%%%%#%$$$##%#%%%#%%%%#@$%$$$$%*%****ooo$@###@$%%%%%%##%$24ppp",
"p22%#%%#%#%%$$$$$%%******oo.$$####%%%%%$#%%$$$%%%%%%#%%%%#%#%=$$$%$$$******ooo$$$###%$$$#%%%%%$41pip",
"pp22%%$%*#*$*$%$%$$%%%%%*.o.$####%%#%%$#%#%%%%%$%%%%**#*%%%%%%#%%$$$%***%*%.o.###$@$$$#*$$$$#=12pppp",
"ppp,,$###$###$$%%$$#$$%%*o.o#@@#####$#%$%######%#%#$$####@#####%%%$$$$@$***o  #@#@$@####$$*#*,<99pwp",
"ppp,,,#######$$$$%%##$***o..@#@####%##=#%####$#%%%*$$##$#%#####%%%$$$$#$***o..@#####=@#@$%$#,,<99ppp",
"ppp9,,,######*$$%$#$$%**$XX.@#@#######%#%######%$%$$$##########%$$$$$@##***...@#@#$####=%$%,,,999Gpp",
"77798,,,#@@@######$###%%*..X######@@@@#$##$#########@######@@@&*####$$$$***oXX######@@@@##,,,9999989",
"774999,,,@@#@#$###$##@%*%X..*######@#@$$#$##$##$##@#@####$#@#@#%$#$#@$@@%**...####$#@@@@#,,,99999989",
"7779999,,:@@###$$####$***Xo ###$%#@#@@#####$######@@###$@#$@@#######$$@$%*%..o##$@$$@#@@,,,999999999",
"--------====X XXo..o.oooo.Xo X.oXXXXXXXXXXXXXXXXXXXXXXXXXXXXXXXX.XX......oo.X..XXXXXXX====----------",
"-----------===Oo  . .oo.oo.o..oo.oX.oo . . .X...XXXXXXXXXoXXooXXXXXXXXooooooXooXXXXX===-------------",
"-------------========================================================================---------------"
};
