/* XPM */
static char *FEDPOFJSDOIJFSDIA1705918942[] = {
/* columns rows colors chars-per-pixel */
"50 50 18 1 ",
"  c #4F405A",
". c #4F415A",
"X c #4E405B",
"o c #4F405B",
"O c #4F415B",
"+ c #544C70",
"@ c #544D70",
"# c #544D71",
"$ c #5B5E90",
"% c #5A5F90",
"& c #5B5F90",
"* c #5A5F91",
"= c #667CB4",
"- c #677CB4",
"; c #667DB4",
": c #677DB4",
"> c #667CB5",
", c #677DB5",
/* pixels */
"....+......+...........@@.............+...........",
".&&&&&&&&.&&&&**&&*&*&&&&&&.&&&..&&$&&&&&.&&$$&&&&",
"+.+...................@@......X...................",
".&.===>>:;:;=====,&.&::;;;;;===..&.:;;======;;;;;;",
".&.&&&&&$$&***&&&&&.&&*&&&&&***..*.*&*****&&&&$$&&",
"......+.......X......@..@...........@.....OO.O@...",
".;;;====;;,;=*.&=,,:;;;:;;;;&.*..;;;;:===;:;;&.&;;",
".&***&&&&&$&&&.&&&**$&$$&$*&&.&..*&&&&&&*&&&&&.&&&",
"....+.......@.....+..............@.......@........",
".;;;;;*.&;:;;;::===;;&.&=======+.;;;;>&.&,==:,==;;",
".&&&&&*.**&&*&$$**&&&&@&&&&&&&&+.&&&&&&.&&&&***&&&",
"...............................O....X......@......",
".===,,;:;;;;&&.>:;::==,;::==&.&..;;;====;;::&&.=;;",
".&&&**&&&&$$&&.&&&&&&&&&&***&.*..&*&***&**&&&&.&$$",
"...O.@..@@.............................+....+....X",
"+===&.&:;;;;>===:;;@&;;;;;===,,..:::*.&===;;==;;;;",
".&**&.&&%%&&&&&&&*&@$$&&&&*&&&&..&&&&.&&&&&&&&&&$$",
"..+.......X....@..@............O........XX....@..@",
".=::=,;=;&.&;;;;;;;;;;=.&&&*&&&+.;;;===;=&+&;;:,;=",
".*&&&*&*&&.&$$&&&&&&&&*.&======..&$$&&***&+&&*&&&*",
"....+....+..........@@.+................X....@.+..",
".=*.&;==;==;;;;;.&;;;;;;===,+*=.@;&@&;;;==;;;;;;.&",
".&*+****&&&&&$&&.&&*$&&&*&*&.*&.+*&.&&&&*****&&&.$",
"......++..+.@.....................................",
"+,;;:;;;;;:&O;;;;;::;;&.,;;;:;;..==;;=;:;;;*.;==;;",
"@*&&&&&*&&&&.&&&&&&**&&.&*&&&*$..&**&&&*&&&&.**&&&",
"......+...OO.....@............+...................",
"..,:====;;;;;&@;;;::;;;;&.&::,=...;;====:;::;*.=;;",
"@.&***&&*&&&&&.&&&&&**&&&.&&&**...&*&&&&&&&&&&.&&&",
"..@..+..OOO@X.+..++....@......@.............+.....",
".;,;*.=,=,========&.*=====;;::;.@;;;*.;;;;;;====;;",
"....+...+..+.........+...+....@.............X.....",
"@...O...........@..........+....................@.",
".&&&&&**&.&&*&&&&*&&&&&&&&&.&&&..&&&**&&&@&**&&*&&",
".....+.+....................@.@...................",
".*.=,===,,::;;;;==%.&;;;====;;;..$.>:;;:;:;::;;;;;",
".&.&&&&&&&**&&&&&&*+$$&&*&*&&&&@.$.*****&&&&&*&&&&",
".........@........@....................+....+.....",
".;;>>>==;;==;&.*;;==;;;;;;;;&.&..===;=====;;;&.&;;",
".*&&&&&&&&&*&&.&&&*&&&&&&&**&.$..&&&&&****&&&&.&&&",
".....+..@+.........@...................@.......+..",
".;;;;;%.*=;;;;=;::::;*.&=====;;..;;;;;&.&;;;====;;",
".&&&&%&.&&$&&*&&*&**&&.&**&&$$$..&&&&&&.&&&&****&&",
".............+..@............@........@...........",
"@;;;;;;;====&&.;====;;;;:;;:$.$.X===;;;;;:;;*&.;;;",
".&&&&&&&***&&&.&&&***&&&&&&&$.$..***&&&&***&*&.&&&",
"....OOOO..................@.X.......@.@.....@.+...",
".;;;&O&,,==========.&;;;::;;;>>..===&.&;::::::,=;;",
".&&**.%%$$&$&&%%*&&.&&&&&&&&&&$..****.&&*&%&&&%&&&",
"....@.....@.................X..X...........@@....."
};
