/* XPM */
static char *xpm_data[] = {
"50 50 21 1",
"  c #1C1A22",
". c #1D1A22",
"X c #1C1B22",
"o c #1D1B22",
"O c #1C1A23",
"+ c #1C1B23",
"@ c #1D1B23",
"# c #192024",
"$ c #192124",
"% c #192025",
"& c #182125",
"* c #1A2125",
"= c #1A2026",
"- c #27222D",
"; c #302434",
": c #302534",
"> c #302535",
", c #322434",
"< c #332534",
"1 c #322435",
"2 c #332635",
"%%%#%      %%           %%%%%%&&#%%%%      #%%    ",
"%%%%            <22,:::  #%%%%%%%%%%            <<",
"%%%%  <<2<2    <###%%%%<  #%%% &%%%%  <:22<    <% ",
"     2&$% $:<      %#%%%2  %%%       <%%#%#<2     ",
"         #%%        %%%%#                #%%      ",
";::       #   <2:<   %%#%      :<2<       %   :<<<",
"&     ::    ::% #%2       <<2:2#%%    2<    <<%%&&",
"%   ::&$:  :%%%%%#%<        #%%%%   <<%%<  <%%%%%&",
"   :%%%%%2  %%%%%%&  222::2  %%%   2%%%% 2  ##%%%%",
"  <%% %%%%:    %%&&% :%%%#%<  %%  :%%%%%%%:    % %",
": :%%%%%&%%     %%&%  :&%#%%:   : :##%%%%%%     %%",
":  %%%%%%%% <<   %&#  :%#%%#%   :  #%%%%%%% <<   %",
"<   %%%%%%%  %::  %% :  %%%%  :%:    % %%%% %%2:  ",
"< : %%%&%%# %%%2     <  %%%% :%%: :    %%%# %%%:  ",
"  # %%%& %   %%%:   :%: %%%% %%%  # %%%%%%   %%%< ",
"  &   %%%%  %%%%#  <%%& % %   %%  #   %%%%  &%%%% ",
" :%%       %%%%%% :$#%%  #   ##< :%        #&%%%% ",
" %%%::     %%%%%  : %%&       $: %% ::     %%%%%  ",
" #%%&&2 #%%%%%&   :%%%%   %      %%%#%2 & %%%%#   ",
"  %%%%#  %%%     :%%##  :  :<:    %%%%%  %%%     <",
"< ##%%%         :##     #< %&%: < %#%%#         2#",
":  %%%%     ::<       22%# #&%%::  %%%%%    :<2   ",
"%:   %#  :::#%:     <:#%%% %%%%%%<   %%  <<2$&<   ",
"%#:      %%%#%%:::: :#%%%%   %%%% :      %%%& &:<<",
"$#%:   <  #%%%%%%#  %%% %  :: &%%%%:   <  %#%%%%& ",
"% % :::#:   % %&%   % %%   : : %%%% :<<%2   %%%#% ",
"%%% %#%%%%         %%%%   :%##: #%# ##$%%%        ",
"      #%#%#       %%%%   <%%%  :      %%%%#       ",
"::::    #%     :        2%%%  :$<::2    %#     :  ",
"%%%%:         <%:      <%%%  :%  %%%;         :#2 ",
"%%%% ::    %# %#%#  %%%#%%  :%%%%%&% 2<    #% %% &",
"%%% %%%%%%%%% %%#%#  %%%#% %%%%%%%% %&%&%%%%% %%%&",
"%%%%%      %%%          %%%%%%%#%%%%#      %%%    ",
"%%%%            ;2;;2::  %%%%%% %%%%            2<",
"$$%%  2:2;2    :%%%%$%%:  %%%#%%%##%  22<::    <  ",
"     :%%&%&22      %%%%#<  %%%       2#%&&%::     ",
"         %%%        %%%&#                %%#      ",
":::       %   :::<   %%&%      :::2       %   2<<2",
"&$    :2    2<#%%%<       <:<::%%%    ::    ::&&&%",
"%   << %2  :% %%%%&2        &%%%    ::#%2  :%#%%%%",
"   <#%% &:   &&%%%%# :<,::<  %%%   :%%&#&:  %$%%%%",
"  :%%%%% &2    %&%%% <%&%%%:  %%  2#%%%%%%2    #%%",
": :#%%%%%%%     %%%%  <&%%%%:   < :%%%% %%%     %%",
":  %% %%%%% <:   %%%  <&%%%%&   <  %%%%%%%% ::   &",
"2   %%%%%%# $ :2  && :  %%%%  2%:   %%%%%%% $%:<  ",
": < %%%%%%% &$&:     :  %%%% >%%: < %&%% %% $%&:  ",
"  & #%%% %  %%& :   : : &%%#  $%  & %%%% &  &%%%< ",
"  &   %#%%  %%%%%  2%#% %%#    %  %   %%%%  &%%%$ ",
" :%%       %&%%%& :&%%%  #   ##: :%%       %%%%%% ",
" %%%::     %%#%%  :%%%#       %< %%%::     $%% %  ",
};