/* XPM */
static char *rock1705317099[] = {
/* columns rows colors chars-per-pixel */
"50 50 16 1 ",
"  c #1C1B22",
". c #1D1B22",
"X c #1C1A23",
"o c #1C1B23",
"O c #1D1B23",
"+ c #182024",
"@ c #192124",
"# c #192025",
"$ c #182125",
"% c #1B2025",
"& c #27222D",
"* c #302434",
"= c #302534",
"- c #312534",
"; c #332534",
": c #322535",
/* pixels */
"#####   .. %##o.....oooo@@####$$@@###o.oo..@@@oo..",
"####    .   oo.o======;oo@o@#o##@o##ooooo...oooo;;",
"# ##  ::===oooo;#oo@###=oo@@##$#@@@@oo=;;==.o..=@@",
"  oo :##@@@=;oooo. @####=.o@##oooo.oo=@@@@@=;ooooo",
"        .@@$oooooooo@@@#@o.ooooooooooooo @o#oooooo",
":=:     ..  oo=:==ooo@@ @oooooo-===ooooo    oo;:=;",
"$@ o  ::.o.o==##@#=.o.. oo;;==-@ @..oo==    ;:##%#",
"  oo=:##=.o;@@#@%@#=.....ooo#@o@@..o-;##;  ;######",
"   :#####:oo@@o@###$ ---===ooo@@...=@@##@-oo@@@@##",
" o=+######:o..o@#### -##@@#;oo#@.o=oo@##@@-oooo$##",
"= :$#######ooooo####  -#o@@#:o  =o=#+#####@ooooo##",
":  @######@o=;ooo##   -#@@#@#oo =oo#######oo-;ooo@",
"=    #####@o@#==oo@# -  ####  -#:   %######o##=;oo",
":o= ######@o###=oooo -  #### -##; : ######@o###-oo",
"  + ###+##oo####=ooo-#-o#### ##$. @.####@@oo####;o",
"  #  o####oo####@oo=### ###   ##..@..o###@oo####@o",
"o-##oooo   ###o@@.=@@##oo@    $=o-o#ooooo..@#o##@o",
"o@##--oo o ##@@@o.=@$##ooo    $=o@@#-;ooooo@@@##oo",
"o@##@@-o$o####@ooo=oo@@oo @ oo  o@####-o#@@@@@@oo.",
"oo#####oo$##  ooo=@@@@oo-. -==  oo#####o @@ooooo.-",
"-.@@###ooooooooo=@@ooooo#=  @@=o=o$@##o   ooo.o.-@",
"-oo@#$##oooo===ooo...o==## @@@@=-oo@###@  oo;-=o..",
"@=oo  @  ---$@=oooo.==@@##.@##@#o-ooo#@. ===@o=oo.",
"#@=o     @@@##o==;=.=@o@##ooo###@@-ooooo ###@@@;--",
"@@@=ooo=oo@@@@##@@oo @@@#oo== #####=oo.; .@@##@@@@",
"##@o;=;o= oo@o++#ooo#@o@ooo=@; ##%#o=;=#=oo.##o@@o",
"###o##@@$$..    ooo###@ooo=@#%= @@@o@@@#@@o.oo.o.o",
"  oooo@#$ @o    oo####ooo=@@#  =..oooo### @.oo..oo",
"====oooo@@oo   =oo..oooo;##   =%----oooo##  ooo=oo",
"$###=o..oooo  =#=o..ooo;###  =#%####-ooo    oo=@;o",
"##$#+:=.ooo##o#@@$. ######  =#####@@o;=ooo  #o##@@",
"##$oo @@###o@o@@@@  o##### ########o#########o#@@o",
"####@o.   .@@ oooooo..oo@######@####@     o#@#oooo",
"####.o..  oo  oo======;oo@##########oo    oooooo--",
"$###oo=====o .o=@@$#o@#=oo####o@##@#o.=====oooo-&&",
"ooooo=@@@@@==..oooo+@@##=oo###      o=@@@ o:-ooooo",
"oo    oo ##       o $###@o.o..    ... . o@@@... oo",
"--=.  ooo #   ==:=o o###oo..   ===-o  oooo@oo.---=",
"@@o. .==oo  ==@@+#- oo ooo=====@##oo  -=oooo==@@$o",
"@oo.==o@:o =####@@o-.oo oo..@@@@#ooo--@@=oo=@@ @##",
"ooo:@####:oo@@@ ####o:::;==oo@#@ooo-##$@@=oo@@@@##",
"oo=#######=ooo #+### :#####=oo#@.o-@###@o@=oooo@##",
"=o-@#######o    ##+@  =+####=ooo-.-########o....@@",
"=oo########o:=   ##@  = ##@@@ooo- o#####@##o==..o@",
";...#######o# :=  #o.=.o####oo=o-o..####$$$o@$==oo",
"=o=.#######o#@#:  oo.=.o####o=$@-o- #$##$o$oo@@=oo",
" .@o######  ####:   =@:o###@ $@$    ##$$$# o####=o",
" .@ooo#@@# o#####  :#@@o##@o  #oo $ oo#$o@  #o##$o",
" =@# ooo.. @$@$@$ *o+##oo#ooo$@-o=@#oooo    @+### ",
"oo@@==oooo @ @$$  :@++#ooooooo@-o+$$--..   @####o "
};
