/* XPM */
static char *rock_resized1705694869[] = {
/* columns rows colors chars-per-pixel */
"100 100 21 1 ",
"  c #1C1A22",
". c #1D1A22",
"X c #1C1B22",
"o c #1D1B22",
"O c #1C1A23",
"+ c #1C1B23",
"@ c #1D1B23",
"# c #192024",
"$ c #192124",
"% c #192025",
"& c #182125",
"* c #1A2125",
"= c #1A2026",
"- c #27222D",
"; c #302434",
": c #302534",
"> c #302535",
", c #322434",
"< c #332534",
"1 c #322435",
"2 c #332635",
/* pixels */
"%%%%%%%#%%OOOXXXXXXXXX%%%%%*XXX+@@XXXXX.+XXXXXXX#%%%%%%%%%%%%&X&%#%%%%%%%%++XXXXXXXXoo*#%%%%++++++++",
"%%%%%%%#%%OOXXXXXXXXXX%+%%**XX++o@++XXX.++XXXXXX+#%%%%%%%%%%%%%&%%%%%%%%%%X+XXXXXXXXoo##%%%%++++++++",
"%%%%%%%%XX@OXXXXXXXXXX++++++++XX<<<2,2,,2:2:<:XX++##%%%%%%%%%%%%%%%%%%%%XXXX++++XoXX@@XXXXXX++++2<<<",
"%%##%%%%XX@OXXXXXOXXXX+++@@++XX+<::::<:<2:22<<XX++##%%%%%+*&%%%%%%%%%%%%XX++++++XoXX@++XXXXX++++2<<<",
"%%%%%%%%XX++<<<<22:<<2++XXXXXX<<####O##%%%%%%%<<+XXX*#%%%%%%&X&&#%%%%%%%XX++<<2:<222<<++X+X+XX<<*%**",
"%%%X%%%%XX+O<<<<:22<<2X+XXXXXX<<%##*##%%%%%%%#:2XXXX##%%%%%%&&&&##%%%&%XXX++<<:::2::<:XXXXX+XX<<%%#*",
"XXXXXXXXXX:2X&X$%%&+X$2:<<X@XXXX+@oo++%%##%%%%%%<2+X+X#%%%%%XXX+XX++++XXXX<<#%%%+#%%##<<:2XXXOXX++++",
"XXXX@XXXXX::&&&&$&&$$$2:<<XXXXXX++++++%%##%%%%%%::XX++##%%%%XXXXXXX+++XXXX<<##%%%#####::<<XXXOXX++++",
"XX@XXXXXOO+++XXXXX+#%%#%XXXXXX+++XXXXXXX#%%%%%%%##XXXXXXXXXX++++XXXXXXXXoooXXXXX++##%%%%++++XXXXXXXX",
"XXXXXXXX+++++XXXXX##%%##XXXXXX++XXXXXXXX##%%%%%%#+XXXXXXXXXX++++XXXXXXXXoooXXXXX++##%%%%++X+XXXXXXXX",
"2;2:2:XX++X+XXXXXXXX%#+XXXXX<<<2::<<XXXXXX%%#%##%%XXXXXXXX++++<:<<;2<<XXXXXXXXXXXX++%%XXXXXX<:<<<<<<",
";2::::XX++X+XXXXXXXX%#++XXXX<<<2:::<XXXXXX%%###*%%XXXXXXXX++X+::;2;2<<XXXXXXXX++XX++%+XXXXXX<<<<<2<<",
"+&$+XXXXXX@@<:::XXXX++XX::::%%%*##%%:2+XXXXX+XXX+++X2<<<:22:22X#%%%%@@XXoXXX22:<XXooooXX<<<<%%%%%&&&",
"&$$&XXXXXXXX<:::XXXXX+XX::::%%%%%%%%::++XXXXooXX++XX::2222:::2##%%%%@@XXoXXX:222oXooooX@::<<%%%%%O&&",
"#%XXXXXX2:::&&$$::Xo++::%%#%%%%%%%##%%<<+++XXXXXXXXXoo@++#%%%%#%%%XXXXXX<<;<%%%%<<++oX2<X%%%%%%%%%+&",
"%%X+XXXX:::2%&&+<<Xoo+2:%%%%%%%%%%##+%<<++++XXXXXXXX@@@+%#%%%%%%%+XXXXXX<<;;%%%%<<++oX<<##%%%%%%%%&&",
"XXXXXX::%%%%%%%%%%<2XXXX%%%%%%%%%%%%&&&X++:2:222<::::2X+XX%%%%%%XXXXXX:2$%%%%%%%**<2XXXX####%%%%%%%%",
"XXXXXX:2%%%%*%%%%%<2XXXX&X%%%%%%%%%%X&&&++::::::<:<<:<X+XX&&%%%%XXXXXX2<$&%+%%%%&#<:XXXX##%#%%%%%%%%",
"XXXX:<X%%%**%%%%%%%%::XXXXXXXX%%%%+&&&%%++2:%%%%%%##%%:<XX++%%%%XXXX::+%%%%%%%%%%%+%::XX++++XX%%%*%%",
"XXXX:<%%%%*%%%%%%%%%22XXXXOXX@%%%%&%&&%%@+:2%+%%%%%#&&<<XX++%%%%XXXX2:%%%%%%%%%%%%%%:2XX++++XX%&%%%%",
"::XX::%%%%%%%%%%&&%%&%XXXXXXXXXX%%%%&&&%@+XX::+&%%##%%%%::XXXXXX2:XX::%#%#%%%%%%%%%%%%XX++++XXXX%%%%",
"::XX::%%%%%%%%%%&&%%&%XXXXXXXXXX%%%%X&&&@+XX::&&%%##%%%%:2XXXXXX::XX:<%###%%%%%%%%%%%%XX++++XXXX%%%%",
"::XX++%%%%*%%%%%%%%%%%XX2<:<XXXX++%%&&## ooo::%%%#%%%%##%%XXXXXX::XXXX##%%%%%%%%%%%%%%XX<<<<XXXX++%%",
":2X+++*%%+*%%%%%%%%%%&XX:::<XXXX++%%$$X# ooo22%X##%%%%##%%XXXXXX::XXXX##%%%%%%%%%%%%%&XX:<<<XXXX++%%",
"2<++++++%%%%%%%%%%%%%%+X#*%%::::++XX#%%%XX::XXXX%%%%%%%%OXXX::%%::++XXXX*+%%**%%%%%%%%++%%%%:2<:+XX+",
"<<+X++++%%%%%%%%%%%%%%++##%%:<::++XX##%%XX::XXXX%%%%%%%%XXOO::%%::++XXXX%*%%**%%%%%%%%++%%%%<<<<++++",
"<<XX::XX%%%%%%&&%%%%##XX%%%%%%<2+XXX++++XX:<XXXX%%%%%%%%X+2:%%%%<:XX<:XX%****+%%%%%%##++%%%%&%::XXXX",
"<<XX::XX%%%%%%%X%%%%#*XX%%%%%&<:+XXX+XX+XX:2XXXX%%%&**%%XO:2%%%%<<XX<:XX****%%%%%%%%%*@+%%%%%%::XXXX",
"XXX+##XX%%%%%%%&%+%%++XX%*%%%%%%::XXXXXX<:%%::XX%%%%%%%%XX%%%%%%XXXX##XX%%%%%%%%%%%%+XXX**&%%%%%<<XX",
"XXXX%%XX%%%%%%%%%%%%++++&*%%%%%%::XXXXXX<2%%:<XX%%%%%%%%XX%%%%&&XXXX#*X+%%%%%%%%%%%%+++X%%%%%%%%::++",
"XXXX&&X+++++%%%%%%%%+@@+%%%%%%%%##XXXX<<%%%%X&XX%%%*%%XXXXXX%%%%@o@@##++@@++%%%%%%#%XXXX%&%%%%%%%%++",
"XXXX&XX+++++%%%%%%%%++++%%%%%%%%##XXXX<<%%%%%%XX%%**%%XXXXXX%%%%@@@+##@@@@@+%%%%%%##XXXX%%%%%%%%%%++",
"++::%%%%XX+X++++XXXX++%%%%%%%%%%#%XX<:$$##%%%%XXXX##XXXXXX####<<++<:&%%*+++@XXXXXXXXXX+#&&%%%%%%#%XX",
"++:2%%%%XX+XO++XXXXX++%%%%%%%%%%%%XX::$$##%%%%XXXX##XXXXXX####::++<<%%%%++@@XXXXXXXXXX##%%%%%%%%#XXX",
"++%%%%%%2:::XXXXXXXX++%%%%%%%%%%+++X2:&+%%*%*&XXXXXXXXX+XXXX&$::++%%%%%*2:::X+XXXXXX++%%%%%%%%%%++XX",
"++%%%%%%:2:2XXXXXXX+++%%%%%%%%%&++XX::&&%%*%&*XXXXXXXXX+XXXX%$::++%%%%%%::::XXXXXXXX++%%%%%%%%%%++XX",
"XX##%%%%&&&&<2XX###%%%%%%%%%&&X+++++::X%%%%%%%XXXXXX%%++XXXXXXXXXX%%%%%%*#%%22XX&&X*#%%%#%%%##XXXX++",
"XX##%%%%+&%%<2XX##%%%%%%%%%%&X++++++2:%%%%%%%XXXXXXX%%++XXXXXXXXXX%%%%%%##%%2<XX%&&%##%%##%%%#X+XXX+",
"XX+X%%%%%%%%##XX++%%%%%%XXXXXXXX++::%%%%##%#++XX2:XXXX::2<::XXXXXXXX%%%%#%%%#%+XXX%%%%%%XXXX++++XX<<",
"+XXX%%%%%%%%#+XXX+%%%%%%XXXXXXXXX+::%%%%#%%#++XX::XXXX:::::2XXXXXXXX%%%%%%%%##++XX%%%%%%XXXXX+++XX:<",
"<<++*###%%%%%%+X+XXXXXXXXXXXXXXX<:####XXXXXXXXXX##:<++%%+&%%::@@:<X+#%##%%%%##++XXXXXXXXXXXXXXX+:2##",
":<++**%#%%%%*%++XXXXXXXXXXXXXXXX<:###*XXXX+XXXXX%#:<X+%%&$%%::X@<<XX%%#%%%%%%#X+XXXXXXXXXXXXXOX+:<##",
"::++++*%%%%%%%**XX++++++::2:<<XXXX++@@XXXX++:2:2%%##+@##&&&%#%::::++XX%%%%%%%%%%XXXXXXXX2:2<:2XX+oXX",
"::++++**%%%%%%**XX++++++2:::<<XXXX++@@XXXX++:2::%%#*@@%%+&&%%%:::<X+XX%%%%%%&&%%XXXXXXXX<<2:<<XX++XX",
"%%::XX++XXX%##XX++::<:::##%%::XXXXXXXXXX<<::%#%%%%%%XX#%%%%%%%%%%%2<XXXX++#%#%++XX<<<<<2&$&&2<XXXXXX",
"%#::XX++XX#%##XX++:2<<::##%%::XXXXXXXXoo:<2:%%%%%%%%XX##%%+%%%%%%%<<XXXX++%%##++XX<2<<<<$$&&;;OOXXXO",
"%%##::XXXOXXXX X++%%%%#%##%%%%::2:::::Xo::##%%%%%%%%XX++++%%%%%%%%+*::XXXX++XX+XX++%%%%%&&&+O&2:<<<<",
"%%##:2XXXXXXXX ooo%%%%%%#%%%%%:<::::2:XX::##%%%%%%%%XXX+++%%%%%%###*::XXXXX+X++XXX%%%%%%&+&$&%<<<<<<",
"#$##%%2:+X+++X<<XXX+##%%%%%%%%%%%%##@@XX%%%%%%%+%%XX++<:::XX%&X%%%%%%%<:+XXXXX<<XXXX%%##%%%%%%%%X&&X",
"$$##%%22XX++++::XXXX%#%%%+%%%%%%%%#*@+XX%%%+%%*%%%XX++<::2XX%#*%%%%%%%<<++XX++<<XXXX%%#*%%%%%%%#$&&&",
"%%**#%XX<:::2:##::++XXXX%%**&%X&%%XXXX+X%%**%%%%XXXX++2:$+::++%%%%%%%%+X::<<<<%%22o@XXX+%%%%%%##%%XX",
"%%**##XX:<::::##<<X+XXXX%%&&&&&X%%XXXX++%%**%%%%XXXX++::$$2:++%%%%%%%%++2:<:2:%%:2oXXXXX%%%%*%*+%%++",
"%%#%%%XX%%###%%%%%%%XXXXXXXXXXXX+@++++%%%%%%%%XXXX++::%%####::++###%##++####$$%%X%%%@@@X+@@++@XX++XX",
"%%##%%XX%%##%%%%%%%%XXXXXXXXXXXX@@XX++%%%%%%##XXXXXX::%%###*::++#*##%#X+####*+%%&&%%+++++@++XXXX++XX",
"+XX++XXX++++##%%##%%##XXXXXXXXXXXXXX%%%%%%%%XXXXXX<<%%%%%%oo@@::XX+++++++XXX&%%%%%%%##XX@@XXXX+++++X",
"++XX++XX++++##%%##%%%#XXXXXXXXXXXXXX%%%%%%*%XXXXXX<<%%%%%%@@@@:2XXX+@@++++XX&&%%%%%%*+XX@@@XXXX+++++",
"2:::::::XXXXXXXX###%++XXXXXX++2:XXXXXXooXXXXXXXX22%%%%%%+@XX<:#$2<:::::2XXXXXXXX%%##+XXXXXXXXX<:XXXX",
"::::2:22XXXXXOXX#*##X+XXXXXX++::oXXXXX oXXXXXXXX::%%%%%X@@XX<:+$<2::::22XXXXXXXX%%##XXXXXXXXXX2:XXXX",
"%%%%%%%%<:+XXXXXXXXXXXXXXXXX<<%%<:XXXX  +X@+XX<<%%%%%%XX@X<:%%#*%+%%%%%%;;XXXXOX++++oo++XX++<:##22XX",
"%%%%%%%%<<XXXXXXXXXXXXXXXXXX<<%%<:XXXXX ++@+XX<:%%%%%%XX+X<:%%&&%%%%%%%%<;XXXXXX++++ooo@++++<<##<2XX",
"%%%%%%%%&O::<:XX+@+X++%%X#XX%%##%%##XXXX%%%%%%##%%%%XXXX2:%%%%%%%%%%&&#%@=22<<XXXXXXXoX#%%++%%%%&O&&",
"%%%%%%%%&&22:<XX++++++&%##XX%%##%%##XXXX%%%%%%##%%%%XXXX::%%%%%%%%%%X&#%+=22<<XXXXXXoo##%%++%%%%&&+&",
"%%%%%%++%%%%%%&%%%%%%%%%%%XX%%%%##%%##  ++%%%%%%##%%XX%%#%%%%%%%%%%%&%OX%%+&%%&&%%%%%%%%%%++%%%%%%&&",
"%%%%%%++%%%%%%%%%%%%%%%%%%XX%%%%######  ++%%%%%%##%%XX%%%%%%%%%%%%%%%%@@%%&&%&X&%%%%%%%%%%++%%%%%%%%",
"%%%%%%%%#%XXXXXXXXXXXX&%%%%%XX++XXXXXXOXXXXXXXOX%%%%%%%%%%%%%%##%%%%%%%%##+XXXXXXXXXXXX%+%%%+XXXXXXX",
"%%%%%%%%%%XXXXXXXXXXXX&%%%%%XX++XXXXXXOOXXXXXXXX%%%%%%%%%%%%%%##%%%%%%%%##XXXXXXXXXXXX%%%%%%++XXXXXX",
"%%%%%%%%XXXXXXXXXXXXXXXX++XXOOXX;;22<;2;<2::<:XX++%%%%%%%%%%%%%*%%%%%%%%XXXXXXXXXXXXXXXX++++++XX:2<<",
"%%%%%%%%XXXXXXXXXXXXXXXX++XXOOXX;::2<2;2<:2:<<XO++%%%%%%%%%%%%**%%%%%%%%XXXXXXXXoX+XXXXX++++++XX22:<",
"$$$$%%%%XXXX:2::<22;:2OXXXXXXX2:%%%%%%%%O$%%%%::XXXX%%%%%%##%%#%%%####%%+++X22:2<<::::XXXX++XX<<----",
"$$&#%%%%XXXX:::::222:;OOXXXXXX::%%%%%%%%&&%%%%::XXXX%%%%%%##%%%%%%%###%%+++X:::2<;<2::XXXX++XX<<----",
"OOXXXX++@X::%%&%&&&%+&22:2++XXOXXXXXXX&%&%%%%%%#<<XX++%%%%%%XXXX++XXXX++++:2##%%+&&&&%2:<:++XX++XXXX",
"XXXXX+++XX::%%&$+&%%&&:::2XXXXXXXXXXXX&X%%%%%%##::XX++%%%%%%XX@@X+XXX+++++::%#X*$&&+%%:2::++XXX+XXXX",
"XXXXXXXXXXXXXXXXXX%%%%%%OOXXXXXXOXXXXXXX%%%%%%%&$#XOXXXXXX++XXX@++XXXoXXXXXXXXXoXX#%%%##XXXXXXXXXXXX",
"XXXXXXXXXXXXXXXXXX%%%%%XXOXXXXXX@@XXXXXX#%%%%%%&$$XXXXXOXX++XXXX++XXXXXXXXXXXXXoXX%%%%%#XXXXXXXX++XX",
"<:::::XXXXXXXXXOX@XX%%XXXXXX::::::2<XXXXXX%%%%+&%%XXXXXXX+++XX:::::::2XXXXXXXXXXXX@X%%XXXXXX<22<2<22",
"2<:::<XXXXXXXXXO@@XX%%++XXXX:::::::<XXXXXX%%%%&$%XXXXXXOX+++XO:::::222XXXXXXXXXXXXXX%%XXXXXX::<<:<2:",
"X&$$XXXXX XX:::2XXXX+XXX:2<<+#%%%%%%<<XXXXXXXXXXXXXX<<::<<2:::%%#%#%++XXXXXX<:::XXX@XXXX::::&&&&%&%%",
"%%$#XXXX  OO::<2XXXX++XX:<<2%#%%%%%%:<+XXXXXXXXXXXXX:<:2::::::%%%%##X+XXXX+X::2:XX@@XXXX2:::&+%%%%%%",
"%%+XXXXX:<<<X+&%22XX++::&%**+%%%%%%%X&:2XXXXXXXOXXXXXXXX$&&%#%%%**+XXXXX<:::###%22XXXX2:%%%#%%%%%%%%",
"%%++XXXX::::$&&&;2XXXX::%%*%%%%%%%%%&&::XXXXXXOOXXXXXXXX$+&&%%%%**++XXXX<::<####:<XXXX22%%%%%%%%%%%%",
"++XXXX:<##%%%%**&&::XXXX@++&&&+%%%%%%%##XX::2<,,::::2<+X++%%%%%%XXXXXX2:%%%%&&##&&::XXXX+%+$$%%%%%%%",
"++XXXX:<##%%*%*%&&::XXXX&&&&&&%%%%%%%%#%XX2:::,,2::::<+X++%%%%%%XXX+XX::%%%%&&##+&::XXXX%%$#$%%%%%%%",
"++XX2:%%%%%%%%%%&++&;2XX+++X++%%&&%%%%%%XO<<%%&&%%%%&%::++++%%%%XX+X22##%%%%%%%%%%&%:2XX+++X++%#%%%%",
"++XX::%#%%%%%%%%&&&&;;XX++XX++%%&&%%%%%%XO<<%&&+%%%%%%::XX++%%%%XX++2:##%%%%%%%%%%%%::XX++++X+##%%%%",
"<:XX<:##%%%%%%%%&%%%%%XXXX++++++%%%%%%%%XXXX:<&&%%%%%%%%<:XX++XX<<XX::%%%%%%%%%*%%%%%%XXXXX+XXXX%%%%",
"<:XX<2##%%%%%%%%%%%%%%XXX+++++++%%%%%%%%XXXX:;&&%%%%%%%%<<XXXXXX<:+X::%%%%%%%%**%%%%%%XXXXX+XXXX##%%",
"2:XX++%%%%%*%%%%%%%%%%+X<<::++++XX%%%%%%XXXX:<O&%%%%%%%%%&XXXXXX:<+XXX%%%%%%&%%%%%%%%%OX2:::XXXX++%&",
"::XX++%%%%**%%%%%%%%%%+X::<<++++X+%%%%%&XXXX:<$+%%%%%%%%%$XXXXXX:<XXXX%%%%%%%%%%%%%%%%XX<2::XXXX++%X",
":2XXXXXX%%%%%%%%%%%%##XX$$&+:::2XXXX&&&&++2:XXXX%%%%%%%%XXXX22%%<:XXXXXX%%%%%%%%%%%%%%XX#$%%::<<XXXX",
"::XXXXXX%%%%%%%%%%%%#*XX+$&&:2::XXXX&&&+++::XXXX%%%%%%%%XXXX<<%%<:XXXXXX%%%%%%%%%%%%%%XX$$%%2:<<XXXX",
"2:XX;<XX%%%%%%%%%%%%%%++$&$$$&2:XXXXXXXX@@::XXXX%%%%%%%%XX>>&%%%::OO;<XX%%&&%%%%&X%%%%XX$$&%&&::XXXX",
"2:XX:<OX%%%%%%%%%%%%%%++&&+$$&2:XXXXXXXX@@::XXXX%%%%%%%%XX>>&&%%::XX:<XX%%&&%%%%&&%%%%XX+$%%#X::XXXX",
"XXXXO&XX###%%%%%**%%XXXX%%%%&&%+<:XX++++::**::+X&&*%%%##XX&X$$%%XXXXO&OO%%%%%%%%&+&&XXXXX&%%%%%%<<XX",
"XXXX$+XX#*#%%%%%*%%%X+XX%%%%+&%&2<XX++++::*@::++%X*%%%%%XX&&$$%%XXXX&&XX%%%%%%%%&&&&XXXX&&%%%%%%::XX",
"XXXX&&XXXX++%%###%%%++++%%%%%%%%#%XXXX:2%%##%%++%%%%%#++XXXX&X%%XXXX%%XXXXXX%%%%%%%%XXXX&&%%%%%%$$XX",
"XXXO%&+X++++%%###%%%++++%%%%*%%%##XXXX<<%%%#%#++%%%%%*@+XXXX&&%%XXXO%&XXXXXX%%%%%%%%XXXX%&%%&%%%$$XX",
"O+2:%%%%OXXXXXXXXXXXXX%%%&%%%%%%&&XX::+&%%%%%%++@@*#++XXXX####2:XX2:%%%%++++++XXXXXXXX&%%%%%%%%%%%++",
"OX::%%%%XXXXXXXXXXXXXX%%%&%%%%%%&&OO::&&&&%%%%++++##+XXXXX%###::XX::%%%%@+++++XXXXXXXX&*%%%%%%%%%%++",
"@@%%%%%%::::XXXXXXXXXXX%%%##%%%%XXXX2:%%%%%%##++++++++XXXX++%%<<XX%%%%%%2:::XXXXXXXXXX#$%%%%**%%XX++",
"@@%%%%%%:::2XXXXXXXXXX%%%%##%%%%XX++:2%%%%%%#++++X++++XXXXX+&$<<XO%%%%%%<:::XXXXXXXXXX$+%%%%*%%%XXX+"
};
