/* XPM */
static char *test1705918265[] = {
/* columns rows colors chars-per-pixel */
"50 50 27 1 ",
"  c #2B143C",
". c #2A153C",
"X c #2A143D",
"o c #2B143D",
"O c #2A153D",
"+ c #2B153D",
"@ c #47185C",
"# c #46195C",
"$ c #47195C",
"% c #46185D",
"& c #47185D",
"* c #46195D",
"= c #47195D",
"- c #703C74",
"; c #713C74",
": c #703D74",
"> c #713D74",
", c #703C75",
"< c #713C75",
"1 c #703D75",
"2 c #713D75",
"3 c #504286",
"4 c #504386",
"5 c #514386",
"6 c #514287",
"7 c #504387",
"8 c #514387",
/* pixels */
"##@###@##===&&######==##########$$$=$$######====$#",
"oo.oXXXXoooo Xoooooo++  ooooooo.+ ++ +oooooo+++ ++",
"oooo.XX.oo++ XXoXXoo++++oooooooo++++ ++oXXoo++++  ",
"888888888888666644778888oo877777877866668447888888",
"2--2;---2-222-22,,--22-2++2->---22-2-2-211-----2-;",
"2222;;--22-222-------2--++-2>----2--2-2-,1----2--<",
"22-------22-2-------2-2-++2-----2-2-22-------2-2--",
"22------22--2--------222++--222--2--22--1---------",
"--22-----22-----2------- o,,,--------2--22-2-2----",
"2222----22------222-----o+11--------2-22----222---",
">>-2--->-222;-11-2---->-oo11------;;-2--2---<<<--2",
"$$==#@##****####======##oo##====@@@&=========&&#==",
"########=*######====$$##oo##=$=@@####&##=#==&&=#==",
"++oo +o ++oooooo++ +.. ooooo++  XX  XXXo++X+ +X ++",
"oooo XXX+ooooooo  ++o.oooooo++   X .o.oooo+X++++++",
"8884888888887oo86888777777766866888X.8777866888888",
"-2-2-2-2-----.o------2-22--22-2-22-++-211111-222--",
"--22-22------..>----2222--2-22-22--o+-2211,,-2----",
"222--2---2---oX------22---2---222-2+o222--------2-",
"22------2----o.;----2-2-222-2-22---+o-22----22-222",
"---2211-22221oo12-2222-2222-2-22---++--1--2-22-222",
"2-2222--22--1oo1-2-2--2-2--22--2222++--12---2---2-",
"-2-22222-2222oX2222---2--22--------++-1122-2222-22",
"-2--2-2--22--oX2--2222-2-22222-2---++--122-2-22-<2",
"*=####==###==+o#=#==========#===@@@++###===#==@@&&",
"===##=$###===+o##====@@===##====$==+ =##@#==@=$@=&",
"++ +  ++ooooX  o  +   +++ooooo+o++Oo oooXX+  ++   ",
"  ++   +ooooX  o      +++oooooOo+++o ooo++++ ++++ ",
"888868778888888866888888++887777888888888884888868",
"-----2112-2-2----------- +--1111--22----;<;<------",
"------,,22---22--------<  ---11--222-2----;-2----2",
"------,,2222---22------<  --1-1-2-2222--------222-",
"-----2---22-22-2<---2-2-++-------22222--222----2--",
"-2-22---2--2-2-2<<---22-++-2------2-2--22-2-2222--",
"--22--,222222-2-222---22oo-2--,<222-22<<-2-21122,-",
"2222-,,2---22---22--2-2-o+-2,,,<2-2----<--22122-<<",
"====$###===#====####&&=#oo######====#=##########&&",
"=====##=======&=####&&=#oo######====&##########=##",
"+++++  ++++  + +ooooX oooooo+ooo+++    ooooooo++X ",
"++++   ooo   +  oooo  o+oooo  oo++     ooooooo  XX",
"8888777787884X 88888886866888888888 +8886788888877",
"-->-----11--,XX<2--2--2-22222-2---;++---11------12",
"--;-2>>-111,< X-222--<<<222--------+ <221,,--2----",
"-->>>>>2111,<++-2-2-222<-2222-----;  ;2-,,--2---11",
"-2--2-2222--<X.;-2222-222<<<----2--++--2-2-2---222",
"-2222-222----X.;-22-22-22<------22-++22--2-2-22---",
"---2-2--2---;+.---2--2-222----1<2-2++-2-22-22--2--",
"2-22-222---;;.+--222----2---1,,<---++2222-2-22-2--",
"===$$$#@###=@+o###=====#&==&==#&==@++$#@===#==&#=#",
"====$$@@#@=##  ==#=#####==#&&&#&===  ===##=#@@&&=@"
};
