/* XPM */
static char * woisy3_xpm[] = {
"50 50 46 1",
" 	c #192025",
".	c #192024",
"+	c #1C1A22",
"@	c #182125",
"#	c #332534",
"$	c #332635",
"%	c #322434",
"&	c #302534",
"*	c #192124",
"=	c #BF9150",
"-	c #BF9050",
";	c #BE9050",
">	c #BE9150",
",	c #BF9051",
"'	c #302434",
")	c #BE9151",
"!	c #B88524",
"~	c #B88525",
"{	c #B88424",
"]	c #B98425",
"^	c #B98424",
"/	c #B98524",
"(	c #010000",
"_	c #151515",
":	c #141514",
"<	c #151514",
"[	c #151415",
"}	c #141415",
"|	c #141515",
"1	c #6F4D11",
"2	c #6F4C10",
"3	c #6E4C10",
"4	c #6C4A0F",
"5	c #6C4B10",
"6	c #B88425",
"7	c #6B4A0F",
"8	c #6B4A10",
"9	c #6C4A10",
"0	c #6F4C11",
"a	c #302001",
"b	c #322101",
"c	c #332000",
"d	c #B38123",
"e	c #B48123",
"f	c #010101",
"g	c #010001",
"   . ++++++  +++++++++++      @@.    ++++++.  ++++",
"    ++++++++++++#$$%&&&++.          ++++++++++++##",
"    ++##$#$++++#...    #++.   +@    ++#&$$#++++# +",
"+++++$@* +*&#++++++ .   $++   +++++++#  . .#$+++++",
"+++++++++.  +++++++=--;>>,,>,,+++++++++++.  ++++++",
"'&&+++++++.+++#$====,,;);->>>!~!~$#+++++++ +++&###",
"@+++++&&++++&& +==)=,,)~{!!!~~~~~ ++++$#++++##  @@",
" +++&&@*&++&    -)==,~~~~~]!]~~~~+++##  #++#     @",
"+++&     $++  !>--=~^]!~!~!!~^~~^^/$    +$++..    ",
"++#  +    &+++=)^^!~^^!!!!!~/^~^^^^       &++++ + ",
"&+&     @  +++~~]~](((((((((((~^^^~..      +++++  ",
"&++        +##~!~~!(___:<_[__<!~^/~.       +##+++ ",
"#+++       ++ ~!(((([[[[_[:::[}[:{{++ +    +  $&++",
"#+&+   @  .+  !!(((([[[[[[:[}:[[<!~++++   .+   &++",
"++.+   @+ +++ ~~((:[<::[[[<[}[:}<!~+      +++   #+",
"++@+++    ++  !!((::[:::[<[[[[}}<!!+++    ++@    +",
"+&  +++++++   !!((||[[<[::[[:[::<!!++++++++.@    +",
"+   &&+++++   !!((||__::::::}[:}_!!+&&+++++     ++",
"+.  @@$+.     !!((||[_[[}[:::[}}<!! . $+@+    .+++",
"++    .++   ++!!((||[[[:[}:[[:[:<!!    ++   +++++#",
"#+..   +++++++~!((___[[_[[__[:}:_~~.  .+++++++++$.",
"&++    +++++&&~!~~~~~~!]]!{{{{~~~~~     ++++&#$+++",
" &+++ .++&&&. ~!!~~~~~~~^]!]~]!]~~~++  ++##$*@#+++",
" .&++++++   .  &111~~~22111113132+&++++++   @+@&##",
"*. &+++#++.     112~!!22222233221  &+++#++ .    @+",
" + +&&&.&+++ +~~!!~]~]~^~/~~3~~~/  +&## $+++   . +",
"   + .    ++++~]!~~!^~^]]]!~2~~~/ .+..*   ++++++++",
"++++++. . .+++~/~~!!]~/]]]~~2!!~/+++++    .+++++++",
"&&&&++++. ++++~/~!!]!]~~~!~45~~~~&&$++++ .+++++&++",
"    &+++++++++^/!!!]!!~~!!~41~~]~   '+++++++++&.$+",
"    +&&++++ .+~/~~!!!]~~~~442]~]~ @ +$#++++. +  +@",
"   +         +~~]!!!]!66!7421]]!/  + @ @     +   @",
"     ++++++   ^~~^^^!!!755422]~]~   .++++++   ++++",
"    ++++++++++]]~!~^{{]551431~]]~   ++++++++++++$#",
"**  ++$&$'$+++]]~///{{!558733{!!/.. ++$$#&&++++#++",
"+++++&  @ @$$+]^^~/~]68578113]]]/++++$. @@ &&+++++",
"+++++++++   ++!!^^~~~49942112~~]~++++++++  .++++++",
"&&&+++++++ +++!!^/^~/49011112]~~]&$+++++++ +++$##$",
"@*++++&$++++$#!!~~~~499211112]~/~ ++++&&++++&&@@@ ",
" +++##+ $++& +!!~!!~499931112~/~~+++&&. $++& .    ",
"+++#.  +@&+++@!!!!!aaaaaaaabc!~~~++&  @.@&++ *    ",
"++&     +@$+++!]!!daaaaaaaaab!~!^+$.      $++++.  ",
"&+&.       +++]!!!eaaaaaabbbb~!!!+&    +   +++++  ",
"&++  +     +#&]!//f(((f(g((((~!!!++        +&&+++@",
"$+++      .+*+~~(ff((ff(g((((!!!{+++       +* &#++",
"&+#+       +@*~~((((((((((gg(~~!{+#+ @  +  +* @&++",
"++@+.   + ++  ~!(((+&+&+@ g(+~!!{+@+    +@++@   #+",
"++@+++ .  ++  ~ ((($ . +  (f+~!!!+ +++    ++@   *+",
"+&  +++++++ @ ! ((ff   ++.((f~!!!&  +++++++      +",
"+   &&+++++  .! (((f  .+++((f!!!!   &&+++++*  + ++"};
