/* XPM */
static char * woisy2_xpm[] = {
"50 50 38 1",
" 	c #192025",
".	c #192024",
"+	c #1C1A22",
"@	c #182125",
"#	c #332534",
"$	c #332635",
"%	c #BD8D44",
"&	c #BD8C44",
"*	c #BC8C44",
"=	c #B88524",
"-	c #B98425",
";	c #BD8C45",
">	c #B88525",
",	c #B88424",
"'	c #B98424",
")	c #302534",
"!	c #192124",
"~	c #BC8D45",
"{	c #B98524",
"]	c #302434",
"^	c #BC8D44",
"/	c #010000",
"(	c #151515",
"_	c #141514",
":	c #151514",
"<	c #151415",
"[	c #141415",
"}	c #141515",
"|	c #6F4D11",
"1	c #6F4C10",
"2	c #6E4C10",
"3	c #B88425",
"4	c #6E4C11",
"5	c #6F4C11",
"6	c #322101",
"7	c #332000",
"8	c #010101",
"9	c #010001",
"   . ++++++  +++++++++++      @@.    ++++++.  ++++",
"    ++++++++++++#$$%&&*==--=--      ++++++++++++##",
"    ++##$#$++++#%%%%;;*>,'====>=>   ++#)$$#++++# +",
"+++++$@! +!)#+++%%~%-->>,===>>>>>++++#  . .#$+++++",
"+++++++++.  ++++&>{{->>>>>-=->>>>++++++++.  ++++++",
"]))+++++++.+++^^''{>'-=>=>==>'>>''{+++++++ +++)###",
"@+++++))++++))%>''=>''=====>{'>''''+++$#++++##  @@",
" +++))@!)++)  >>->-///////////>'''>+##  #++#     @",
"+++)     $++  >=>>=/(((_:(<((:=>'{>$    +$++..    ",
"++#  +    )+++>=////<<<<(<___<[<_,,       )++++ + ",
")+)     @  +++==////<<<<<<_<[_<<:=>..      +++++  ",
")++        +##>>//_<:__<<<:<[<_[:=>.       +##+++ ",
"#+++       ++ ==//__<___<:<<<<[[:==++ +    +  $)++",
"#+)+   @  .+  ==//}}<<:<__<<_<__:==++++   .+   )++",
"++.+   @+ +++ ==//}}((______[<_[(==+      +++   #+",
"++@+++    ++  ==//}}<(<<[<___<[[:==+++    ++@    +",
"+)  +++++++   ==//}}<<<_<[_<<_<_:==++++++++.@    +",
"+   ))+++++   >=//(((<<(<<((<_[_(>>+))+++++     ++",
"+.  @@$+.     >=>>>>>>=--=,,,,>>>>> . $+@+    .+++",
"++    .++   ++>==>>>>>>>'-=->-=->>>    ++   +++++#",
"#+..   +++++++++|||>>>11|||||2|21+ .  .+++++++++$.",
")++    +++++))#+||1>==1111112211|++     ++++)#$+++",
" )+++ .++))). >>==>->->'>{>>2>>>{#+++  ++##$!@#+++",
" .)++++++   . >-=>>='>'---=>1>>>{+)++++++   @+@)##",
"!. )+++#++.   >{>>==->{--->>1==>{  )+++#++ .    @+",
" + +))).)+++ +>{>==-=->>>=>1|>>>>  +)## $+++   . +",
"   + .    ++++'{===-==>>==>1|>>-> .+..!   ++++++++",
"++++++. . .+++>{>>===->>>>111->->+++++    .+++++++",
"))))++++. ++++>>-===-=33=211|--={))$++++ .+++++)++",
"    )+++++++++'>>'''===2||111->->   ]+++++++++).$+",
"    +))++++ .+-->=>',,-|||12|>--> @ +$#++++. +  +@",
"   +         +-->{{{,,=||4222,=={  + @ @     +   @",
"     ++++++   -''>{>-34|24||2---{   .++++++   ++++",
"    ++++++++++==''>>>15511||1>>->   ++++++++++++$#",
"!!  ++$)$]$+++=='{'>{155||||1->>-.. ++$$#))++++#++",
"+++++)  @ @$$+==>>>>1551||||1->{>++++$. @@ ))+++++",
"+++++++++   ++==>==>15552|||1>{>>++++++++  .++++++",
")))+++++++ +++=====6666666667=>>>)$+++++++ +++$##$",
"@!++++)$++++$#=-===6666666666=>=' ++++))++++))@@@ ",
" +++##+ $++) +-==={6666666666>===+++)). $++) .    ",
"+++#.  +@)+++@-={{/////8/////>===++)  @.@)++ !    ",
"++)     +@$+++>>88/888///////===,+$.      $++++.  ",
")+).       +++>>////8//8/////>>=,+)    +   +++++  ",
")++  +     +#)>=/88///8/9////>==,++        +))+++@",
"$+++      .+!+>$/88//88/9////>===+++       +! )#++",
")+#+       +@!=)//////////99/>===+#+ @  +  +! @)++",
"++@+.   + ++  =+///+)+)+@ 9/+====+@+    +@++@   #+",
"++@+++ .  ++    ///$ . +  /8++==>+ +++    ++@   !+",
"+)  +++++++ @   //88   ++.//8..)>)  +++++++      +",
"+   ))+++++  .  ///8  .+++//8+ #+   ))+++++!  + ++"};
