/* XPM */
static char *woisy_resized1705694868[] = {
/* columns rows colors chars-per-pixel */
"100 100 61 1 ",
"  c #000100",
". c #010100",
"X c #000001",
"o c #010001",
"O c #010101",
"+ c gray8",
"@ c #151414",
"# c #141514",
"$ c #151514",
"% c #141415",
"& c #151415",
"* c #141515",
"= c #151515",
"- c #322000",
"; c #332000",
": c #322100",
"> c #322001",
", c #332001",
"< c #322101",
"1 c #332101",
"2 c #1D1A22",
"3 c #1C1B22",
"4 c #1D1B22",
"5 c #1C1A23",
"6 c #1C1B23",
"7 c #1D1B23",
"8 c #192124",
"9 c #182025",
"0 c #192025",
"q c #182125",
"w c #192125",
"e c #1B2024",
"r c #1A2124",
"t c #1B2025",
"y c #1A2125",
"u c #1A2026",
"i c #27222D",
"p c #312434",
"a c #302534",
"s c #312535",
"d c #322434",
"f c #322534",
"g c #332534",
"h c #322535",
"j c #332635",
"k c #6E4C10",
"l c #6F4C10",
"z c #6E4D10",
"x c #6F4D10",
"c c #6E4C11",
"v c #6F4C11",
"b c #6E4D11",
"n c #6F4D11",
"m c #B88424",
"M c #B98424",
"N c #B88524",
"B c #B98524",
"V c #B88425",
"C c #B98425",
"Z c #B88525",
"A c #B98525",
/* pixels */
"00000099006*777777733300000y66676*3333BBmmmmmmNNNNMMNNNNAACCu000ququ90000066333333333770q00077666666",
"00000099006677677733330600yy66*i7i3333BBmmmmmmNNNNCCNNNNAACC00qqq6uq00000066333333337700000077666677",
"00009900666633637773333377776677NNNAMMNMmmVVmmNNNNCCNNAANNCCAAANMV000000*66633363333667766777336jjjj",
"00009000666633337y*3333337776667NNNAMMMMVVVVmmNNNNCCNNAANNCCCAANNN000000i67633363333666766777736jjjj",
"009900006666ppjjggjjpj376*7777jjMBBBmmmmCCCMmmVVNNCCVVNNmmCCCMMMNN0000006633jjjaggajpj3677*777jj00q7",
"000000036666ppjjagjjjp677i7077jjMBBAmmNNCNMMZmVANNCCVVNNmmCCCCVVNN0000070*33jdjjaagpjpi*770777aj00q3",
"33333333*0pj09700y0088pjpj7*666*MMAACCNNCCANNACACCCCmmmAAACCAmMMNN667733y7jj5900000000pppp7i77773333",
"333333337ypp0900000008pppj766666MMAACCNNCCANAACCCCCCmmZNAACCAmCCNN67773377jj660000000qpjpp3*337y3333",
"77*7*37677333333336900007i77CNNNMMMMACNNCMMMCCCCBBMBNNBBAAAAmZZZMVmmmm33676666667*0q880073337*i*6666",
"77y7i37677333333339900006*67CNNNMMMMANNNCMCCCACCBBMBNNNBAAAAmmZZMMmmZZ33*i*6*66677yq8800733377776667",
"jjaapj777777333333330076*i77CCCCVVMMNNNNVVVVNNNNMMBBNNBBCAmmAANNMMBBNN73i766u7667777q0663333gagappjj",
"jaaajp7777773333333300666777CCCNVVMMNNNNmVVVNNNNMMBBBABAAAmmANNNMMBBNN73*66677667777q0663333gaggpppj",
"000966*77763jaaa33363333aadaNNNCVVNNNNoooo    OOooooooo.ooooNNAACCMMNN330777jpjj7736*036aaag6000qy88",
"0080i*077*63apag33363333adadNNCCVVNNAAoooo o  OOoo  ooo.ooooNNCCCCMMNN33y777pjjj77337777gadg0000qq88",
"80336666jjjj0070aj3333pp0000CCNNmmmNMMoo####*$$=***$@@%*****NNNNCCAANM33jppjq7qqjg7777pj8000080y0000",
"30666666aapp0090aj3333pp0000CNNNmmmNMMoo####$$$$**$$@@%@****NNNNCCANMM33pjpjuquqag7777pp000088000000",
"360777jp8800000000ga73*0q000AANNoo.....o@@**&&@@*@@@@&&&&****@@@$$AABBjj7qqqquq700ag3333000000000000",
"66*677pj0700000080aj77770000BBNNoo.....o@@**&&@@*@@@@@&&*****@&&$@AANNjj9qq7qquq06gj333300000000yy00",
"6666aa00880000000000jp776666BBBN   ..ooo==@@&&@@@@@@@@%%****====@@BBNN0qqqqqq7qq00y7aa33333333000000",
"6666aj00000000000000ap776667BBNN    oooo==@@&&@@@@@@@@%%****====@@BANN70q7qq0yq700y0aa33773333090000",
"aa33ag00000000008800007766%7CCNN  ..%%@@&&********==&&%%%%%%**@***AANZ0uyqq7qqyq00000073733333330000",
"ga33ga000y00y00088e000376767CCNN  ..%%@@&&*****@*@==%&%%%%@%******AANm0uq70yqqqy00000033333333330000",
"gd3337880yyy00880y00yy*0ddjjCCCCoo..**@@&&@@%%@@@@@=@@%%@@%%%%****AANNy7qy7qq0qq0000q877ppjj33777700",
"da3337887yyy0000y0000y7ydjjjAACAoo..**%@&&@@***@@@@@@@%%&&%%%%**&&AAAN0uqqqqqqq700000977jppp33377700",
"aa33776700yy0008700000339900NNAAoooo****@@@@@@@@*@*#@@**&&@@@&&&@*NNNM&u00q7q07y090000360000jjpp*777",
"da3377*000y0000q000000339900NNAAoooo****@@@@@@@@@@*##@*#&&@@&&*&@@NNMM66qyyqqyqq990000*60000ajpj7777",
"pp77ppi*007000q0000q00330000NNNNoOOO@***======****@#**##&%****%%**NNCC76q700y7qy000000i7000030pa3377",
"jp77pp77000000q0000700330000NNNN OOO@***======****@@@*##&&**%*%%**NBCC66uuyyqqyq00000066000060ja6377",
"*i77006300000000000077330000NNNN....*%*@$$$=$$@*****@@@###@@%@%%**ABAA66qyq7yq7yqq886*7700000000pp77",
"7777006600000000000077338800NNNN....*%@@$@$=$@@*++**@@@###@@%@%%**AAAA*6yqqqqqqqqqqq667700000000pj70",
"*7*7007677660000008833739900NNNNoo..@*@@@@$***@@**%%***#####@@%%**AAAN6667777qqqyq00667700000000q07*",
"i7y3006677660000008833739900NNNNoo.o@*@@@@******@*%%***###@@@*@%&&AANN666777yqq7qqq06667000000000077",
"77jj00003366663377776600qq70CCCCooOO****%%%%%%***%%%*****%%%@**@&&AAAV007766*0777777760000000y000077",
"37aj000033636333677*6700yqq0ACCNooOO****&&%%@@*&**%%****%%**@*@@&&AAVV00770*6677667y77000000y0000q37",
"36qq0000ppaa3333667666007q00CCNNNAAANNNNAANNBMMMmmCCVVANBMNNAANNCCNNmZ00jjjj66776i703700000000007777",
"*68q0000jpja333366i*6600qq0uCCNNNAAANNNNANNNBMMMmmCCVACNBMNNAANNCMMNmm00ajjj66776*6*370000000000*377",
"077000006999ja7399000000qqqqNNNNNNMCNCNNVVZNNNBBAANNNANNNNNCACCCNNNNmm006900jj770000q00000009933i*i7",
"y70000009900aj3399000000q7qqNNNNNNMCNCNNAAZZNNNBAANACCAANNNCCCCCNNNNmm009900pp7*0000q000000093337366",
"66770000000000776600000066773333vvvvvvNNAAANcvzxvccccnncvvnnllllcc36u09990000066770000007770337777jp",
"*6770000000000776600000066773333vvvvvvCCAAANxxzbvvccnnncvvvlllllcc36009900000066*3000000777*3373*7pj",
"jj66q000qqqyqy7766*i7i7666666633ccccvvNNNNNNbxvvccvvnnnnvvvvvcxxvc63690000q00066i*0y777733*03333jj00",
"jj660000qqqqq7770*666*0*66666633cczzvvNNNNNNbbvvcvvvnnvnccvvccxxvv6699000970006673777y77337y3733jjqq",
"jp6663000000qy7y777677y7aapjmZZZCNNNCCNNCCACZZZmNNCCNCCCvcNNZZAAMC7363900800000033777*77ggjjja337736",
"jj6667000000yqqq77767777jjjpmmZZCNNNNNNNACCCZZZmCNCCCCNNvcNNZZAANN7333998800000037777i*7gggjaj377736",
"00aa6*073360093333aajpjp0000CCNNVVAAACAANNAACCmmMmVVNNNNbcVVNNNNNNjj33333300993633gaggja33qqjp777777",
"00pj66773300096333jjpjpp0000CNNNVVAACCANNNAACCVVmmVVNNNNbcZVNNNNNNjj33333300936633aaadpp00qqpp77*i*7",
"0000jj77763333333300970000uuCCNNVVmNCNNNCMCCAAVVZZmmNNBAbbAVNNNNmN00jj33733373777730600000q77qjjjjaa",
"0009aj77773333333300988809u6CCNNVVmZCCNNMMCCAAVVZZZmNNNAxxAANNNNBB00aa33733377777780000000qq0qjjjjjp",
"000000ja333333pa6*070q000000NNNNANNNAAAANNAAANNNZZZNBBvvxxmmmmmmNN7000pp766677jj33330000000000000qqy",
"000000aj773333ap6377qq000000CCNNANNNANAANNANANNNZZNNBBvvxxmmmmmmNN6u00pj776677jp3333000y00000000qqqq",
"80000033jaajpp00pj3377730000MMMMNNANNNNNNNNNAAZZNNNNBBzzxxVVNNZZBN000076pjpjpjqypj7377770000yy00qq77",
"80000033ajpppp00pp3377730000MMMMNNANANAANNNNNNZZANNNBBzzxxVVNNNNBB000076jpjpjjyqpj7777y0000yy07yq777",
"0000003300880000000033773333NNMMAANNAANANANNmmmmNNNNvvcbvvCCNANNNN70y07000qqqq7q79906*i*7*i733737733",
"0000003300080000000033373333NNMMAACNAANNNANNVVmmAANNvvcvvvCCNANNNN000y7*00q0yqyq0900666677*7yy733333",
"3337337633770008000088773333NCMMCCNNAACCNNCCMMNNCCllvvvxccCCCCNNNN3777777*i*qy7y0000907777y77*773666",
"3637336633770088000003773333NMMMCCCNCCCCNNCCMMNNCCllvvxxccCCCCNNNN3777777776yqqq0000967777777i*76666",
"gaaaagga33777777000076773337MMAANCNNAAAANNNNNNccvvvvvvvvnnNAMCCCZZjjaagg7777333300003*777766*iga7733",
"agagagaa337*7767000066773337CNMNCCNNAAAAmmNNNNvvvvvvvvvvnnNNCCVCmmpaaaaa7@77333300006677776667aa7733",
"00000000aa37*666770*66673377CCCCCAANNNAAmmVVCCvvbbbbvvvvccANAAmmmm000000jj37333377366677777ipj00jj33",
"00000000aa330666777666*03377CCCCCCAANNAAmmmVCCvvbbbbbbvvccANAAmmmm000000jj333333776676670*6*jp88pj33",
"0000000080ppjj77666777007966CCCCNNCCNCCCNNMVNNbbbbbbvvvvccVCmAmmmm0000007yjjgg377y773iq00q7300007999",
"0088000080ppjj6733*i37006966CCCCNNCCNCAAMMVVNNbbbbzzvvvvccVCmAmmmm000006yyjjgj3370*76*00007300009900",
"00000063870000009900qq000q66CCCNCCNNCCNNCCNNvvvvzcbbxxvvccAAVVAABm0000330060yy007y000000006600000000",
"0000q06300000000900078000966CCCNCCNNCCNNNNNNvvcczcxxvvvvllmmVCAABA0000770000yy00000000000q6600000000",
"8800000099633333663366000090ZNNNCCCMNNCCCAccbbvvzzxxxxxxxxBBBMNNNN69qq7q096*i7766*i7660e88q07733*i70",
"8800000096333333663366000096ZNNNCCMMCNCNAAvvbbvvzzxcxxkkxcBBMMNNCM00qqqq0066*6776633660q07qq7733777*",
"0000000033336633333376773333CCNNNCCCCCNCAAvvbbvvvxccccxxclmmmmmNNN79qqqq7677i*073333767073363333jppp",
"00000000333366333333777*3333ACNNNNCCCCNNAAxxvvvvbbccccxxccmBmmmNNNu9qqq7777076773333777*73663333pjpp",
"000600003633pjppjjaaja663333AAAACCCCNNmmbxvvcczzbbvvxxxxzxBBAAAAAAqq7quq336*ggaapppppj36333333jjiiii",
"000y00003333jpppaaajaj633333AANNCCCCNmmmxxvvvczzbbvvxxxxzbBBAAAAANqqqq7q3766aaajppjpap33336333jjiiii",
"7707663333aa0q00690090pajp77ANNNAANNNNmmxnnvzxzzzzzzcvccbxBBAAZZAA66667777aa8800000000pjaa3333337777",
"67*6677737jj8800990000jppj37ANNNNNNNNNmmnnnvxxzzzzzzccccbbBAAAZZCC66666777gg08qq000000jppa3333337777",
"666**0777666777677qq00097733mMNNCMNAAA1<--11<<11::::-;;;;-MMZZZACV667=y7777777663388e8qq3333336637*7",
"667i6377760*7766370q00063333NNNNCCAAMM11---1<<<1::11--;;--CCZZZACV6677777777776633080880333333663377",
"jppjjp6677y77777336600333333NNMMNCNNMN11--<<<<11;;111111>>CCZZZZZZppgg3777777733337700333633ppppagjj",
"pjappp3677770*77336600333333NNCCNNNNMM11;;<<<<11-;1111;1>>ACZZZZZZppga3777777*67337700373333ppjpaajj",
"q8qq7766737=jjjp33333333jpjjCCNCNNNNNN11;;;11111--11111111CCAAAAZZ006677@y33ddpp33337777pppp00000000",
"00qq77663377jppp33333333ppjpCCCCNNNNNN11;;111111--11111111NNAAZVZZ00*6777733ddpp33330*77pppj00000000",
"003*7776aggau000aa3363pp6quuNNNNNNNZoo  oooo .  ooo ooo o NNAVVVZZ660777jjag6000pj3377jjqq0000000000",
"00367777aajj0000aa3366paqqu7CNNNNNNmoo ooooo    ooo oo  o NNAAVVZZ66y777jjga0000pp3377gjyq0000000000",
"667766jp00000y0080aa7*i760qqNNNN..OOoooo  ..oooooo  ....oommCCCCNN7763pj0000000000pp33333000yy000000",
"666763jp0000y00080aa337700q0NNAA..OOoooo  ..oooooo  ....oommMCCCNN7067pp0000000000aj33330000y6000000",
"6677aa00000000000000ag776666MMNN..    ..oooooo  oooooo  ooVVMMCCNN6*pj00000000000099aa33366077000000",
"660*ap00000000000000ga776666MMMM.     .. ooooo  oooooo  ooMMMMCCAN33jp00000000000099aa33366*77000000",
"pp*yjp700000yyy0000000776666NNMMoo O  oooo..oooooo  ooooooNNAANNAA33pp000000000000000033337776660000",
"pj77jj000000yyy6000000y06667NNMMoo O  oooo..oooooo  ooooooANANNNAA77ppq00000000000000033333776660700",
"aj7777000000yqqq0900003*apapVV76oo  oo     .o   ..  .. oooNNCMNNNN7766000000000099000033aajj0*6*y7q0",
"ap7777000000qqq809000033ppddVV36oo ooo      oo  ...    oooNNCCNNNN7777000000000099000033jpjj767i0*80",
"ga77777300000000008q00770000mmjaOOoooo  .      o..o       ABNNAANN77333300009900yqq7qq676900jjpp7733",
"agy*776300000000808q00770000mmapOOoooooo.   o  o..oo      BBNNANAA77333300009900qyqyqq*i9900aapp7733",
"ga77jp*i00808800000000770008mmjaOO..oo7677aj77337qqq  oo33AANNNNAB@7dg3300000000yqyqqq6*900099pp777i",
"aa77pp6700808800000000770008mmapOO..oo7777aj7737qqy7  oo77BANNNNBByydg33000000007yqyqy66900099jp0*7*",
"6677q87300000000000066*7qq00u000OO...O77ja88jj77qqqq O  i6q0ZmmmNN3338330000q7quqyq7777600000000ag77",
"6667q8*3qq00000000006607qq000000.....O=7aa88jj77q7quOO  *6qqZmZmNm3308330900qquqqqqq707700000000aa77",
"6677qq77663700000000367700000000......aj8880yq77qquqOOOO6667u0q3NN7300336667quqqq7qy6*33000000000033",
"6677qq77663700000000777700000000......jj8800qq77q7q6OOOO666700q9NN7706336667uqqqq0y066630000008q0833",
"66pjq7qq7*77=777333333900800008q   .   .yqyq7q773300  ooooqq7qjj77pjqqq77733333333333300000000000077",
"66paqqqq7077y777333333990000008q  ..    qyqyqy773300o ooooqqqqaa77jpqqqy7733333333333300000000000037",
"37q8008qjaja33773333333300000088....oooo7qyq00773333   .  77qqjj6339qq09jaaa333333333330000000003333",
"378q000qjjaj33373333330000000088....ooooqqq700773333  ..o 7793aj63qq0006jjja333333333300000000003333"
};
