/* XPM */
static char *pixil_frame_01705329531[] = {
/* columns rows colors chars-per-pixel */
"50 50 47 1 ",
"  c #010000",
". c #010100",
"X c #010001",
"o c #010101",
"O c #141514",
"+ c #151514",
"@ c #141415",
"# c #151415",
"$ c #141515",
"% c #151515",
"& c #332000",
"* c #332100",
"= c #332001",
"- c #322101",
"; c #1C1B22",
": c #1D1B22",
"> c #1C1B23",
", c #1D1B23",
"< c #182024",
"1 c #192124",
"2 c #192025",
"3 c #182125",
"4 c #1B2024",
"5 c #1B2025",
"6 c #1A2125",
"7 c #1A2026",
"8 c #27222D",
"9 c #312434",
"0 c #302534",
"q c #312534",
"w c #312535",
"e c #332534",
"r c #332635",
"t c #6E4C10",
"y c #6F4C10",
"u c #6E4C11",
"i c #6F4C11",
"p c #6E4D11",
"a c #6F4D11",
"s c #B88424",
"d c #B98424",
"f c #B88524",
"g c #B98524",
"h c #B88425",
"j c #B98425",
"k c #B88525",
"l c #B98525",
/* pixels */
"22232>>>>>><22,>>>>gddsffjjfjj>222222;>>>>%2>2>>>>",
"2232>>>>>>%8>>>>ggggjjsksdffffkfk222;;>>>>;8,,>>rr",
"222;;;00r0r;>%5rggkgjjkksfffkkkkk53>;;rreer;;,%r22",
";;;;>02>23>00;;>dkggjkkkkkjfjkkkk>>,;r;2222rr;5;>>",
"2>%>>>>>,223,,ffddgkdjfkfkffkdkkddg,>>>>;2;2;;;;,,",
"rrr>>>2%,,>>;,gkddfkddfffffkgdkdddd,%>>>>>2;>;e0rr",
">2>>>;rr;,;;r0kkjkj           kdddk;25rr>;;;r02222",
"2>>>rr22r,,022kfkkf %%%O+%#%%+fkdgk;ee220;;e231222",
">>>r>22220>>;2kf    ####%#OOO#@#Ossr22222r;;222222",
">>r21222220>;;ff    ######O#@O##+fk222222;e;>>>222",
"e;e22222111;;;kk  O#+OO###+#@#O@+fk22222221;>>,>22",
"0;;12221122;0rff  OO#OOO#+####@@+ff;2222232;e0,;;2",
"e;>>3322221;22ff  $$##+#OO##O#OO+ff;2222322>22rr,>",
"e;r>2221;12>22ff  $$%%OOOOOO@#O@%ff;2222222>222r>>",
";;;>222222;>12ff  $$#%##@#OOO#@@+ff>222221>>2222r%",
";;2;>>2222>>32ff  $$###O#@O##O#O+ff>>>3>31>>22222>",
">r22>>>;,,,32>kf  %%%##%##%%#O@O%kk2;>>>>22222222>",
">222rr%;,,,33;kfkkkkkkfjjfsssskkkkk2rr>>>$;52222>8",
">222520;3>3321kffkkkkkkkdjfjkjfjkkk322r>2222525;>>",
">>22221>>333>>;;aaakkkyyaaaaataty>2122>>;222,>>;%0",
"r>22222>>>>>;;;;aaykffyyyyyyttyya>22;22;;;>>>>;%r5",
"r;;22122>>>>rrkkffkjkjkdkgkktkkkg>>22222;;>>0r0>;;",
"10>>>12>>00022kjfkkfdkdjjjfkykkkgr%>;22;;rrr12r>>;",
"22r>>>>>>>112>kgkkffjkgjjjkkyffkg2r>>>;;;;22>22rrr",
"2220;;;0>>33>3kgkffjfjkkkfkyakkkk;2r;>;r>>22221522",
"222>e0e2r>,,33dgfffjffkkffkyakkjk12;rrr2r>>>23522>",
"222>1122>32%>>kgkkfffjkkkkyyyjkjk22;222222>>>>%;>>",
";;;>>;;1355>>>kkjfffjfhhftyyajjfg;;;;;22215>>>;;>>",
"0e0e>>>>22>>,,dkkdddffftaayyyjkjkrr0>>>>21>;%8>r>>",
";222r>>>>,>>,,jjkfkdssjaaaytakjjk222r>>>>>>>>;r2r>",
"2222100;,,>3,,jjkgggssfaautttsffg;222rr>>>%52;2222",
"232;22<13333>,jddkgkjhuatuaatjjjg12;222251552;2222",
"222222;>,>,221ffddkkkyiiyyaaykkjk2223>>>>%>>33>>>$",
"2222$>;>>>,;>>ffdgdkgyiiaaaayjkkj;22>>>>2>>>>>>>0r",
"2132>>r0rr0;;;ffkkkkyiiyaaaayjkgk222,>rrrrr>>>>r88",
">>>>>023522e9;ffkffkyiiitaaaykgkk,;;;r25>22rr8$>>>",
">>>>O;>>>222;;fffff---------&fkkk;>>>>%;>333%,,>>>",
"ee0>;;>>>>2>;;fjfff----------fkfdrr>>>;;>>>>;,rr0r",
"1>>>>>rr>>>>99jfffg----------kfff>>>>>00>$>>0r3>>3",
"1>>>rr23r%>r>;jfgg     o     kfff;>>rr1108>r323311",
"%;;022222r>>22kkoo ooo       fffs>>e222230>>><3322",
"5;r3222222r>>>kk    o  o     kkfs>e2222223r>>>>322",
"r>r<2222133>;;kf oo   o X    kffs>e32222222>>>>>22",
"r>>22222117>r0k; oo  oo X    kfff>>22222322>rr>%;2",
"r,,>2222222>>2fr          XX kfff2;;2233223>>1wr%8",
"9;r>2222222>22fr   >>r>>73X ;ffff%r;22>3222>1130>;",
">>3>222222>>233>   >r2r>27X >2ffk>2;222222>>2232r;",
">>1>>>2222>>2333   r225>23 o>>23k>2>>>2232>>22222>",
">0>3>;;;;;;;2122  oo222>>1  o22r;r22;>>$>2>225222>",
";11200;;;;;12222   o221>>>  o>3r;225rr>8%>>>2222>>"
};
